<svg id="Layer_2" xmlns="http://www.w3.org/2000/svg" viewBox="0 0 155.11 209.75"><defs><style>.cls-1,.cls-2{opacity:.12;}.cls-1,.cls-3{fill:#fff;}.cls-4{opacity:.09;}.cls-5{fill:#698b49;}.cls-6{fill:#f1eeec;}.cls-7{fill:#e78f42;}.cls-8{fill:#8eb754;}.cls-9{fill:#e0713b;}.cls-10{fill:#59595b;}.cls-11{fill:#50717a;}.cls-12{fill:#82b1bd;}.cls-3{opacity:.14;}.cls-13{fill:#f4ebd7;opacity:.17;}.cls-14{opacity:.19;}.cls-15{opacity:.18;}</style></defs><g id="traditional_plan_popup"><g><g><path class="cls-6" d="M143.22,188.13l1.36,20.93-135.49-1.61s-9.72-7.55-7.68-13.89c2.04-6.34,8.97-9.6,8.97-9.6l132.84,4.16Z"/><path class="cls-2" d="M1.41,193.57c2.04-6.34,8.97-9.6,8.97-9.6l63.43,1.99h0c-2.76,6.41-2.98,14-.59,20.63l.59,1.64-64.72-.77s-9.72-7.55-7.68-13.89Z"/><path class="cls-7" d="M148.23,185.6l-137.55-3.34S0,182.36,0,194.44c0,12.08,9.3,14.4,9.3,14.4l139.01,.92-.36-5.2H11.37s-6.46,.21-6.46-8.83c0-9.04,5.96-8.47,5.96-8.47l137.44,3.01-.09-4.66Z"/><path class="cls-9" d="M10.68,182.26l61.15,1.49v4.78s-60.95-1.35-60.95-1.35c0,0-5.96-.65-5.96,8.39,0,9.04,6.46,8.68,6.46,8.68h60.45v4.81H9.3S0,206.63,0,194.55c0-12.08,10.68-12.29,10.68-12.29Z"/><path class="cls-15" d="M63.86,191.03s-4.51,2.91-4.36,9.32l-15.9,4.19,1.3-12.99,18.96-.52Z"/><path class="cls-10" d="M63.86,191.03s-10.01,3.12-9.78,11.68l-10.47,3.77-6.35-3.77s0-7.19,7.64-11.16l18.96-.52Z"/><path class="cls-13" d="M37.67,200.19c.33-1.18,.91-2.65,1.96-4.13h16.74c-.92,1.15-1.66,2.52-2.03,4.13h-16.66Z"/></g><g><path class="cls-12" d="M135.23,157.71l-54.72-1.06-1.55,28.25,59.17,1.33c.51,0,1.01-.04,1.5-.14,2.64-.56,10.06-3.03,10.19-12.96,.06-4.34-1.65-7.66-3.72-10.09-2.91-3.42-6.83-5.26-10.88-5.34Z"/><path class="cls-1" d="M144.81,161.71c.45,.42,.88,.87,1.29,1.35,.84,.99,1.62,2.13,2.25,3.42l-68.31-1.32,.26-4.7,64.51,1.24Z"/><path class="cls-4" d="M148.38,179.59c-2.32,4.65-6.81,6.09-8.74,6.51-.5,.11-1,.15-1.5,.14l-59.17-1.33,.36-6.65,69.05,1.33Z"/><path class="cls-6" d="M10.33,158.37l-.26,20.15,70.35,4.96s8.42-1.89,8.76-12.49c.34-10.6-9-12.76-9-12.76l-69.85,.14Z"/><path class="cls-2" d="M76.59,162l-66.27,1.82,.07-5.44,69.83-.14s9.31,2.16,8.97,12.76c-.24,7.36-.87,7.89-3.37,9.13l.07-6.89c.06-6.28-4.16-11.37-9.31-11.23Z"/><path class="cls-11" d="M80.51,156.73l-73.64-1.42-.07,5.25,73.68-.4s7.1,1.92,6.98,11.46c-.12,9.54-8.43,8.95-8.43,8.95l-72.44-3.68-.06,5.37,72.44,2.65s12.16,1.8,12.35-12.92c.19-14.72-10.8-15.26-10.8-15.26Z"/></g><g><path class="cls-6" d="M145.85,136.29l1.36,20.93-135.49-1.61s-9.72-7.55-7.68-13.89c2.04-6.34,8.97-9.6,8.97-9.6l132.84,4.16Z"/><path class="cls-2" d="M4.04,141.73c2.04-6.34,8.97-9.6,8.97-9.6l63.43,1.99h0c-2.76,6.41-2.98,14-.59,20.63l.59,1.64-64.72-.77s-9.72-7.55-7.68-13.89Z"/><path class="cls-8" d="M150.86,133.76l-137.55-3.34s-10.68,.33-10.68,12.41c0,12.08,9.3,14.63,9.3,14.63H151.01s0-4.89,0-4.89H14.01s-6.46,.28-6.46-8.76c0-9.04,5.96-8.43,5.96-8.43l137.44,3.02-.09-4.64Z"/><path class="cls-5" d="M13.31,130.42l61.15,1.49v4.78s-60.95-1.35-60.95-1.35c0,0-5.96-.65-5.96,8.39,0,9.04,6.46,8.68,6.46,8.68h60.45v5.04s-62.2,.46-62.2,.46c0,0-9.62-3.13-9.62-15.21s10.68-12.29,10.68-12.29Z"/></g><g><path class="cls-7" d="M132.42,104.7h-54.72s-1.19,28.47-1.19,28.47h59.19c.51,0,1.01-.06,1.5-.17,2.63-.61,10.02-3.23,10.02-13.15,0-4.34-1.75-7.63-3.85-10.02-2.96-3.36-6.9-5.13-10.95-5.13Z"/><path class="cls-2" d="M77.42,111.22l.27-6.52h54.72c4.04,0,7.99,1.77,10.95,5.13,.38,.43,.75,.9,1.1,1.39H77.42Z"/><path class="cls-4" d="M145.85,126.32c-2.26,4.69-6.73,6.22-8.66,6.67-.5,.12-1,.17-1.5,.17h-59.19s.29-6.85,.29-6.85h69.06Z"/><path class="cls-6" d="M7.9,107.76v20.15s70.23,3.61,70.23,3.61c0,0,8.3-2.05,8.51-12.66,.2-10.6-9.03-12.58-9.03-12.58l-69.71,1.49Z"/><path class="cls-2" d="M73.85,110.11l-66.23,3.09v-5.44s69.82-1.49,69.82-1.49c0,0,9.34,1.98,9.14,12.58-.14,7.36-.76,7.9-3.25,9.2l-.02-6.89c-.02-6.28-4.3-11.29-9.45-11.05Z"/><path class="cls-9" d="M77.69,104.86H3.61s0,5.16,0,5.16l73.88-1.82s7.23,1.78,7.23,11.33c0,9.54-8.48,9.11-8.48,9.11L3.61,126.35v4.63s72.69,2,72.69,2c0,0,12.28,1.61,12.28-13.11,0-14.72-10.89-15.01-10.89-15.01Z"/></g><g><path class="cls-12" d="M140.08,76.12l-54.71,1.28-1.05,28.3,59.49-1.19c.5-.01,1.01-.08,1.5-.21,2.62-.68,9.97-3.46,9.81-13.39-.07-4.34-1.87-7.59-4.01-9.92-3.01-3.29-6.98-4.97-11.02-4.87Z"/><path class="cls-1" d="M149.77,79.7c.46,.4,.91,.83,1.33,1.29,.87,.95,1.68,2.06,2.35,3.32l-68.31,1.59,.12-4.71,64.51-1.5Z"/><path class="cls-4" d="M153.85,97.42c-2.18,4.74-6.63,6.38-8.55,6.88-.49,.13-.99,.2-1.5,.21l-59.49,1.19,.49-6.66,69.05-1.61Z"/><path class="cls-6" d="M15.28,82.1l.32,20.15,70.45,1.96s8.36-2.25,8.39-12.86c.04-10.61-9.36-12.37-9.36-12.37l-69.8,3.12Z"/><path class="cls-2" d="M81.6,82.9l-66.17,4.64-.09-5.44,69.78-3.12s9.37,1.76,9.33,12.37c-.03,7.36-.64,7.92-3.1,9.27l-.13-6.89c-.12-6.28-4.48-11.19-9.63-10.83Z"/><path class="cls-11" d="M85.37,77.47l-73.64,1.72,.08,5.25,73.62-3.53s7.15,1.62,7.3,11.16c.15,9.54-8.17,9.3-8.17,9.3l-72.5-.59,.07,4.63,72.49,.31s12.2,1.28,11.97-13.43c-.23-14.72-11.23-14.8-11.23-14.8Z"/><path class="cls-14" d="M44.97,91.4s-5.5,3.06-5.43,13.46l-16.77-2.75,2.93-10.7h19.27Z"/><path class="cls-10" d="M45.58,91.4s-11,3.67-10.31,14.07l-10.65-2.85-7.54,2.85s1.22-11.01,8.64-14.07h19.87Z"/><path class="cls-3" d="M36.84,98.44H19.1c.65-1.41,1.49-2.84,2.58-4.08h18.71c-1.29,1.04-2.58,2.39-3.55,4.08Z"/></g><g><path class="cls-6" d="M146.46,57.39l1.36,20.93-135.49-1.61s-9.72-7.55-7.68-13.89,8.97-9.6,8.97-9.6l132.84,4.16Z"/><path class="cls-2" d="M4.65,62.83c2.04-6.34,8.97-9.6,8.97-9.6l63.43,1.99h0c-2.76,6.41-2.98,14-.59,20.63l.59,1.64-64.72-.77s-9.72-7.55-7.68-13.89Z"/><path class="cls-8" d="M151.47,54.86L13.92,51.52s-10.68,.33-10.68,12.41c0,12.08,9.3,14.63,9.3,14.63H151.63s0-4.89,0-4.89H14.62s-6.46,.28-6.46-8.76c0-9.04,5.96-8.43,5.96-8.43l137.44,3.02-.09-4.64Z"/><path class="cls-5" d="M13.92,51.52l61.15,1.49v4.78s-60.95-1.35-60.95-1.35c0,0-5.96-.65-5.96,8.39,0,9.04,6.46,8.68,6.46,8.68h60.45v5.04s-62.2,.46-62.2,.46c0,0-9.62-3.13-9.62-15.21s10.68-12.29,10.68-12.29Z"/></g><g><path class="cls-7" d="M135.23,27.44l-54.72-1.06-1.55,28.25,59.17,1.33c.51,0,1.01-.04,1.5-.14,2.64-.56,10.06-3.03,10.19-12.96,.06-4.34-1.65-7.66-3.72-10.09-2.91-3.42-6.83-5.26-10.88-5.34Z"/><path class="cls-1" d="M144.81,31.43c.45,.42,.88,.87,1.29,1.35,.84,.99,1.62,2.13,2.25,3.42l-68.31-1.32,.26-4.7,64.51,1.24Z"/><path class="cls-6" d="M10.33,28.1l-.26,20.15,70.35,4.96s8.42-1.89,8.76-12.49c.34-10.6-9-12.76-9-12.76l-69.85,.14Z"/><path class="cls-2" d="M76.59,31.73l-66.27,1.82,.07-5.44,69.83-.14s9.31,2.16,8.97,12.76c-.24,7.36-.87,7.89-3.37,9.13l.07-6.89c.06-6.28-4.16-11.37-9.31-11.23Z"/><path class="cls-9" d="M80.51,26.46L6.86,25.04l-.07,5.25,73.68-.4s7.1,1.92,6.98,11.46c-.12,9.54-8.43,8.95-8.43,8.95L6.58,46.62l-.06,5.37,72.44,2.65s12.16,1.8,12.35-12.92c.19-14.72-10.8-15.26-10.8-15.26Z"/></g><g><path class="cls-6" d="M143.83,5.87l1.36,20.93L9.71,25.2S-.02,17.65,2.02,11.31C4.06,4.97,10.99,1.71,10.99,1.71L143.83,5.87Z"/><path class="cls-2" d="M2.02,11.31C4.06,4.97,10.99,1.71,10.99,1.71l63.43,1.99h0c-2.76,6.41-2.98,14-.59,20.63l.59,1.64-64.72-.77S-.02,17.65,2.02,11.31Z"/><path class="cls-12" d="M148.84,3.34L11.29,0S.61,.1,.61,12.18c0,12.08,9.3,14.4,9.3,14.4l139.01,.92-.36-5.2H11.99s-6.46,.21-6.46-8.83c0-9.04,5.96-8.47,5.96-8.47l137.44,3.01-.09-4.66Z"/><path class="cls-11" d="M11.29,0l61.15,1.49V6.27S11.49,4.92,11.49,4.92c0,0-5.96-.65-5.96,8.39,0,9.04,6.46,8.68,6.46,8.68h60.45v4.81H9.91S.61,24.37,.61,12.29,11.29,0,11.29,0Z"/><path class="cls-15" d="M64.47,8.77s-4.51,2.91-4.36,9.32l-15.9,4.19,1.3-12.99,18.96-.52Z"/><path class="cls-10" d="M64.47,8.77s-10.01,3.12-9.78,11.68l-10.47,3.77-6.35-3.77s0-7.19,7.64-11.16l18.96-.52Z"/><path class="cls-13" d="M38.28,17.93c.33-1.18,.91-2.65,1.96-4.13h16.74c-.92,1.15-1.66,2.52-2.03,4.13h-16.66Z"/></g></g></g></svg>