<?xml version="1.0" encoding="UTF-8"?><svg id="Layer_2" xmlns="http://www.w3.org/2000/svg" viewBox="0 0 394.9 625.78"><defs><style>.cls-1{letter-spacing:0em;}.cls-2{fill:#66acb9;}.cls-3,.cls-4{fill:#fff;}.cls-4{font-family:Calibri-Bold, Calibri;font-size:32px;}.cls-5{letter-spacing:-.02em;}.cls-6{letter-spacing:0em;}</style></defs><g id="traditional_plan_popup"><g><rect class="cls-2" x=".64" width="394.26" height="556.69" rx="22.46" ry="22.46"/><g><path class="cls-3" d="M22.46,623.65c-11.21,0-20.34-9.12-20.34-20.34V71.22H392.14V603.32c0,11.21-9.12,20.34-20.34,20.34H22.46Z"/><path class="cls-2" d="M390.01,73.34V603.32c0,10.04-8.17,18.21-18.21,18.21H22.46c-10.04,0-18.21-8.17-18.21-18.21V73.34H390.01m4.25-4.25H0V603.32c0,12.41,10.06,22.46,22.46,22.46H371.8c12.41,0,22.46-10.06,22.46-22.46V69.09h0Z"/></g><text class="cls-4" transform="translate(79.32 44.86)"><tspan x="0" y="0">Docume</tspan><tspan class="cls-1" x="110.08" y="0">n</tspan><tspan x="126.95" y="0">t Lib</tspan><tspan class="cls-5" x="183.84" y="0">r</tspan><tspan x="194.52" y="0">a</tspan><tspan class="cls-6" x="210.31" y="0">r</tspan><tspan x="221.83" y="0">y</tspan></text></g></g></svg>