<?xml version="1.0" encoding="UTF-8"?><svg id="Layer_2" xmlns="http://www.w3.org/2000/svg" viewBox="0 0 110.26 119"><defs><style>.cls-1{fill:#ededed;}.cls-2{fill:#e2e2e2;}.cls-3{fill:#83b3bf;}.cls-4{fill:#75a3aa;}.cls-5{fill:#fff;font-family:Calibri-Bold, Calibri;font-size:35.63px;}.cls-6{fill:#59595b;opacity:.25;}</style></defs><g id="traditional_plan_popup"><g><polygon class="cls-4" points="25.28 89.6 2.97 74.11 31.7 74.11 25.28 89.6"/><path class="cls-1" d="M110.26,34.29V114.2c0,2.65-2.15,4.8-4.8,4.8H23.63c-2.65,0-4.8-2.15-4.8-4.8V4.8c0-2.65,2.15-4.8,4.8-4.8h52.35l34.29,34.29Z"/><path class="cls-2" d="M110.26,34.29h-30.15c-2.29,0-4.14-1.86-4.14-4.14V0l34.29,34.29Z"/><rect class="cls-3" y="37.42" width="76.64" height="36.69" rx="2.97" ry="2.97"/><text class="cls-5" transform="translate(9.12 67.19)"><tspan x="0" y="0">PDF</tspan></text><rect class="cls-6" x="31.6" y="82.02" width="65.21" height="5.38"/><rect class="cls-6" x="31.6" y="92.11" width="65.21" height="5.38"/><rect class="cls-6" x="31.6" y="102.19" width="65.21" height="5.38"/></g></g></svg>