<svg id="Group_331" data-name="Group 331" xmlns="http://www.w3.org/2000/svg" xmlns:xlink="http://www.w3.org/1999/xlink" width="604" height="327.845" viewBox="0 0 604 327.845">
  <defs>
    <clipPath id="clip-path">
      <path id="Path_240" data-name="Path 240" d="M293.623,206.532A68.182,68.182,0,1,0,361.8,138.35a68.184,68.184,0,0,0-68.182,68.182" fill="none"/>
    </clipPath>
  </defs>
  <g id="Group_57" data-name="Group 57">
    <g id="Group_48" data-name="Group 48">
      <path id="Path_198" data-name="Path 198" d="M137.609,187.681a.834.834,0,0,0-.321-.128c-.385-1.733-1.925-2.567-4.621-2.567a11.8,11.8,0,0,0-6.257,1.829,20.135,20.135,0,0,0-6.706,7.8,9.751,9.751,0,0,0-1.283,4.525,5.9,5.9,0,0,0,.834,3.08,6.6,6.6,0,0,1,.481.8,2.251,2.251,0,0,0,.417.514.7.7,0,0,0-.16.1l-.128.128a24.77,24.77,0,0,0-4.14,3.594A26.8,26.8,0,0,0,111.3,213.8a12.948,12.948,0,0,0-1.444,5.423,5.236,5.236,0,0,0,2.76,4.974,6.086,6.086,0,0,0,3.947,2.952,5.828,5.828,0,0,0,1.668.224,12.829,12.829,0,0,0,7.123-2.47,19.078,19.078,0,0,0,1.99-1.509c.674-.577,1.412-1.251,2.182-1.989a12.339,12.339,0,0,0,3.208-4.2v-.032a.244.244,0,0,1,.065-.129v-.321a2.064,2.064,0,0,0-1.059-1.668,3.122,3.122,0,0,0-1.155-.578,2.392,2.392,0,0,0-.9-1.476,2.271,2.271,0,0,0-1.54-.8,1.455,1.455,0,0,0-1.219.867,23.556,23.556,0,0,1-3.851,4.171,14.842,14.842,0,0,1-4.749,3.273,13.372,13.372,0,0,1,2.343-5.68,28.307,28.307,0,0,1,5.262-6.642,1.424,1.424,0,0,1,.706-.353h.064a5.123,5.123,0,0,0,1.476.193,3.986,3.986,0,0,0,1.155-.161c2.375-.609,3.562-1.7,3.562-3.208a2.171,2.171,0,0,0-2.214-2.343c-.064-1.508-1.059-2.278-2.984-2.278a4.7,4.7,0,0,0-1.187.193l.577-1.252a9.8,9.8,0,0,1,.674-1.283,18.832,18.832,0,0,1,3.048-4.043c1.573-1.669,2.984-2.471,4.2-2.471h.064a3.713,3.713,0,0,1,2.5.963v-.065a.655.655,0,0,0,.481.289,1.371,1.371,0,0,0,1.059-.642,2.017,2.017,0,0,0,.481-1.315v-.1A3.008,3.008,0,0,0,137.609,187.681Zm-.995,1.509a1,1,0,0,1-.77.513,6.524,6.524,0,0,0-.8-.578,4.611,4.611,0,0,0-2.15-.609q-1.828-.048-4.139,2.117a21.6,21.6,0,0,0-3.658,4.685,11.314,11.314,0,0,0-1.861,5.519c0,.642.192.931.577.931a1.147,1.147,0,0,0,.353-.1,9.63,9.63,0,0,1,3.53-1.187c1.7,0,2.535.642,2.535,1.958,0,1.283-1.091,2.214-3.241,2.791a5.273,5.273,0,0,1-2.439-.064,1.588,1.588,0,0,0-1.123.449,27.981,27.981,0,0,0-5.326,6.771c-1.6,2.6-2.407,4.684-2.407,6.321,0,1.6.642,2.374,1.926,2.374,1.315,0,3.208-1.155,5.743-3.529a23.9,23.9,0,0,0,3.915-4.3,1.115,1.115,0,0,1,.866-.61,1.218,1.218,0,0,1,.61.193,2.7,2.7,0,0,1,.674.513,2.365,2.365,0,0,1,.513.61,1.218,1.218,0,0,1,.192.577c0,.033-.032.193-.1.514a12.394,12.394,0,0,1-2.406,3.176c-4.043,4.332-7.926,6.482-11.584,6.482a5.492,5.492,0,0,1-1.572-.224c-2.824-.8-4.236-2.568-4.236-5.263a11.858,11.858,0,0,1,1.156-4.588,25.335,25.335,0,0,1,4.652-6.995c.674-.706,1.348-1.38,2.022-1.958s1.347-1.091,2.021-1.572c.321-.225.514-.417.514-.577a6.138,6.138,0,0,1-.9-1.412,6.386,6.386,0,0,1-.834-2.984,9.564,9.564,0,0,1,1.219-4.3Q125,185.4,132.667,185.4a8.1,8.1,0,0,1,1.573.161c1.732.321,2.631,1.155,2.695,2.535A1.649,1.649,0,0,1,136.614,189.19Z" fill="#5e8f3f"/>
      <path id="Path_199" data-name="Path 199" d="M136.935,188.1a1.649,1.649,0,0,1-.321,1.091,1,1,0,0,1-.77.513,6.524,6.524,0,0,0-.8-.578,4.611,4.611,0,0,0-2.15-.609q-1.828-.048-4.139,2.117a21.6,21.6,0,0,0-3.658,4.685,11.314,11.314,0,0,0-1.861,5.519c0,.642.192.931.577.931a1.147,1.147,0,0,0,.353-.1,9.63,9.63,0,0,1,3.53-1.187c1.7,0,2.535.642,2.535,1.958,0,1.283-1.091,2.214-3.241,2.791a5.273,5.273,0,0,1-2.439-.064,1.588,1.588,0,0,0-1.123.449,27.981,27.981,0,0,0-5.326,6.771c-1.6,2.6-2.407,4.684-2.407,6.321,0,1.6.642,2.374,1.926,2.374,1.315,0,3.208-1.155,5.743-3.529a23.9,23.9,0,0,0,3.915-4.3,1.115,1.115,0,0,1,.866-.61,1.218,1.218,0,0,1,.61.193,2.7,2.7,0,0,1,.674.513,2.365,2.365,0,0,1,.513.61,1.218,1.218,0,0,1,.192.577c0,.033-.032.193-.1.514a12.394,12.394,0,0,1-2.406,3.176c-4.043,4.332-7.926,6.482-11.584,6.482a5.492,5.492,0,0,1-1.572-.224c-2.824-.8-4.236-2.568-4.236-5.263a11.858,11.858,0,0,1,1.156-4.588,25.335,25.335,0,0,1,4.652-6.995c.674-.706,1.348-1.38,2.022-1.958s1.347-1.091,2.021-1.572c.321-.225.514-.417.514-.577a6.138,6.138,0,0,1-.9-1.412,6.386,6.386,0,0,1-.834-2.984,9.564,9.564,0,0,1,1.219-4.3Q125,185.4,132.667,185.4a8.1,8.1,0,0,1,1.573.161C135.972,185.885,136.871,186.719,136.935,188.1Z" fill="#fff"/>
      <path id="Path_200" data-name="Path 200" d="M167.193,213.094a1.7,1.7,0,0,0,.449-1.251v-.417a.993.993,0,0,0-.032-.321,3.689,3.689,0,0,0-.192-1.091.548.548,0,0,0-.61-.577.65.65,0,0,0-.578.288,6.672,6.672,0,0,1-1.893,1.733,5.036,5.036,0,0,1-2.31.931H161.8c0-.033.033-.065.065-.1l1.187-3.208c.481-1.348.9-2.407,1.155-3.241.289-.834.481-1.444.61-1.861a7.6,7.6,0,0,0,.256-1.8,2.792,2.792,0,0,0-1.668-2.792,4.274,4.274,0,0,0-.61-.321,2.843,2.843,0,0,0-1.6-1.893,3.935,3.935,0,0,0-1.958-.481c-1.732,0-3.5.995-5.326,2.984a2.763,2.763,0,0,0-1.38-.642c-.321-1.6-1.444-2.406-3.305-2.406a6.782,6.782,0,0,0-4.363,1.989,3.048,3.048,0,0,1-.353-.16,2.672,2.672,0,0,0-.61-.193c-.161-.064-.289-.1-.385-.128a.632.632,0,0,1,.032-.225v-.224a1.59,1.59,0,0,0-1.091-1.412,4.711,4.711,0,0,0-1.861-.385c-1.476,0-2.31.545-2.6,1.636q-3.177,11.359-4.524,16.429v.321c0,.866.77,1.283,2.31,1.283h.032a2.575,2.575,0,0,1-.1.353,1.465,1.465,0,0,1-.1.225v.321c0,.866.8,1.315,2.375,1.315s2.535-.385,2.856-1.155c.738-1.444,1.411-2.695,1.957-3.786.577-1.059,1.091-1.957,1.508-2.663-.321.77-.578,1.476-.8,2.117-.257.642-.449,1.22-.674,1.733a1.111,1.111,0,0,0-.1.385c0,.8.866,1.187,2.535,1.187a2.379,2.379,0,0,0-.225.578,1.45,1.45,0,0,0-.1.417c0,.8.866,1.219,2.567,1.219s2.663-.417,2.92-1.315a26.642,26.642,0,0,1,3.3-5.84,8.879,8.879,0,0,0-.129,1.155,3.334,3.334,0,0,0,2.343,3.241c.673,1.893,2.7,2.856,6.064,2.856a12.067,12.067,0,0,0,3.69-.514h.032a2.105,2.105,0,0,0,.481-.16c.418-1.316.835-2.76,1.284-4.332a3.635,3.635,0,0,1-.545.449v-.032Zm-.289-.32a9.745,9.745,0,0,1-7.091,2.47c-3.818,0-5.743-1.123-5.743-3.433a13.532,13.532,0,0,1,1.122-4.235c.225-.514.45-1,.642-1.477.225-.513.417-.994.642-1.508a14.992,14.992,0,0,0,1.059-2.759.6.6,0,0,0-.674-.674c-.481,0-1.091.513-1.829,1.508-.481.642-1.059,1.412-1.7,2.31a34.96,34.96,0,0,0-2.118,3.209,36.118,36.118,0,0,0-3.369,6c-.225.674-1.059.995-2.535.995q-2.118,0-2.118-.77c.032,0,1.6-4.075,4.749-12.225.289-.834.16-1.284-.417-1.38-.61-.1-1.444.514-2.5,1.765a47.607,47.607,0,0,0-3.851,6.193c-1.7,3.016-2.663,4.813-2.919,5.422-.257.642-1.059.931-2.471.931s-2.054-.321-1.925-.995c.77-2.7,1.54-5.39,2.278-8.118.77-2.7,1.508-5.487,2.278-8.342.225-.867.93-1.316,2.182-1.316a3.87,3.87,0,0,1,1.54.289q.963.434.963,1.059a1.186,1.186,0,0,1-.161.641,4.821,4.821,0,0,0-.481.995c-.16.449-.353.963-.578,1.572a12.017,12.017,0,0,0-.77,2.567c0,.129.032.193.1.193.16,0,.385-.225.673-.706,2.6-3.915,5.038-5.872,7.348-5.872a1.328,1.328,0,0,1,.321.032,2.2,2.2,0,0,1,.417.064,2.33,2.33,0,0,1,2.214,2.471,8.189,8.189,0,0,1-.834,3.241c-.257.481-.289.738-.128.738,0-.032.16-.161.385-.449.224-.257.545-.674.962-1.22,2.5-3.208,4.749-4.813,6.674-4.813a3.476,3.476,0,0,1,2.279.738,2.57,2.57,0,0,1,.93,2.086c0,.9-.673,3.144-1.989,6.706-.963,2.6-1.444,3.915-1.476,3.947a2.72,2.72,0,0,0-.129.738c0,1.123,1.059,1.6,3.177,1.476a6.025,6.025,0,0,0,2.567-1.027,7.611,7.611,0,0,0,2.021-1.861c.161-.16.289-.128.354.128a3.325,3.325,0,0,1,.224,1.733A1.594,1.594,0,0,1,166.9,212.774Z" fill="#5e8f3f"/>
      <path id="Path_201" data-name="Path 201" d="M167.193,211.811a1.594,1.594,0,0,1-.289.963,9.745,9.745,0,0,1-7.091,2.47c-3.818,0-5.743-1.123-5.743-3.433a13.532,13.532,0,0,1,1.122-4.235c.225-.514.45-1,.642-1.477.225-.513.417-.994.642-1.508a14.992,14.992,0,0,0,1.059-2.759.6.6,0,0,0-.674-.674c-.481,0-1.091.513-1.829,1.508-.481.642-1.059,1.412-1.7,2.31a34.96,34.96,0,0,0-2.118,3.209,36.118,36.118,0,0,0-3.369,6c-.225.674-1.059.995-2.535.995q-2.118,0-2.118-.77c.032,0,1.6-4.075,4.749-12.225.289-.834.16-1.284-.417-1.38-.61-.1-1.444.514-2.5,1.765a47.607,47.607,0,0,0-3.851,6.193c-1.7,3.016-2.663,4.813-2.919,5.422-.257.642-1.059.931-2.471.931s-2.054-.321-1.925-.995c.77-2.7,1.54-5.39,2.278-8.118.77-2.7,1.508-5.487,2.278-8.342.225-.867.93-1.316,2.182-1.316a3.87,3.87,0,0,1,1.54.289q.963.434.963,1.059a1.186,1.186,0,0,1-.161.641,4.821,4.821,0,0,0-.481.995c-.16.449-.353.963-.578,1.572a12.017,12.017,0,0,0-.77,2.567c0,.129.032.193.1.193.16,0,.385-.225.673-.706,2.6-3.915,5.038-5.872,7.348-5.872a1.328,1.328,0,0,1,.321.032,2.2,2.2,0,0,1,.417.064,2.33,2.33,0,0,1,2.214,2.471,8.189,8.189,0,0,1-.834,3.241c-.257.481-.289.738-.128.738,0-.032.16-.161.385-.449.224-.257.545-.674.962-1.22,2.5-3.208,4.749-4.813,6.674-4.813a3.476,3.476,0,0,1,2.279.738,2.57,2.57,0,0,1,.93,2.086c0,.9-.673,3.144-1.989,6.706-.963,2.6-1.444,3.915-1.476,3.947a2.72,2.72,0,0,0-.129.738c0,1.123,1.059,1.6,3.177,1.476a6.025,6.025,0,0,0,2.567-1.027,7.611,7.611,0,0,0,2.021-1.861c.161-.16.289-.128.354.128A3.325,3.325,0,0,1,167.193,211.811Z" fill="#fff"/>
      <path id="Path_202" data-name="Path 202" d="M180.317,201.19a2.641,2.641,0,0,0-1.22.353c-.834.482-2.085,1.957-3.754,4.46a25.4,25.4,0,0,0-2.791,5.07c-.032.225,0,.353.16.385a3.882,3.882,0,0,0,.61-.128,4.822,4.822,0,0,1,1.187-.129,6.9,6.9,0,0,1,3.241.642c.1.032.353-.16.738-.577a14.987,14.987,0,0,0,2.374-3.69,10.458,10.458,0,0,0,1.348-4.172C182.274,201.928,181.632,201.19,180.317,201.19Zm-2.182,9.787h.032a2.574,2.574,0,0,1-.193.257c-.064.064-.128.1-.16.128a3.819,3.819,0,0,0-1.412-.449c.289-.45.546-.9.77-1.316.257-.417.514-.8.738-1.155v.064c1.669-2.5,2.856-3.947,3.626-4.332.032,0,.064-.032.1-.064h.032A14.976,14.976,0,0,1,178.135,210.977Zm2.182-9.787a2.641,2.641,0,0,0-1.22.353c-.834.482-2.085,1.957-3.754,4.46a25.4,25.4,0,0,0-2.791,5.07c-.032.225,0,.353.16.385a3.882,3.882,0,0,0,.61-.128,4.822,4.822,0,0,1,1.187-.129,6.9,6.9,0,0,1,3.241.642c.1.032.353-.16.738-.577a14.987,14.987,0,0,0,2.374-3.69,10.458,10.458,0,0,0,1.348-4.172C182.274,201.928,181.632,201.19,180.317,201.19Zm-2.182,9.787h.032a2.574,2.574,0,0,1-.193.257c-.064.064-.128.1-.16.128a3.819,3.819,0,0,0-1.412-.449c.289-.45.546-.9.77-1.316.257-.417.514-.8.738-1.155v.064c1.669-2.5,2.856-3.947,3.626-4.332.032,0,.064-.032.1-.064h.032A14.976,14.976,0,0,1,178.135,210.977Zm2.182-9.787a2.641,2.641,0,0,0-1.22.353c-.834.482-2.085,1.957-3.754,4.46a25.4,25.4,0,0,0-2.791,5.07c-.032.225,0,.353.16.385a3.882,3.882,0,0,0,.61-.128,4.822,4.822,0,0,1,1.187-.129,6.9,6.9,0,0,1,3.241.642c.1.032.353-.16.738-.577a14.987,14.987,0,0,0,2.374-3.69,10.458,10.458,0,0,0,1.348-4.172C182.274,201.928,181.632,201.19,180.317,201.19Zm-2.182,9.787h.032a2.574,2.574,0,0,1-.193.257c-.064.064-.128.1-.16.128a3.819,3.819,0,0,0-1.412-.449c.289-.45.546-.9.77-1.316.257-.417.514-.8.738-1.155v.064c1.669-2.5,2.856-3.947,3.626-4.332.032,0,.064-.032.1-.064h.032A14.976,14.976,0,0,1,178.135,210.977Zm2.182-9.787a2.641,2.641,0,0,0-1.22.353c-.834.482-2.085,1.957-3.754,4.46a25.4,25.4,0,0,0-2.791,5.07c-.032.225,0,.353.16.385a3.882,3.882,0,0,0,.61-.128,4.822,4.822,0,0,1,1.187-.129,6.9,6.9,0,0,1,3.241.642c.1.032.353-.16.738-.577a14.987,14.987,0,0,0,2.374-3.69,10.458,10.458,0,0,0,1.348-4.172C182.274,201.928,181.632,201.19,180.317,201.19Zm-2.182,9.787h.032a2.574,2.574,0,0,1-.193.257c-.064.064-.128.1-.16.128a3.819,3.819,0,0,0-1.412-.449c.289-.45.546-.9.77-1.316.257-.417.514-.8.738-1.155v.064c1.669-2.5,2.856-3.947,3.626-4.332.032,0,.064-.032.1-.064h.032A14.976,14.976,0,0,1,178.135,210.977Zm14.5,3.722a2.908,2.908,0,0,1-1.54-1.925l-.128.128a.91.91,0,0,1-.193.161v-.033a.712.712,0,0,0,.257-.417,1.512,1.512,0,0,0,.16-.77v-.417a2.986,2.986,0,0,0-.256-1.348c0-.064,0-.1-.033-.128l.065.064v-.064a.518.518,0,0,0-.385-.481.631.631,0,0,0-.257-.032.65.65,0,0,0-.578.288,6.925,6.925,0,0,1-2.149,1.861c-.482.225-.867.418-1.156.546.1-.193.161-.321.225-.353a13.823,13.823,0,0,0,2.342-7.605,4.512,4.512,0,0,0-2.6-4.2,5.131,5.131,0,0,0-1.925-2.054,5,5,0,0,0-2.631-.77,4.7,4.7,0,0,0-2.342.642,1.527,1.527,0,0,0-.995-1.219,3.406,3.406,0,0,0-1.412-.225h-.032c.032,0,.032-.032.032-.064v.064a1.35,1.35,0,0,0-.77-1.989,3.624,3.624,0,0,0-1.7-.225,5.378,5.378,0,0,0-1.443.225,2.329,2.329,0,0,0-1.252,1.283c-.866,3.016-1.572,5.647-2.214,7.894q-.915,3.321-1.54,5.583c-.193.674-.385,1.347-.578,1.989-.224.77-.449,1.508-.641,2.214v.032c-.45,1.476-.867,2.824-1.22,4.043h-.032c-.064.257-.16.514-.224.77-.771,2.439-1.412,4.364-1.894,5.712a1.494,1.494,0,0,0-.128.481,1.216,1.216,0,0,0,.834,1.187h-.064a2.581,2.581,0,0,0,1.476.321h.128a.243.243,0,0,0-.032.129c0,.032-.032.064-.064.1a1.328,1.328,0,0,0-.128.481,1.237,1.237,0,0,0,.9,1.187h-.064a2.514,2.514,0,0,0,1.476.321,8.422,8.422,0,0,0,.866-.032,5.564,5.564,0,0,0,1-.224,2.885,2.885,0,0,0,.963-.546,2.519,2.519,0,0,0,.706-.962l1.155-4.076c.289-1.026.545-1.925.738-2.695.225-.77.385-1.412.545-1.893h.129a6.087,6.087,0,0,0,.994.1c.289.032.482.032.642.064a8.181,8.181,0,0,0,1.219.129v-.61l.1.61c.834-.129,1.476-.257,1.957-.353a4.482,4.482,0,0,0,.963-.257h.128a.192.192,0,0,1,.128-.032c.129,0,.193,0,.225.032a14,14,0,0,0,4.267.61h.514c3.369,0,5.968-.9,7.765-2.663l.032-.033a.831.831,0,0,0,.225-.352C192.991,214.827,192.8,214.763,192.638,214.7Zm-2.214-1.925c-1.861,1.8-4.524,2.631-7.99,2.534a19.55,19.55,0,0,1-3.978-.481,1.069,1.069,0,0,0-.77-.1c-.225.064-.61.128-1.091.257-.514.1-1.156.192-1.893.32l-2.856-.256a.631.631,0,0,0-.578.16l-2.5,8.92a1.584,1.584,0,0,1-1.251,1.027,4.793,4.793,0,0,1-3.048,0,.9.9,0,0,1-.514-1.155c.578-1.572,1.252-3.594,2.054-6.064.064-.225.16-.482.224-.706.418-1.316.835-2.76,1.284-4.332h.032c.353-1.155.706-2.374,1.091-3.658.834-3.016,1.6-5.647,2.214-7.893.642-2.247,1.155-4.14,1.572-5.68a1.876,1.876,0,0,1,.931-.93,6.062,6.062,0,0,1,1.348-.161,3.88,3.88,0,0,1,1.443.161,1.075,1.075,0,0,1,.578,1.412c-.16.449-.353,1.123-.642,2.053s-.609,2.118-.994,3.53c-.065.224-.065.353,0,.385.064.064.128.032.224-.1,2.535-2.953,4.717-4.461,6.546-4.461a4.019,4.019,0,0,1,1.893.45,4.194,4.194,0,0,1,2.6,3.946,24.4,24.4,0,0,1-.257,2.824,11.125,11.125,0,0,1-1.989,4.492,18.557,18.557,0,0,1-1.989,2.631c-.353.353-.385.578-.129.642a7.352,7.352,0,0,0,3.658.225,6.563,6.563,0,0,0,4.525-2.824c.128-.16.256-.128.352.128a3.677,3.677,0,0,1,.225,1.733,2.9,2.9,0,0,1-.16.706v.032C190.52,212.645,190.488,212.742,190.424,212.774ZM180.317,201.19a2.641,2.641,0,0,0-1.22.353c-.834.482-2.085,1.957-3.754,4.46a25.4,25.4,0,0,0-2.791,5.07c-.032.225,0,.353.16.385a3.882,3.882,0,0,0,.61-.128,4.822,4.822,0,0,1,1.187-.129,6.9,6.9,0,0,1,3.241.642c.1.032.353-.16.738-.577a14.987,14.987,0,0,0,2.374-3.69,10.458,10.458,0,0,0,1.348-4.172C182.274,201.928,181.632,201.19,180.317,201.19Zm-2.182,9.787h.032a2.574,2.574,0,0,1-.193.257c-.064.064-.128.1-.16.128a3.819,3.819,0,0,0-1.412-.449c.289-.45.546-.9.77-1.316.257-.417.514-.8.738-1.155v.064c1.669-2.5,2.856-3.947,3.626-4.332.032,0,.064-.032.1-.064h.032A14.976,14.976,0,0,1,178.135,210.977Zm2.182-9.787a2.641,2.641,0,0,0-1.22.353c-.834.482-2.085,1.957-3.754,4.46a25.4,25.4,0,0,0-2.791,5.07c-.032.225,0,.353.16.385a3.882,3.882,0,0,0,.61-.128,4.822,4.822,0,0,1,1.187-.129,6.9,6.9,0,0,1,3.241.642c.1.032.353-.16.738-.577a14.987,14.987,0,0,0,2.374-3.69,10.458,10.458,0,0,0,1.348-4.172C182.274,201.928,181.632,201.19,180.317,201.19Zm-2.182,9.787h.032a2.574,2.574,0,0,1-.193.257c-.064.064-.128.1-.16.128a3.819,3.819,0,0,0-1.412-.449c.289-.45.546-.9.77-1.316.257-.417.514-.8.738-1.155v.064c1.669-2.5,2.856-3.947,3.626-4.332.032,0,.064-.032.1-.064h.032A14.976,14.976,0,0,1,178.135,210.977Zm2.182-9.787a2.641,2.641,0,0,0-1.22.353c-.834.482-2.085,1.957-3.754,4.46a25.4,25.4,0,0,0-2.791,5.07c-.032.225,0,.353.16.385a3.882,3.882,0,0,0,.61-.128,4.822,4.822,0,0,1,1.187-.129,6.9,6.9,0,0,1,3.241.642c.1.032.353-.16.738-.577a14.987,14.987,0,0,0,2.374-3.69,10.458,10.458,0,0,0,1.348-4.172C182.274,201.928,181.632,201.19,180.317,201.19Zm-2.182,9.787h.032a2.574,2.574,0,0,1-.193.257c-.064.064-.128.1-.16.128a3.819,3.819,0,0,0-1.412-.449c.289-.45.546-.9.77-1.316.257-.417.514-.8.738-1.155v.064c1.669-2.5,2.856-3.947,3.626-4.332.032,0,.064-.032.1-.064h.032A14.976,14.976,0,0,1,178.135,210.977Zm2.182-9.787a2.641,2.641,0,0,0-1.22.353c-.834.482-2.085,1.957-3.754,4.46a25.4,25.4,0,0,0-2.791,5.07c-.032.225,0,.353.16.385a3.882,3.882,0,0,0,.61-.128,4.822,4.822,0,0,1,1.187-.129,6.9,6.9,0,0,1,3.241.642c.1.032.353-.16.738-.577a14.987,14.987,0,0,0,2.374-3.69,10.458,10.458,0,0,0,1.348-4.172C182.274,201.928,181.632,201.19,180.317,201.19Zm-2.182,9.787h.032a2.574,2.574,0,0,1-.193.257c-.064.064-.128.1-.16.128a3.819,3.819,0,0,0-1.412-.449c.289-.45.546-.9.77-1.316.257-.417.514-.8.738-1.155v.064c1.669-2.5,2.856-3.947,3.626-4.332.032,0,.064-.032.1-.064h.032A14.976,14.976,0,0,1,178.135,210.977Zm2.182-9.787a2.641,2.641,0,0,0-1.22.353c-.834.482-2.085,1.957-3.754,4.46a25.4,25.4,0,0,0-2.791,5.07c-.032.225,0,.353.16.385a3.882,3.882,0,0,0,.61-.128,4.822,4.822,0,0,1,1.187-.129,6.9,6.9,0,0,1,3.241.642c.1.032.353-.16.738-.577a14.987,14.987,0,0,0,2.374-3.69,10.458,10.458,0,0,0,1.348-4.172C182.274,201.928,181.632,201.19,180.317,201.19Zm-2.182,9.787h.032a2.574,2.574,0,0,1-.193.257c-.064.064-.128.1-.16.128a3.819,3.819,0,0,0-1.412-.449c.289-.45.546-.9.77-1.316.257-.417.514-.8.738-1.155v.064c1.669-2.5,2.856-3.947,3.626-4.332.032,0,.064-.032.1-.064h.032A14.976,14.976,0,0,1,178.135,210.977Z" fill="#5e8f3f"/>
      <path id="Path_203" data-name="Path 203" d="M190.456,211.362v-.674a2.488,2.488,0,0,1,.064-.513v-.1c-.1-.256-.224-.288-.352-.128a6.563,6.563,0,0,1-4.525,2.824,7.352,7.352,0,0,1-3.658-.225c-.256-.064-.224-.289.129-.642a18.557,18.557,0,0,0,1.989-2.631,11.125,11.125,0,0,0,1.989-4.492,24.4,24.4,0,0,0,.257-2.824,4.194,4.194,0,0,0-2.6-3.946,4.019,4.019,0,0,0-1.893-.45c-1.829,0-4.011,1.508-6.546,4.461-.1.128-.16.16-.224.1-.065-.032-.065-.161,0-.385.385-1.412.706-2.6.994-3.53s.482-1.6.642-2.053a1.075,1.075,0,0,0-.578-1.412,3.88,3.88,0,0,0-1.443-.161,6.062,6.062,0,0,0-1.348.161,1.876,1.876,0,0,0-.931.93c-.417,1.54-.93,3.433-1.572,5.68-.61,2.246-1.38,4.877-2.214,7.893-.385,1.284-.738,2.5-1.091,3.658h-.032c-.449,1.572-.866,3.016-1.284,4.332-.064.224-.16.481-.224.706-.8,2.47-1.476,4.492-2.054,6.064a.9.9,0,0,0,.514,1.155,4.793,4.793,0,0,0,3.048,0,1.584,1.584,0,0,0,1.251-1.027l2.5-8.92a.631.631,0,0,1,.578-.16l2.856.256c.737-.128,1.379-.224,1.893-.32.481-.129.866-.193,1.091-.257a1.069,1.069,0,0,1,.77.1,19.55,19.55,0,0,0,3.978.481c3.466.1,6.129-.737,7.99-2.534.064-.032.1-.129.161-.225v-.032A4.364,4.364,0,0,1,190.456,211.362Zm-11.968-.1c-.385.417-.642.609-.738.577a6.9,6.9,0,0,0-3.241-.642,4.822,4.822,0,0,0-1.187.129,3.882,3.882,0,0,1-.61.128c-.16-.032-.192-.16-.16-.385a25.4,25.4,0,0,1,2.791-5.07c1.669-2.5,2.92-3.978,3.754-4.46a2.641,2.641,0,0,1,1.22-.353c1.315,0,1.957.738,1.893,2.214a10.458,10.458,0,0,1-1.348,4.172A14.987,14.987,0,0,1,178.488,211.266Z" fill="#fff"/>
      <path id="Path_204" data-name="Path 204" d="M191.034,212.613a.712.712,0,0,1-.257.417v.033a.91.91,0,0,0,.193-.161l.128-.128C191.034,212.742,191.034,212.677,191.034,212.613Zm-.129-2.663c.033.032.033.064.033.128v-.1Zm12.964,2.663a1.231,1.231,0,0,1-.289.289c-.225.192-.481.385-.738.578l.417-.386a.768.768,0,0,0,.225-.385,1.278,1.278,0,0,0,.16-.705v-.033a7.178,7.178,0,0,1-.257-1.925.869.869,0,0,1,.033-.289v-.032a.464.464,0,0,0-.418-.256.24.24,0,0,0-.16-.032.65.65,0,0,0-.578.288,7.522,7.522,0,0,1-2.246,1.926,5.182,5.182,0,0,1-1.957.738h-.481c.032-.1.064-.257.128-.482.353-1.54.834-3.273,1.412-5.23.577-1.893,1.251-4.075,1.989-6.481a7.156,7.156,0,0,1,.9-1.8,23.88,23.88,0,0,0,1.8-2.76,15.6,15.6,0,0,0,1.283-2.92,4.965,4.965,0,0,0,.321-1.732c0-1.829-.77-2.888-2.342-3.241a2.712,2.712,0,0,0-2.375-2.246h-.321c-1.925,0-3.594,1.829-5.037,5.487a22.944,22.944,0,0,0-.867,2.6c-.385,1.347-.93,3.112-1.572,5.326-.674,2.407-1.219,4.492-1.572,6.289-.353,1.7-.61,3.112-.738,4.268a.625.625,0,0,0-.032.224.687.687,0,0,1-.033.257v.225a2.488,2.488,0,0,0-.064.513v.674a4.364,4.364,0,0,0,.129,1.155v.032a1.514,1.514,0,0,0,.192.481v.033a3.548,3.548,0,0,0,1.637,1.989,1.254,1.254,0,0,1,.288.128.463.463,0,0,0,.193.064l.032.033a3.216,3.216,0,0,0,1.7,1.957,7.492,7.492,0,0,0,3.529.674,9.693,9.693,0,0,0,7.284-2.664.437.437,0,0,0,.193-.224,1.262,1.262,0,0,0,.192-.353A4.2,4.2,0,0,1,203.869,212.613Zm-7.926,2.631a9.329,9.329,0,0,1-2.759-.352c-.193-.065-.385-.129-.546-.193a2.908,2.908,0,0,1-1.54-1.925c-.064-.032-.064-.1-.064-.161a3.919,3.919,0,0,1-.161-1.251c0-.385.032-.8.065-1.284v-.1l.032-.032a64.032,64.032,0,0,1,2.374-10.91c.642-2.246,1.155-4.01,1.54-5.326.385-1.283.642-2.118.8-2.5,1.444-3.658,3.081-5.423,4.942-5.262,1.412.16,2.118,1.091,2.118,2.824a4.654,4.654,0,0,1-.257,1.6,18.065,18.065,0,0,1-3.048,5.551,8.605,8.605,0,0,0-.931,1.861c-1.572,4.845-2.727,8.76-3.433,11.808a7.693,7.693,0,0,0-.321,1.733,1.068,1.068,0,0,0,.321.866c.417.417,1.412.642,2.984.642a5.381,5.381,0,0,0,2.182-.8,8.165,8.165,0,0,0,2.439-2.086c.1-.128.224-.128.288.032.032.032.065.064.065.1a4.152,4.152,0,0,1,.224,1.733c0,.064-.032.128-.032.193a1.255,1.255,0,0,1-.289.77A9.558,9.558,0,0,1,195.943,215.244ZM190.9,209.95c.033.032.033.064.033.128v-.1Zm.129,2.663a.712.712,0,0,1-.257.417v.033a.91.91,0,0,0,.193-.161l.128-.128C191.034,212.742,191.034,212.677,191.034,212.613Z" fill="#5e8f3f"/>
      <path id="Path_205" data-name="Path 205" d="M203.227,212a1.255,1.255,0,0,1-.289.77,9.558,9.558,0,0,1-7,2.47,9.329,9.329,0,0,1-2.759-.352c-.193-.065-.385-.129-.546-.193a2.908,2.908,0,0,1-1.54-1.925c-.064-.032-.064-.1-.064-.161a1.512,1.512,0,0,0,.16-.77v-.417a2.986,2.986,0,0,0-.256-1.348v-.1l.032.032v-.064a64.032,64.032,0,0,1,2.374-10.91c.642-2.246,1.155-4.01,1.54-5.326.385-1.283.642-2.118.8-2.5,1.444-3.658,3.081-5.423,4.942-5.262,1.412.16,2.118,1.091,2.118,2.824a4.654,4.654,0,0,1-.257,1.6,18.065,18.065,0,0,1-3.048,5.551,8.605,8.605,0,0,0-.931,1.861c-1.572,4.845-2.727,8.76-3.433,11.808a7.693,7.693,0,0,0-.321,1.733,1.068,1.068,0,0,0,.321.866c.417.417,1.412.642,2.984.642a5.381,5.381,0,0,0,2.182-.8,8.165,8.165,0,0,0,2.439-2.086c.1-.128.224-.128.288.032v.064A7.436,7.436,0,0,0,203.227,212Z" fill="#fff"/>
      <path id="Path_206" data-name="Path 206" d="M203.644,212a1.278,1.278,0,0,1-.16.705.277.277,0,0,0,.1.193,1.231,1.231,0,0,0,.289-.289C203.8,212.421,203.708,212.228,203.644,212Zm16.91-10.942a2.941,2.941,0,0,0-.417-.257,3.569,3.569,0,0,0-.61-.257,3.1,3.1,0,0,0-3.24-2.342,3.418,3.418,0,0,0-1.059.128q-.289-1.3-2.022-1.251a8.969,8.969,0,0,0-5.776,2.663,12.337,12.337,0,0,0-3.529,5.263,17.151,17.151,0,0,0-.9,4.46,2.94,2.94,0,0,0-.032.513v.064a7.436,7.436,0,0,0,.257,1.958,2.619,2.619,0,0,0,.257.705.277.277,0,0,0,.1.193,4.385,4.385,0,0,0,2.054,2.118c.032.032.064.032.1.064,1.059,2.021,2.984,3.048,5.84,3.048a8.516,8.516,0,0,0,7.283-3.979,2.554,2.554,0,0,0,.257-.385c-.128-.192-.289-.417-.417-.641a1.982,1.982,0,0,1-.353-1.059,4.8,4.8,0,0,1-.064-.674,4.983,4.983,0,0,1-.032-.706,24.52,24.52,0,0,1,1.636-7.893Q220.217,201.88,220.554,201.062Zm-1.251,2.15a15.1,15.1,0,0,1-1.316,5.262v.032c-.16.385-.353.8-.545,1.219-1.894,3.851-4.589,5.744-8.086,5.744a8.543,8.543,0,0,1-2.888-.481,4.008,4.008,0,0,1-.642-.321,4.2,4.2,0,0,1-1.957-2.054c-.064-.192-.161-.385-.225-.609v-.033a7.178,7.178,0,0,1-.257-1.925.869.869,0,0,1,.033-.289v-.032a14.587,14.587,0,0,1,.9-4.492,11.9,11.9,0,0,1,3.4-5.134,8.5,8.5,0,0,1,5.487-2.567,1.716,1.716,0,0,1,1.412.45c.289.385.16.705-.353.994a11.736,11.736,0,0,0-2.118,2.214c-2.92,3.594-4.4,6.8-4.4,9.594,0,1.38.674,2.086,1.99,2.086a4.068,4.068,0,0,0,3.273-2.086,14.851,14.851,0,0,0,1.6-3.561,11.884,11.884,0,0,0,.706-2.632,1.129,1.129,0,0,0-.481-.93,2.431,2.431,0,0,1-.995-2.182c0-1.893.834-2.856,2.439-2.856,2.021,0,3.048,1.38,3.048,4.075a2.441,2.441,0,0,1-.032.482Zm-4.813.77c0,.032.032.032.064.032a.612.612,0,0,1,.321.577,10.572,10.572,0,0,1-.706,2.5c-.289.834-.578,1.54-.835,2.118a5.466,5.466,0,0,1-.673,1.316,4.47,4.47,0,0,1-2.214,1.8C210.735,209.725,212.083,206.934,214.49,203.982ZM203.644,212a1.278,1.278,0,0,1-.16.705.277.277,0,0,0,.1.193,1.231,1.231,0,0,0,.289-.289C203.8,212.421,203.708,212.228,203.644,212Z" fill="#5e8f3f"/>
      <path id="Path_207" data-name="Path 207" d="M219.335,202.7a2.441,2.441,0,0,1-.032.482v.032a25.709,25.709,0,0,0-1.316,5.262v.032c-.16.385-.353.8-.545,1.219-1.894,3.851-4.589,5.744-8.086,5.744a8.543,8.543,0,0,1-2.888-.481,4.008,4.008,0,0,1-.642-.321,4.2,4.2,0,0,1-1.957-2.054c-.064-.192-.161-.385-.225-.609v-.033a7.178,7.178,0,0,1-.257-1.925.869.869,0,0,1,.033-.289v-.032a14.587,14.587,0,0,1,.9-4.492,11.9,11.9,0,0,1,3.4-5.134,8.5,8.5,0,0,1,5.487-2.567,1.716,1.716,0,0,1,1.412.45c.289.385.16.705-.353.994a11.736,11.736,0,0,0-2.118,2.214c-2.92,3.594-4.4,6.8-4.4,9.594,0,1.38.674,2.086,1.99,2.086a4.068,4.068,0,0,0,3.273-2.086,14.851,14.851,0,0,0,1.6-3.561,11.884,11.884,0,0,0,.706-2.632,1.129,1.129,0,0,0-.481-.93,2.431,2.431,0,0,1-.995-2.182c0-1.893.834-2.856,2.439-2.856C218.308,198.623,219.335,200,219.335,202.7Z" fill="#fff"/>
      <path id="Path_208" data-name="Path 208" d="M241.764,212.1a3.409,3.409,0,0,1-.321.353l-.161.16a6.347,6.347,0,0,1-.834.706l.193-.225a1.578,1.578,0,0,0,.449-1.251v-.417a4.5,4.5,0,0,0-.225-1.412c-.032-.321-.16-.513-.417-.545a.406.406,0,0,0-.192-.032.6.6,0,0,0-.546.256c0,.032,0,.032-.032.032-.417.417-.77.77-1.091,1.059a4.574,4.574,0,0,1-.866.674h.064a5.361,5.361,0,0,1-2.31.931h-.353c2.631-7.637,3.946-11.552,3.946-11.776a1.558,1.558,0,0,0-1.027-1.444,2.955,2.955,0,0,0-1.283-.257h-.032a3.989,3.989,0,0,1,.128-.513,1.558,1.558,0,0,0-1.027-1.444,1.254,1.254,0,0,0-.641-.161q-.386-.048-.674-.1a4.116,4.116,0,0,0-.545-.064h-.129a2.115,2.115,0,0,0-.353.064c-.77.257-1.187.578-1.316.931-.673,1.508-1.283,2.855-1.8,3.978-.514,1.155-.931,2.086-1.252,2.856-1.444,3.048-2.727,5.006-3.818,5.84.193-.674.449-1.316.706-2.054.224-.706.513-1.476.834-2.246,1.54-3.85,2.342-5.807,2.407-5.807a1.089,1.089,0,0,0-.482-.931,5,5,0,0,0-1.861-.8,1.072,1.072,0,0,0,.129-.481,1.088,1.088,0,0,0-.482-.931,3.656,3.656,0,0,0-2.31-.834h-.289c-.128.032-.256.032-.417.064h-.16a2.2,2.2,0,0,0-1.605,1.027,20.454,20.454,0,0,0-1.636,3.5c-.193.578-.449,1.187-.674,1.861a3.168,3.168,0,0,0-.16.514v.032a25.709,25.709,0,0,0-1.316,5.262v.032a17.98,17.98,0,0,0-.16,2.182c0,.289.032.546.032.77.032.225.032.449.064.674a3.814,3.814,0,0,0,.93,2.021,3.666,3.666,0,0,0,1.508,1.059,5.165,5.165,0,0,0,1.38,1.733,3.036,3.036,0,0,0,1.765.706h.353a1.5,1.5,0,0,0,.513-.064l-.256.289c-1.958,1.925-2.92,3.657-2.92,5.166a2.011,2.011,0,0,0,2.214,2.214c0,1.475.77,2.214,2.342,2.214a5.381,5.381,0,0,0,3.305-1.637,12.09,12.09,0,0,0,2.407-3.69,19.972,19.972,0,0,1,1.54-2.856c.224-.224.385-.417.577-.609.161-.193.353-.353.482-.514a5.18,5.18,0,0,1,1.379-.256,25.493,25.493,0,0,0,2.856-.257,8.212,8.212,0,0,0,4.557-2.407,1.157,1.157,0,0,0,.417-.8,1.566,1.566,0,0,0,.032-.385v-.321A5.327,5.327,0,0,1,241.764,212.1Zm-5.744,2.952c-.353.032-.77.1-1.219.128s-.995.064-1.573.064a4.237,4.237,0,0,0-1.6.353,8.514,8.514,0,0,0-1.187,1.22l-1.508,2.952a12.764,12.764,0,0,1-2.343,3.5,5.132,5.132,0,0,1-3.048,1.54c-1.251,0-1.893-.577-1.893-1.764a4.919,4.919,0,0,1,.674-2.247,10.3,10.3,0,0,1,1.8-2.31,11.581,11.581,0,0,1,2.342-1.893,1.417,1.417,0,0,0,.353-.545q.722-1.83,1.251-3.273c.353-.931.642-1.733.867-2.375.032-.032.064-.064.064-.1a.242.242,0,0,1,.032-.128c0-.1-.064-.129-.225-.129a.471.471,0,0,0-.385.289,10.535,10.535,0,0,1-1.091,1.444,17.5,17.5,0,0,1-1.54,1.444,6.575,6.575,0,0,1-4.492,1.829,1.849,1.849,0,0,1-.962-.289,3.592,3.592,0,0,1-.931-.674c-.1-.1-.193-.224-.289-.321-.128-.192-.289-.417-.417-.641a1.982,1.982,0,0,1-.353-1.059,4.8,4.8,0,0,1-.064-.674,4.983,4.983,0,0,1-.032-.706,24.52,24.52,0,0,1,1.636-7.893q.337-.915.674-1.733c.161-.449.321-.866.481-1.284a18.293,18.293,0,0,1,1.123-2.246,2.313,2.313,0,0,1,2.086-.9,3.484,3.484,0,0,1,2.054.77c.385.289.417.674.064,1.187a44.56,44.56,0,0,0-2.118,5.038,46.659,46.659,0,0,0-1.861,5.487c-.064,1.219.225,1.925.8,2.118a2.527,2.527,0,0,0,2.407-.578c1.123-.866,2.406-2.856,3.914-6,.674-1.508,1.284-2.824,1.8-3.979s.931-2.118,1.252-2.888a1.54,1.54,0,0,1,.93-.642,4.915,4.915,0,0,1,1.027,0c1.251.1,1.893.546,1.893,1.252,0,.192-1.572,4.909-4.717,14.118a2.705,2.705,0,0,1-.128.449c0,.064,0,.128.064.161.321-.033.578-.1.866-.129s.546-.064.835-.1h1.091c.385,0,.77-.032,1.123-.064a6.08,6.08,0,0,0,1.123-.321,9.3,9.3,0,0,0,1.347-.706,7.992,7.992,0,0,0,2.086-1.861c.128-.16.257-.128.353.128a3.7,3.7,0,0,1,.193,1.733,1.608,1.608,0,0,1-.289.963A8.352,8.352,0,0,1,236.02,215.052Zm-9.241-2.086.738-.738c.16-.192.321-.353.449-.513a2.413,2.413,0,0,1-.224.577c-.1.193-.161.257-.225.225A2.394,2.394,0,0,1,226.779,212.966Z" fill="#5e8f3f"/>
      <path id="Path_209" data-name="Path 209" d="M240.641,211.811a1.608,1.608,0,0,1-.289.963,8.352,8.352,0,0,1-4.332,2.278c-.353.032-.77.1-1.219.128s-.995.064-1.573.064a4.237,4.237,0,0,0-1.6.353,8.514,8.514,0,0,0-1.187,1.22l-1.508,2.952a12.764,12.764,0,0,1-2.343,3.5,5.132,5.132,0,0,1-3.048,1.54c-1.251,0-1.893-.577-1.893-1.764a4.919,4.919,0,0,1,.674-2.247,10.3,10.3,0,0,1,1.8-2.31,11.581,11.581,0,0,1,2.342-1.893,1.417,1.417,0,0,0,.353-.545q.722-1.83,1.251-3.273c.353-.931.642-1.733.867-2.375.032-.032.064-.064.064-.1a.242.242,0,0,1,.032-.128c0-.1-.064-.129-.225-.129a.471.471,0,0,0-.385.289,10.535,10.535,0,0,1-1.091,1.444,17.5,17.5,0,0,1-1.54,1.444,6.575,6.575,0,0,1-4.492,1.829,1.849,1.849,0,0,1-.962-.289,3.592,3.592,0,0,1-.931-.674c-.1-.1-.193-.224-.289-.321-.128-.192-.289-.417-.417-.641a1.982,1.982,0,0,1-.353-1.059,4.8,4.8,0,0,1-.064-.674,4.983,4.983,0,0,1-.032-.706,24.52,24.52,0,0,1,1.636-7.893q.337-.915.674-1.733c.161-.449.321-.866.481-1.284a18.293,18.293,0,0,1,1.123-2.246,2.313,2.313,0,0,1,2.086-.9,3.484,3.484,0,0,1,2.054.77c.385.289.417.674.064,1.187a44.56,44.56,0,0,0-2.118,5.038,46.659,46.659,0,0,0-1.861,5.487c-.064,1.219.225,1.925.8,2.118a2.527,2.527,0,0,0,2.407-.578c1.123-.866,2.406-2.856,3.914-6,.674-1.508,1.284-2.824,1.8-3.979s.931-2.118,1.252-2.888a1.54,1.54,0,0,1,.93-.642,4.915,4.915,0,0,1,1.027,0c1.251.1,1.893.546,1.893,1.252,0,.192-1.572,4.909-4.717,14.118a2.705,2.705,0,0,1-.128.449c0,.064,0,.128.064.161.321-.033.578-.1.866-.129s.546-.064.835-.1h1.091c.385,0,.77-.032,1.123-.064a6.08,6.08,0,0,0,1.123-.321,9.3,9.3,0,0,0,1.347-.706,7.992,7.992,0,0,0,2.086-1.861c.128-.16.257-.128.353.128A3.7,3.7,0,0,1,240.641,211.811Z" fill="#fff"/>
      <path id="Path_210" data-name="Path 210" d="M250.4,200.42a3.124,3.124,0,0,0-1.989.834,5.856,5.856,0,0,0-1.7,2.118,12.76,12.76,0,0,0-1.412,4.941c0,.642.161.963.449.963a.7.7,0,0,0,.45-.16,13.736,13.736,0,0,0,4.492-4.525,5.823,5.823,0,0,0,.995-2.7C251.679,200.9,251.229,200.42,250.4,200.42Zm-.1,3.979a12.428,12.428,0,0,1-1.059,1.54l.064-.192a6.735,6.735,0,0,1,1.091-1.508A.292.292,0,0,0,250.3,204.4Zm.1-3.979a3.124,3.124,0,0,0-1.989.834,5.856,5.856,0,0,0-1.7,2.118,12.76,12.76,0,0,0-1.412,4.941c0,.642.161.963.449.963a.7.7,0,0,0,.45-.16,13.736,13.736,0,0,0,4.492-4.525,5.823,5.823,0,0,0,.995-2.7C251.679,200.9,251.229,200.42,250.4,200.42Zm-.1,3.979a12.428,12.428,0,0,1-1.059,1.54l.064-.192a6.735,6.735,0,0,1,1.091-1.508A.292.292,0,0,0,250.3,204.4Zm.1-3.979a3.124,3.124,0,0,0-1.989.834,5.856,5.856,0,0,0-1.7,2.118,12.76,12.76,0,0,0-1.412,4.941c0,.642.161.963.449.963a.7.7,0,0,0,.45-.16,13.736,13.736,0,0,0,4.492-4.525,5.823,5.823,0,0,0,.995-2.7C251.679,200.9,251.229,200.42,250.4,200.42Zm-.1,3.979a12.428,12.428,0,0,1-1.059,1.54l.064-.192a6.735,6.735,0,0,1,1.091-1.508A.292.292,0,0,0,250.3,204.4Zm.1-3.979a3.124,3.124,0,0,0-1.989.834,5.856,5.856,0,0,0-1.7,2.118,12.76,12.76,0,0,0-1.412,4.941c0,.642.161.963.449.963a.7.7,0,0,0,.45-.16,13.736,13.736,0,0,0,4.492-4.525,5.823,5.823,0,0,0,.995-2.7C251.679,200.9,251.229,200.42,250.4,200.42Zm-.1,3.979a12.428,12.428,0,0,1-1.059,1.54l.064-.192a6.735,6.735,0,0,1,1.091-1.508A.292.292,0,0,0,250.3,204.4Zm10.139,7.733a1.321,1.321,0,0,1-.288.321,5.191,5.191,0,0,1-1.541,1.347c.161-.16.418-.385.738-.673a1.836,1.836,0,0,0,.45-1.284v-.417a4.5,4.5,0,0,0-.225-1.412c-.032-.321-.16-.513-.417-.545a.408.408,0,0,0-.193-.032.6.6,0,0,0-.545.256c0,.032,0,.032-.032.032a5.856,5.856,0,0,1-4.3,2.6c-.257.032-.545.065-.9.1h-1.22a8.736,8.736,0,0,0,.77-.77c.289-.289.578-.578.931-.9,1.957-2.118,3.08-3.914,3.3-5.39a9.551,9.551,0,0,0,.128-1.6,4.7,4.7,0,0,0-2.663-4.588,4.521,4.521,0,0,0-2.374-2.311,5.151,5.151,0,0,0-1.99-.353,8.214,8.214,0,0,0-4.62,1.38,9.572,9.572,0,0,0-3.3,3.658,15.3,15.3,0,0,0-1.765,6.77c0,.386.032.8.064,1.156a7.225,7.225,0,0,0,.642,2.278,4.747,4.747,0,0,0,.353.706,6.2,6.2,0,0,0,1.476,1.7,3.2,3.2,0,0,0,.353.289l.289.193a7.006,7.006,0,0,0,1.572,1.668c1.444,1.188,3.914,1.8,7.412,1.8,4.139,0,7.123-.963,9.016-2.856a1.126,1.126,0,0,0,.385-.8.8.8,0,0,0,.065-.385v-.321A5.743,5.743,0,0,1,260.438,212.132Zm-10.107,3.3c-3.113,0-5.423-.545-7.027-1.7a5.327,5.327,0,0,1-1.54-1.636,6.984,6.984,0,0,1-.963-3.787,14.143,14.143,0,0,1,1.765-6.545,9.094,9.094,0,0,1,3.112-3.5,7.941,7.941,0,0,1,4.4-1.315,3.909,3.909,0,0,1,1.8.321,4.169,4.169,0,0,1,2.567,4.267,8.714,8.714,0,0,1-.128,1.508c-.225,1.412-1.284,3.145-3.177,5.166a20.674,20.674,0,0,1-1.7,1.669c-.577.513-1.155,1.027-1.732,1.476l-.161.16c-.032.032-.032.1-.064.129,0,.064.161.224.514.417a8.426,8.426,0,0,0,4.075.8c.321,0,.641,0,.994-.032.321,0,.706-.032,1.091-.064a6.346,6.346,0,0,0,4.621-2.824c.16-.16.289-.128.353.128a3.315,3.315,0,0,1,.224,1.733,1.868,1.868,0,0,1-.288.963C257.23,214.538,254.31,215.437,250.331,215.437Zm.353-10.846a5.823,5.823,0,0,0,.995-2.7c0-.995-.45-1.476-1.284-1.476a3.124,3.124,0,0,0-1.989.834,5.856,5.856,0,0,0-1.7,2.118,12.76,12.76,0,0,0-1.412,4.941c0,.642.161.963.449.963a.7.7,0,0,0,.45-.16A13.736,13.736,0,0,0,250.684,204.591Zm-1.38,1.156a6.735,6.735,0,0,1,1.091-1.508.292.292,0,0,0-.1.16,12.428,12.428,0,0,1-1.059,1.54Zm1.091-5.327a3.124,3.124,0,0,0-1.989.834,5.856,5.856,0,0,0-1.7,2.118,12.76,12.76,0,0,0-1.412,4.941c0,.642.161.963.449.963a.7.7,0,0,0,.45-.16,13.736,13.736,0,0,0,4.492-4.525,5.823,5.823,0,0,0,.995-2.7C251.679,200.9,251.229,200.42,250.4,200.42Zm-.1,3.979a12.428,12.428,0,0,1-1.059,1.54l.064-.192a6.735,6.735,0,0,1,1.091-1.508A.292.292,0,0,0,250.3,204.4Zm.1-3.979a3.124,3.124,0,0,0-1.989.834,5.856,5.856,0,0,0-1.7,2.118,12.76,12.76,0,0,0-1.412,4.941c0,.642.161.963.449.963a.7.7,0,0,0,.45-.16,13.736,13.736,0,0,0,4.492-4.525,5.823,5.823,0,0,0,.995-2.7C251.679,200.9,251.229,200.42,250.4,200.42Zm-.1,3.979a12.428,12.428,0,0,1-1.059,1.54l.064-.192a6.735,6.735,0,0,1,1.091-1.508A.292.292,0,0,0,250.3,204.4Zm.1-3.979a3.124,3.124,0,0,0-1.989.834,5.856,5.856,0,0,0-1.7,2.118,12.76,12.76,0,0,0-1.412,4.941c0,.642.161.963.449.963a.7.7,0,0,0,.45-.16,13.736,13.736,0,0,0,4.492-4.525,5.823,5.823,0,0,0,.995-2.7C251.679,200.9,251.229,200.42,250.4,200.42Zm-.1,3.979a12.428,12.428,0,0,1-1.059,1.54l.064-.192a6.735,6.735,0,0,1,1.091-1.508A.292.292,0,0,0,250.3,204.4Zm.1-3.979a3.124,3.124,0,0,0-1.989.834,5.856,5.856,0,0,0-1.7,2.118,12.76,12.76,0,0,0-1.412,4.941c0,.642.161.963.449.963a.7.7,0,0,0,.45-.16,13.736,13.736,0,0,0,4.492-4.525,5.823,5.823,0,0,0,.995-2.7C251.679,200.9,251.229,200.42,250.4,200.42Zm-.1,3.979a12.428,12.428,0,0,1-1.059,1.54l.064-.192a6.735,6.735,0,0,1,1.091-1.508A.292.292,0,0,0,250.3,204.4Z" fill="#5e8f3f"/>
      <path id="Path_211" data-name="Path 211" d="M259.123,210.078c-.064-.256-.193-.288-.353-.128a6.346,6.346,0,0,1-4.621,2.824c-.385.032-.77.064-1.091.064-.353.032-.673.032-.994.032a8.426,8.426,0,0,1-4.075-.8c-.353-.193-.514-.353-.514-.417.032-.032.032-.1.064-.129l.161-.16c.577-.449,1.155-.963,1.732-1.476a20.674,20.674,0,0,0,1.7-1.669c1.893-2.021,2.952-3.754,3.177-5.166a8.714,8.714,0,0,0,.128-1.508,4.169,4.169,0,0,0-2.567-4.267,3.909,3.909,0,0,0-1.8-.321,7.941,7.941,0,0,0-4.4,1.315,9.094,9.094,0,0,0-3.112,3.5,14.143,14.143,0,0,0-1.765,6.545,6.984,6.984,0,0,0,.963,3.787,5.327,5.327,0,0,0,1.54,1.636c1.6,1.156,3.914,1.7,7.027,1.7,3.979,0,6.9-.9,8.728-2.663a1.868,1.868,0,0,0,.288-.963A3.315,3.315,0,0,0,259.123,210.078Zm-13.381-.8c-.288,0-.449-.321-.449-.963a12.76,12.76,0,0,1,1.412-4.941,5.856,5.856,0,0,1,1.7-2.118,3.124,3.124,0,0,1,1.989-.834c.834,0,1.284.481,1.284,1.476a5.823,5.823,0,0,1-.995,2.7,13.736,13.736,0,0,1-4.492,4.525A.7.7,0,0,1,245.742,209.276Z" fill="#fff"/>
      <path id="Path_212" data-name="Path 212" d="M269.07,200.42a3.193,3.193,0,0,0-1.99.834,5.778,5.778,0,0,0-1.668,2.118A12.743,12.743,0,0,0,264,208.313c0,.642.128.963.449.963a.574.574,0,0,0,.417-.16,13.539,13.539,0,0,0,4.525-4.525,5.716,5.716,0,0,0,.962-2.7C270.353,200.9,269.936,200.42,269.07,200.42Zm-.064,3.979a9.64,9.64,0,0,1-1.091,1.54l.1-.192a5.772,5.772,0,0,1,1.059-1.508A.207.207,0,0,0,269.006,204.4Zm.064-3.979a3.193,3.193,0,0,0-1.99.834,5.778,5.778,0,0,0-1.668,2.118A12.743,12.743,0,0,0,264,208.313c0,.642.128.963.449.963a.574.574,0,0,0,.417-.16,13.539,13.539,0,0,0,4.525-4.525,5.716,5.716,0,0,0,.962-2.7C270.353,200.9,269.936,200.42,269.07,200.42Zm-.064,3.979a9.64,9.64,0,0,1-1.091,1.54l.1-.192a5.772,5.772,0,0,1,1.059-1.508A.207.207,0,0,0,269.006,204.4Zm11.423,7.765.064.032c-.032-.385-.257-.545-.642-.545a.55.55,0,0,0-.513.256.032.032,0,0,1-.033.032,6.848,6.848,0,0,1-1.989,1.861c.161-.16.417-.385.706-.673a1.718,1.718,0,0,0,.481-1.284v-.417a3.466,3.466,0,0,0-.288-1.476l.064.064a.548.548,0,0,0-.61-.577.571.571,0,0,0-.545.256c0,.032,0,.032-.033.032a5.913,5.913,0,0,1-4.3,2.6c-.257.032-.578.065-.9.1h-1.219q.337-.338.77-.77l.9-.9c1.989-2.118,3.08-3.914,3.337-5.39a14.736,14.736,0,0,0,.128-1.6,4.7,4.7,0,0,0-2.663-4.588,4.765,4.765,0,0,0-2.375-2.311,5.259,5.259,0,0,0-1.989-.353,8.071,8.071,0,0,0-4.621,1.38,9.587,9.587,0,0,0-3.3,3.658,14.9,14.9,0,0,0-1.764,6.77c0,.386.032.8.064,1.156a7.624,7.624,0,0,0,.642,2.342v.032c.128.225.224.417.353.61a6.663,6.663,0,0,0,1.444,1.7,3.279,3.279,0,0,0,.352.289,2.921,2.921,0,0,0,.321.193,7.56,7.56,0,0,0,1.541,1.668c1.444,1.188,3.946,1.8,7.444,1.8,4.107,0,7.123-.963,9.016-2.856a1.5,1.5,0,0,0,.449-1.187v-.449A3.421,3.421,0,0,0,280.429,212.164Zm-11.391,3.273c-3.113,0-5.423-.545-7.027-1.7a5.743,5.743,0,0,1-1.573-1.6,7.108,7.108,0,0,1-.962-3.819,14.53,14.53,0,0,1,1.765-6.545,9.167,9.167,0,0,1,3.144-3.5,7.864,7.864,0,0,1,4.4-1.315,4.09,4.09,0,0,1,1.8.321,4.212,4.212,0,0,1,2.567,4.267,8.714,8.714,0,0,1-.128,1.508c-.225,1.412-1.316,3.145-3.177,5.166-.578.61-1.123,1.155-1.7,1.669s-1.155,1.027-1.765,1.476c-.064.064-.1.128-.128.16s-.064.1-.1.129c0,.064.192.224.545.417a8.347,8.347,0,0,0,4.075.8c.321,0,.642,0,1-.032.321,0,.674-.032,1.059-.064a6.4,6.4,0,0,0,4.653-2.824c.16-.16.256-.128.353.128a3.325,3.325,0,0,1,.224,1.733,1.556,1.556,0,0,1-.321.963C275.9,214.538,273.017,215.437,269.038,215.437Zm.353-10.846a5.716,5.716,0,0,0,.962-2.7c0-.995-.417-1.476-1.283-1.476a3.193,3.193,0,0,0-1.99.834,5.778,5.778,0,0,0-1.668,2.118A12.743,12.743,0,0,0,264,208.313c0,.642.128.963.449.963a.574.574,0,0,0,.417-.16A13.539,13.539,0,0,0,269.391,204.591Zm-1.38,1.156a5.772,5.772,0,0,1,1.059-1.508.207.207,0,0,0-.064.16,9.64,9.64,0,0,1-1.091,1.54Zm1.059-5.327a3.193,3.193,0,0,0-1.99.834,5.778,5.778,0,0,0-1.668,2.118A12.743,12.743,0,0,0,264,208.313c0,.642.128.963.449.963a.574.574,0,0,0,.417-.16,13.539,13.539,0,0,0,4.525-4.525,5.716,5.716,0,0,0,.962-2.7C270.353,200.9,269.936,200.42,269.07,200.42Zm-.064,3.979a9.64,9.64,0,0,1-1.091,1.54l.1-.192a5.772,5.772,0,0,1,1.059-1.508A.207.207,0,0,0,269.006,204.4Zm.064-3.979a3.193,3.193,0,0,0-1.99.834,5.778,5.778,0,0,0-1.668,2.118A12.743,12.743,0,0,0,264,208.313c0,.642.128.963.449.963a.574.574,0,0,0,.417-.16,13.539,13.539,0,0,0,4.525-4.525,5.716,5.716,0,0,0,.962-2.7C270.353,200.9,269.936,200.42,269.07,200.42Zm-.064,3.979a9.64,9.64,0,0,1-1.091,1.54l.1-.192a5.772,5.772,0,0,1,1.059-1.508A.207.207,0,0,0,269.006,204.4Z" fill="#5e8f3f"/>
      <path id="Path_213" data-name="Path 213" d="M277.83,210.078c-.1-.256-.193-.288-.353-.128a6.4,6.4,0,0,1-4.653,2.824c-.385.032-.738.064-1.059.064-.353.032-.674.032-1,.032a8.347,8.347,0,0,1-4.075-.8c-.353-.193-.545-.353-.545-.417.032-.032.064-.1.1-.129s.064-.1.128-.16c.61-.449,1.188-.963,1.765-1.476s1.123-1.059,1.7-1.669c1.861-2.021,2.952-3.754,3.177-5.166a8.714,8.714,0,0,0,.128-1.508,4.212,4.212,0,0,0-2.567-4.267,4.09,4.09,0,0,0-1.8-.321,7.864,7.864,0,0,0-4.4,1.315,9.167,9.167,0,0,0-3.144,3.5,14.53,14.53,0,0,0-1.765,6.545,7.108,7.108,0,0,0,.962,3.819,5.743,5.743,0,0,0,1.573,1.6c1.6,1.156,3.914,1.7,7.027,1.7,3.979,0,6.866-.9,8.7-2.663a1.556,1.556,0,0,0,.321-.963A3.325,3.325,0,0,0,277.83,210.078Zm-13.381-.8c-.321,0-.449-.321-.449-.963a12.743,12.743,0,0,1,1.412-4.941,5.778,5.778,0,0,1,1.668-2.118,3.193,3.193,0,0,1,1.99-.834c.866,0,1.283.481,1.283,1.476a5.716,5.716,0,0,1-.962,2.7,13.539,13.539,0,0,1-4.525,4.525A.574.574,0,0,1,264.449,209.276Z" fill="#fff"/>
    </g>
    <g id="Group_49" data-name="Group 49">
      <path id="Path_214" data-name="Path 214" d="M465.64,189.109a6.455,6.455,0,0,0-3.529,1.284,1.73,1.73,0,0,0-.674,1.155c-.546,2.31-.963,3.979-1.316,4.974a.624.624,0,0,0,.418.866,8.317,8.317,0,0,1,2.984,1.187.288.288,0,0,0,.16.032c.449,0,1.187-.545,2.278-1.668,1.669-1.8,2.5-3.434,2.5-4.877C468.464,190.1,467.534,189.109,465.64,189.109Zm0,7.509c-.962,1.027-1.636,1.54-1.957,1.54-.16-.1-.385-.225-.642-.385q.338-1.155.578-2.118t.481-1.829c.1-.449.257-.77.482-.866h-.065a6.048,6.048,0,0,1,3.337-1.187h.161v.289C468.015,193.409,467.245,194.917,465.64,196.618Zm-2.535,5.583c-.128-.449-.417-.642-.77-.545-.352.064-1.058.128-2.149.192q-1.3.048-1.348.289a42.455,42.455,0,0,1-3.337,8.182c-.289.481-.257.834.064,1.027a4.271,4.271,0,0,0,2.021.385c2.792,0,4.685-1.027,5.616-3.145a7.631,7.631,0,0,0,.77-3.112A10.647,10.647,0,0,0,463.105,202.2Zm-.288,6.225a4.7,4.7,0,0,1-3.915,2.791,57.815,57.815,0,0,0,2.535-6.642c.321-.032.642-.064.962-.064s.674-.032,1-.064a8.846,8.846,0,0,1,.129,1.027A7.475,7.475,0,0,1,462.817,208.426Zm-7.252-11.551a.64.64,0,0,0-.353.224,25.357,25.357,0,0,0-2.342,2.792,37.728,37.728,0,0,0-2.471,3.979c-1.925,3.337-2.952,5.871-3.08,7.636-.065,1.059.192,1.573.866,1.573,1.027,0,2.5-2.311,4.46-6.963a49.464,49.464,0,0,0,3.048-8.7C455.79,197.067,455.725,196.875,455.565,196.875Zm10.075-7.766a6.455,6.455,0,0,0-3.529,1.284,1.73,1.73,0,0,0-.674,1.155c-.546,2.31-.963,3.979-1.316,4.974a.624.624,0,0,0,.418.866,8.317,8.317,0,0,1,2.984,1.187.288.288,0,0,0,.16.032c.449,0,1.187-.545,2.278-1.668,1.669-1.8,2.5-3.434,2.5-4.877C468.464,190.1,467.534,189.109,465.64,189.109Zm0,7.509c-.962,1.027-1.636,1.54-1.957,1.54-.16-.1-.385-.225-.642-.385q.338-1.155.578-2.118t.481-1.829c.1-.449.257-.77.482-.866h-.065a6.048,6.048,0,0,1,3.337-1.187h.161v.289C468.015,193.409,467.245,194.917,465.64,196.618Zm-3.305,5.038c-.352.064-1.058.128-2.149.192q-1.3.048-1.348.289a42.455,42.455,0,0,1-3.337,8.182c-.289.481-.257.834.064,1.027a4.271,4.271,0,0,0,2.021.385c2.792,0,4.685-1.027,5.616-3.145a7.631,7.631,0,0,0,.77-3.112,10.647,10.647,0,0,0-.867-3.273C462.977,201.752,462.688,201.559,462.335,201.656Zm1.188,3.818a7.475,7.475,0,0,1-.706,2.952,4.7,4.7,0,0,1-3.915,2.791,57.815,57.815,0,0,0,2.535-6.642c.321-.032.642-.064.962-.064s.674-.032,1-.064A8.846,8.846,0,0,1,463.523,205.474Zm-7.958-8.6a.64.64,0,0,0-.353.224,25.357,25.357,0,0,0-2.342,2.792,37.728,37.728,0,0,0-2.471,3.979c-1.925,3.337-2.952,5.871-3.08,7.636-.065,1.059.192,1.573.866,1.573,1.027,0,2.5-2.311,4.46-6.963a49.464,49.464,0,0,0,3.048-8.7C455.79,197.067,455.725,196.875,455.565,196.875Zm17.1-8.568a5.31,5.31,0,0,0-4.363-2.888c-.1,0-.321-.032-.642-.032a8.416,8.416,0,0,0-2.92.578c-.449.192-.866.321-1.219.481-.321.129-.61.225-.835.321h-.064c.064,0,.1-.064.1-.225q0-.962-1.155-.962a5.726,5.726,0,0,0-2.342.513c-1.059.514-1.637,1.091-1.765,1.765a1.736,1.736,0,0,0-.032.353.47.47,0,0,1-.064.225c-.161,1.476-.449,2.342-.834,2.6a35.724,35.724,0,0,0-5.134,5.454q-7.895,9.579-7.894,16.14a4.63,4.63,0,0,0,2.246,4.3c.064.032.1.064.161.1a.455.455,0,0,1,.192.064,4.136,4.136,0,0,0,1.54,1.861,4,4,0,0,0,2.311.706,6.241,6.241,0,0,0,3.337-1.155l-.032.064a5.7,5.7,0,0,0,1.861-1.6.418.418,0,0,1,.385-.224,1.734,1.734,0,0,1,.642.128,15.234,15.234,0,0,0,5.422,1.251h.449a10.175,10.175,0,0,0,4.717-1.412A7.492,7.492,0,0,0,471,209.613a10.252,10.252,0,0,0-2.214-6.417h-.032l-.032-.065.064-.064c.032,0,.064,0,.064-.032a26.779,26.779,0,0,0,2.6-1.636,12.407,12.407,0,0,0,1.7-1.38,7.722,7.722,0,0,0,2.438-5.9C475.587,191.227,474.625,189.27,472.667,188.307Zm-2.021,9.209a26.351,26.351,0,0,1-4.171,2.92c-.385.193-.482.45-.321.738a10.078,10.078,0,0,1,2.182,6.225,9.453,9.453,0,0,1-.482,2.792,6.727,6.727,0,0,1-3.241,3.754,11.43,11.43,0,0,1-4.845,1.508,13.709,13.709,0,0,1-5.679-1.155,1.6,1.6,0,0,0-.866-.064,2.289,2.289,0,0,0-.8.385,4.729,4.729,0,0,0-.8.641,5.166,5.166,0,0,1-.8.674,5.909,5.909,0,0,1-3.08,1.059,3.565,3.565,0,0,1-1.765-.481,4.151,4.151,0,0,1-2.086-3.883q0-6.4,7.862-15.883a41.064,41.064,0,0,1,5.037-5.326,2.358,2.358,0,0,0,.9-1.6c.032-.321.064-.641.1-.93s.064-.578.128-.9c.1-.609.578-1.123,1.508-1.476a5.233,5.233,0,0,1,2.15-.513c.482,0,.706.193.706.545,0,.514.193.738.578.61.481-.16.866-.321,1.219-.449s.642-.257.866-.353a8.349,8.349,0,0,1,3.305-.481c3.145.385,4.685,2.406,4.685,6.032A7.47,7.47,0,0,1,470.646,197.516Zm-5.006-8.407a6.455,6.455,0,0,0-3.529,1.284,1.73,1.73,0,0,0-.674,1.155c-.546,2.31-.963,3.979-1.316,4.974a.624.624,0,0,0,.418.866,8.317,8.317,0,0,1,2.984,1.187.288.288,0,0,0,.16.032c.449,0,1.187-.545,2.278-1.668,1.669-1.8,2.5-3.434,2.5-4.877C468.464,190.1,467.534,189.109,465.64,189.109Zm2.375,2.664v.289c0,1.347-.77,2.855-2.375,4.556-.962,1.027-1.636,1.54-1.957,1.54-.16-.1-.385-.225-.642-.385q.338-1.155.578-2.118t.481-1.829c.1-.449.257-.77.482-.866h-.065a6.048,6.048,0,0,1,3.337-1.187Zm-5.68,9.883c-.352.064-1.058.128-2.149.192q-1.3.048-1.348.289a42.455,42.455,0,0,1-3.337,8.182c-.289.481-.257.834.064,1.027a4.271,4.271,0,0,0,2.021.385c2.792,0,4.685-1.027,5.616-3.145a7.631,7.631,0,0,0,.77-3.112,10.647,10.647,0,0,0-.867-3.273C462.977,201.752,462.688,201.559,462.335,201.656Zm1.188,3.818a7.475,7.475,0,0,1-.706,2.952,4.7,4.7,0,0,1-3.915,2.791,57.815,57.815,0,0,0,2.535-6.642c.321-.032.642-.064.962-.064s.674-.032,1-.064A8.846,8.846,0,0,1,463.523,205.474Zm-7.958-8.6a.64.64,0,0,0-.353.224,25.357,25.357,0,0,0-2.342,2.792,37.728,37.728,0,0,0-2.471,3.979c-1.925,3.337-2.952,5.871-3.08,7.636-.065,1.059.192,1.573.866,1.573,1.027,0,2.5-2.311,4.46-6.963a49.464,49.464,0,0,0,3.048-8.7C455.79,197.067,455.725,196.875,455.565,196.875Z" fill="#5e8f3f"/>
      <path id="Path_215" data-name="Path 215" d="M470.646,197.516a7.47,7.47,0,0,0,2.278-5.615c0-3.626-1.54-5.647-4.685-6.032a8.349,8.349,0,0,0-3.305.481c-.224.1-.513.225-.866.353s-.738.289-1.219.449c-.385.128-.578-.1-.578-.61,0-.352-.224-.545-.706-.545a5.233,5.233,0,0,0-2.15.513c-.93.353-1.411.867-1.508,1.476-.064.321-.1.61-.128.9s-.064.609-.1.93a2.358,2.358,0,0,1-.9,1.6,41.064,41.064,0,0,0-5.037,5.326q-7.847,9.481-7.862,15.883a4.151,4.151,0,0,0,2.086,3.883,3.565,3.565,0,0,0,1.765.481,5.909,5.909,0,0,0,3.08-1.059,5.166,5.166,0,0,0,.8-.674,4.729,4.729,0,0,1,.8-.641,2.289,2.289,0,0,1,.8-.385,1.6,1.6,0,0,1,.866.064,13.709,13.709,0,0,0,5.679,1.155,11.43,11.43,0,0,0,4.845-1.508,6.727,6.727,0,0,0,3.241-3.754,9.453,9.453,0,0,0,.482-2.792,10.078,10.078,0,0,0-2.182-6.225c-.161-.288-.064-.545.321-.738A26.351,26.351,0,0,0,470.646,197.516Zm-18,8.6c-1.957,4.652-3.433,6.963-4.46,6.963-.674,0-.931-.514-.866-1.573.128-1.765,1.155-4.3,3.08-7.636a37.728,37.728,0,0,1,2.471-3.979,25.357,25.357,0,0,1,2.342-2.792.64.64,0,0,1,.353-.224c.16,0,.225.192.128.545A49.464,49.464,0,0,1,452.645,206.116Zm10.557,2.47c-.931,2.118-2.824,3.145-5.616,3.145a4.271,4.271,0,0,1-2.021-.385c-.321-.193-.353-.546-.064-1.027a42.455,42.455,0,0,0,3.337-8.182q.048-.241,1.348-.289c1.091-.064,1.8-.128,2.149-.192.353-.1.642.1.77.545a10.647,10.647,0,0,1,.867,3.273A7.631,7.631,0,0,1,463.2,208.586Zm2.759-11.647c-1.091,1.123-1.829,1.668-2.278,1.668a.288.288,0,0,1-.16-.032,8.317,8.317,0,0,0-2.984-1.187.624.624,0,0,1-.418-.866c.353-1,.77-2.664,1.316-4.974a1.73,1.73,0,0,1,.674-1.155,6.455,6.455,0,0,1,3.529-1.284c1.894,0,2.824,1,2.824,2.953C468.464,193.505,467.63,195.142,465.961,196.939Z" fill="#fff"/>
      <path id="Path_216" data-name="Path 216" d="M481.331,200.661a3.183,3.183,0,0,0-1.989.834,5.771,5.771,0,0,0-1.669,2.118,12.2,12.2,0,0,0-1.412,4.941c0,.642.129.963.449.963a.575.575,0,0,0,.418-.161,13.534,13.534,0,0,0,4.524-4.524,5.708,5.708,0,0,0,.963-2.7C482.615,201.142,482.2,200.661,481.331,200.661Zm-.064,3.979a12.3,12.3,0,0,1-1.091,1.54l.1-.193a5.788,5.788,0,0,1,1.059-1.508A.209.209,0,0,0,481.267,204.64Zm.064-3.979a3.183,3.183,0,0,0-1.989.834,5.771,5.771,0,0,0-1.669,2.118,12.2,12.2,0,0,0-1.412,4.941c0,.642.129.963.449.963a.575.575,0,0,0,.418-.161,13.534,13.534,0,0,0,4.524-4.524,5.708,5.708,0,0,0,.963-2.7C482.615,201.142,482.2,200.661,481.331,200.661Zm-.064,3.979a12.3,12.3,0,0,1-1.091,1.54l.1-.193a5.788,5.788,0,0,1,1.059-1.508A.209.209,0,0,0,481.267,204.64Zm.064-3.979a3.183,3.183,0,0,0-1.989.834,5.771,5.771,0,0,0-1.669,2.118,12.2,12.2,0,0,0-1.412,4.941c0,.642.129.963.449.963a.575.575,0,0,0,.418-.161,13.534,13.534,0,0,0,4.524-4.524,5.708,5.708,0,0,0,.963-2.7C482.615,201.142,482.2,200.661,481.331,200.661Zm-.064,3.979a12.3,12.3,0,0,1-1.091,1.54l.1-.193a5.788,5.788,0,0,1,1.059-1.508A.209.209,0,0,0,481.267,204.64Zm.064-3.979a3.183,3.183,0,0,0-1.989.834,5.771,5.771,0,0,0-1.669,2.118,12.2,12.2,0,0,0-1.412,4.941c0,.642.129.963.449.963a.575.575,0,0,0,.418-.161,13.534,13.534,0,0,0,4.524-4.524,5.708,5.708,0,0,0,.963-2.7C482.615,201.142,482.2,200.661,481.331,200.661Zm-.064,3.979a12.3,12.3,0,0,1-1.091,1.54l.1-.193a5.788,5.788,0,0,1,1.059-1.508A.209.209,0,0,0,481.267,204.64Zm9.786,10.909a.778.778,0,0,1-.609-.9c.032-.161.128-.706.353-1.6a1.782,1.782,0,0,1-.546.45,3.757,3.757,0,0,1-.706.545c.193-.16.45-.385.738-.674a1.718,1.718,0,0,0,.482-1.283v-.417a.687.687,0,0,0-.033-.257v-.032a2.812,2.812,0,0,0-.256-1.187l.064.064a.564.564,0,0,0-.61-.578.57.57,0,0,0-.545.257c0,.032,0,.032-.032.032a5.916,5.916,0,0,1-4.3,2.6c-.257.032-.578.064-.9.1h-1.22l1.669-1.668c1.989-2.118,3.08-3.915,3.337-5.391a14.7,14.7,0,0,0,.128-1.6,4.7,4.7,0,0,0-2.663-4.589,4.765,4.765,0,0,0-2.374-2.31,5.269,5.269,0,0,0-1.99-.353,8.06,8.06,0,0,0-4.62,1.38,9.564,9.564,0,0,0-3.3,3.658,14.883,14.883,0,0,0-1.765,6.77,7.254,7.254,0,0,0,2.5,5.84,3.59,3.59,0,0,0,.674.481,7.539,7.539,0,0,0,1.54,1.669c1.444,1.187,3.914,1.8,7.444,1.8q5.439,0,8.278-2.214a2.981,2.981,0,0,0,.578-.514A2.622,2.622,0,0,1,491.053,215.549Zm-9.754.129c-6.385,0-9.562-2.375-9.562-7.124a14.55,14.55,0,0,1,1.765-6.546,9.356,9.356,0,0,1,3.112-3.5,8.046,8.046,0,0,1,4.428-1.316,4.1,4.1,0,0,1,1.8.321,4.212,4.212,0,0,1,2.567,4.268,8.725,8.725,0,0,1-.128,1.508c-.257,1.412-1.316,3.145-3.177,5.166-.578.61-1.123,1.155-1.7,1.668s-1.156,1.027-1.765,1.476c-.064.065-.1.129-.129.161s-.064.1-.1.128c0,.064.193.225.546.418a8.342,8.342,0,0,0,4.075.8c.32,0,.641,0,.994-.032.321,0,.674-.033,1.059-.065a6.4,6.4,0,0,0,4.653-2.823c.16-.161.257-.129.353.128a3.676,3.676,0,0,1,.224,1.733,1.557,1.557,0,0,1-.32.962C488.166,214.779,485.278,215.678,481.3,215.678Zm.353-10.846a5.708,5.708,0,0,0,.963-2.7c0-.995-.418-1.476-1.284-1.476a3.183,3.183,0,0,0-1.989.834,5.771,5.771,0,0,0-1.669,2.118,12.2,12.2,0,0,0-1.412,4.941c0,.642.129.963.449.963a.575.575,0,0,0,.418-.161A13.534,13.534,0,0,0,481.652,204.832Zm-1.38,1.155a5.788,5.788,0,0,1,1.059-1.508.209.209,0,0,0-.064.161,12.3,12.3,0,0,1-1.091,1.54Zm1.059-5.326a3.183,3.183,0,0,0-1.989.834,5.771,5.771,0,0,0-1.669,2.118,12.2,12.2,0,0,0-1.412,4.941c0,.642.129.963.449.963a.575.575,0,0,0,.418-.161,13.534,13.534,0,0,0,4.524-4.524,5.708,5.708,0,0,0,.963-2.7C482.615,201.142,482.2,200.661,481.331,200.661Zm-.064,3.979a12.3,12.3,0,0,1-1.091,1.54l.1-.193a5.788,5.788,0,0,1,1.059-1.508A.209.209,0,0,0,481.267,204.64Zm.064-3.979a3.183,3.183,0,0,0-1.989.834,5.771,5.771,0,0,0-1.669,2.118,12.2,12.2,0,0,0-1.412,4.941c0,.642.129.963.449.963a.575.575,0,0,0,.418-.161,13.534,13.534,0,0,0,4.524-4.524,5.708,5.708,0,0,0,.963-2.7C482.615,201.142,482.2,200.661,481.331,200.661Zm-.064,3.979a12.3,12.3,0,0,1-1.091,1.54l.1-.193a5.788,5.788,0,0,1,1.059-1.508A.209.209,0,0,0,481.267,204.64Z" fill="#5e8f3f"/>
      <path id="Path_217" data-name="Path 217" d="M490.091,210.319c-.1-.257-.193-.289-.353-.128a6.4,6.4,0,0,1-4.653,2.823c-.385.032-.738.065-1.059.065-.353.032-.674.032-.994.032a8.342,8.342,0,0,1-4.075-.8c-.353-.193-.546-.354-.546-.418.032-.032.064-.1.1-.128s.065-.1.129-.161c.609-.449,1.187-.962,1.765-1.476s1.122-1.058,1.7-1.668c1.861-2.021,2.92-3.754,3.177-5.166a8.725,8.725,0,0,0,.128-1.508,4.212,4.212,0,0,0-2.567-4.268,4.1,4.1,0,0,0-1.8-.321,8.046,8.046,0,0,0-4.428,1.316,9.356,9.356,0,0,0-3.112,3.5,14.55,14.55,0,0,0-1.765,6.546c0,4.749,3.177,7.124,9.562,7.124,3.979,0,6.867-.9,8.7-2.664a1.557,1.557,0,0,0,.32-.962A3.676,3.676,0,0,0,490.091,210.319Zm-13.381-.8c-.32,0-.449-.321-.449-.963a12.2,12.2,0,0,1,1.412-4.941,5.771,5.771,0,0,1,1.669-2.118,3.183,3.183,0,0,1,1.989-.834c.866,0,1.284.481,1.284,1.476a5.708,5.708,0,0,1-.963,2.7,13.534,13.534,0,0,1-4.524,4.524A.575.575,0,0,1,476.71,209.517Z" fill="#fff"/>
      <path id="Path_218" data-name="Path 218" d="M514.894,212.34a3.112,3.112,0,0,1-.321.354,5.491,5.491,0,0,1-1.187,1.026l.385-.385a1.581,1.581,0,0,0,.449-1.251v-.417a3.734,3.734,0,0,0-.224-1.412c-.032-.321-.161-.514-.418-.546a.406.406,0,0,0-.192-.032.65.65,0,0,0-.578.353v-.064a7.506,7.506,0,0,1-2.246,1.925,5.356,5.356,0,0,1-1.957.738h-.225c0-.032.033-.064.065-.1l1.187-3.209c.513-1.347.9-2.406,1.155-3.24.289-.835.481-1.444.61-1.862a7.24,7.24,0,0,0,.321-2.117,3.038,3.038,0,0,0-1.99-2.888.611.611,0,0,1-.321-.128,3.064,3.064,0,0,0-1.893-2.054,3.163,3.163,0,0,0-1.508-.321,7.231,7.231,0,0,0-4.588,2.086,2.86,2.86,0,0,0-1.765-.417h-.193c0-.1,0-.129.032-.161.032-.16.064-.289.1-.417v-.257c0-.9-.706-1.379-2.15-1.379h-.546a2.476,2.476,0,0,0-1.187.192A2.079,2.079,0,0,0,494.2,197.8q-.24.626-.77,2.7c-.385,1.412-.834,3.273-1.444,5.68q-.77,3.225-1.252,5.2v.032c-.064.257-.1.513-.16.738-.1.481-.192.866-.289,1.219a.2.2,0,0,1-.032.129,8.55,8.55,0,0,0-.192,1.123v.16q0,1.3,1.732,1.348h.1a1.332,1.332,0,0,0,.449-.064,2.724,2.724,0,0,0-.128.705v.193c0,.9.641,1.38,1.893,1.38,1.668,0,2.631-.642,2.92-1.925a36.567,36.567,0,0,1,2.31-4.91q.434-.817.866-1.54c.257-.449.546-.9.77-1.315a12.619,12.619,0,0,0-.77,3.4,3.448,3.448,0,0,0,2.343,3.241,3.87,3.87,0,0,0,2.535,2.342,9.6,9.6,0,0,0,3.4.513,21.257,21.257,0,0,0,2.952-.256,8.212,8.212,0,0,0,4.556-2.407,1.045,1.045,0,0,0,.417-.8,1.568,1.568,0,0,0,.032-.385v-.321A5.343,5.343,0,0,1,514.894,212.34Zm-14.407-8.15a.737.737,0,0,0,.1-.288c.032-.032.032-.1.064-.161a6.559,6.559,0,0,1,.9-.962,3.951,3.951,0,0,1,.866-.674A25.545,25.545,0,0,0,500.487,204.19Zm5.679,11.295a10,10,0,0,1-3.112-.417,3.1,3.1,0,0,1-2.407-3.016,15.293,15.293,0,0,1,1.059-4.3,35.835,35.835,0,0,1,1.733-4.236,4.2,4.2,0,0,0,.545-1.6.524.524,0,0,0-.417-.545c-.609-.225-1.54.289-2.727,1.54a30.168,30.168,0,0,0-4.107,6.193,28.577,28.577,0,0,0-2.343,5.037,1.884,1.884,0,0,1-.706,1.059,2.994,2.994,0,0,1-1.315.417,2.622,2.622,0,0,1-1.316-.064.778.778,0,0,1-.609-.9c.032-.161.128-.706.353-1.6.32-1.379.866-3.658,1.636-6.8,1.22-4.973,1.925-7.733,2.118-8.246a2.151,2.151,0,0,1,1.283-1.252,5,5,0,0,1,1.6-.128c1.123.064,1.7.385,1.7.93a34.122,34.122,0,0,1-1.54,5.166c-.128.353-.128.546.064.546a.461.461,0,0,0,.418-.321c3.08-3.85,5.711-5.776,7.925-5.776a3.016,3.016,0,0,1,1.315.257,2.553,2.553,0,0,1,1.733,2.471q0,1.636-2.021,7.027c-.963,2.6-1.444,3.914-1.476,3.947a2.714,2.714,0,0,0-.129.737c0,.963,1.059,1.477,3.177,1.477a5.366,5.366,0,0,0,2.182-.8,8.164,8.164,0,0,0,2.439-2.085c.128-.161.256-.129.352.128a3.7,3.7,0,0,1,.193,1.733,1.587,1.587,0,0,1-.289.962C511.749,214.683,509.343,215.485,506.166,215.485Z" fill="#5e8f3f"/>
      <path id="Path_219" data-name="Path 219" d="M513.771,212.052a1.587,1.587,0,0,1-.289.962c-1.733,1.669-4.139,2.471-7.316,2.471a10,10,0,0,1-3.112-.417,3.1,3.1,0,0,1-2.407-3.016,15.293,15.293,0,0,1,1.059-4.3,35.835,35.835,0,0,1,1.733-4.236,4.2,4.2,0,0,0,.545-1.6.524.524,0,0,0-.417-.545c-.609-.225-1.54.289-2.727,1.54a30.168,30.168,0,0,0-4.107,6.193,28.577,28.577,0,0,0-2.343,5.037,1.884,1.884,0,0,1-.706,1.059,2.994,2.994,0,0,1-1.315.417,2.622,2.622,0,0,1-1.316-.064.778.778,0,0,1-.609-.9c.032-.161.128-.706.353-1.6.32-1.379.866-3.658,1.636-6.8,1.22-4.973,1.925-7.733,2.118-8.246a2.151,2.151,0,0,1,1.283-1.252,5,5,0,0,1,1.6-.128c1.123.064,1.7.385,1.7.93a34.122,34.122,0,0,1-1.54,5.166c-.128.353-.128.546.064.546a.461.461,0,0,0,.418-.321c3.08-3.85,5.711-5.776,7.925-5.776a3.016,3.016,0,0,1,1.315.257,2.553,2.553,0,0,1,1.733,2.471q0,1.636-2.021,7.027c-.963,2.6-1.444,3.914-1.476,3.947a2.714,2.714,0,0,0-.129.737c0,.963,1.059,1.477,3.177,1.477a5.366,5.366,0,0,0,2.182-.8,8.164,8.164,0,0,0,2.439-2.085c.128-.161.256-.129.352.128A3.7,3.7,0,0,1,513.771,212.052Z" fill="#fff"/>
      <path id="Path_220" data-name="Path 220" d="M523.526,200.661a3.121,3.121,0,0,0-1.99.834,5.845,5.845,0,0,0-1.7,2.118,12.739,12.739,0,0,0-1.412,4.941c0,.642.16.963.449.963a.7.7,0,0,0,.449-.161,13.725,13.725,0,0,0,4.492-4.524,5.823,5.823,0,0,0,.995-2.7C524.809,201.142,524.36,200.661,523.526,200.661Zm-.1,3.979a12.507,12.507,0,0,1-1.059,1.54l.065-.193a6.724,6.724,0,0,1,1.091-1.508A.291.291,0,0,0,523.429,204.64Zm.1-3.979a3.121,3.121,0,0,0-1.99.834,5.845,5.845,0,0,0-1.7,2.118,12.739,12.739,0,0,0-1.412,4.941c0,.642.16.963.449.963a.7.7,0,0,0,.449-.161,13.725,13.725,0,0,0,4.492-4.524,5.823,5.823,0,0,0,.995-2.7C524.809,201.142,524.36,200.661,523.526,200.661Zm-.1,3.979a12.507,12.507,0,0,1-1.059,1.54l.065-.193a6.724,6.724,0,0,1,1.091-1.508A.291.291,0,0,0,523.429,204.64Zm.1-3.979a3.121,3.121,0,0,0-1.99.834,5.845,5.845,0,0,0-1.7,2.118,12.739,12.739,0,0,0-1.412,4.941c0,.642.16.963.449.963a.7.7,0,0,0,.449-.161,13.725,13.725,0,0,0,4.492-4.524,5.823,5.823,0,0,0,.995-2.7C524.809,201.142,524.36,200.661,523.526,200.661Zm-.1,3.979a12.507,12.507,0,0,1-1.059,1.54l.065-.193a6.724,6.724,0,0,1,1.091-1.508A.291.291,0,0,0,523.429,204.64Zm.1-3.979a3.121,3.121,0,0,0-1.99.834,5.845,5.845,0,0,0-1.7,2.118,12.739,12.739,0,0,0-1.412,4.941c0,.642.16.963.449.963a.7.7,0,0,0,.449-.161,13.725,13.725,0,0,0,4.492-4.524,5.823,5.823,0,0,0,.995-2.7C524.809,201.142,524.36,200.661,523.526,200.661Zm-.1,3.979a12.507,12.507,0,0,1-1.059,1.54l.065-.193a6.724,6.724,0,0,1,1.091-1.508A.291.291,0,0,0,523.429,204.64Zm9.049,8.727a1.834,1.834,0,0,0,.449-1.283v-.417a2.609,2.609,0,0,0-.032-.514v-.032a3.4,3.4,0,0,0-.193-.866.548.548,0,0,0-.609-.578.6.6,0,0,0-.546.257c0,.032,0,.032-.032.032a5.859,5.859,0,0,1-4.3,2.6c-.257.032-.546.064-.9.1H525.1a8.6,8.6,0,0,0,.77-.77c.289-.289.577-.577.93-.9,1.958-2.118,3.081-3.915,3.305-5.391a9.436,9.436,0,0,0,.129-1.6,4.7,4.7,0,0,0-2.663-4.589,4.528,4.528,0,0,0-2.375-2.31,5.142,5.142,0,0,0-1.989-.353,8.21,8.21,0,0,0-4.621,1.38,9.564,9.564,0,0,0-3.3,3.658,15.314,15.314,0,0,0-1.765,6.77c0,.385.032.8.064,1.155a7.25,7.25,0,0,0,.642,2.279,5.007,5.007,0,0,0,.353.706,6.216,6.216,0,0,0,1.476,1.7,3.42,3.42,0,0,0,.353.289l.289.192a6.991,6.991,0,0,0,1.572,1.669c1.444,1.187,3.915,1.8,7.412,1.8a17.462,17.462,0,0,0,5.712-.834l.481-.193c.128-.738.321-1.572.514-2.439l.449-1.668a2,2,0,0,1-.61.449,1.676,1.676,0,0,1-.481.385,3.923,3.923,0,0,1,.513-.449A1.492,1.492,0,0,1,532.478,213.367Zm-.289-.353c-1.829,1.765-4.749,2.664-8.728,2.664-3.112,0-5.422-.546-7.027-1.7a5.343,5.343,0,0,1-1.54-1.637,6.981,6.981,0,0,1-.962-3.786,14.148,14.148,0,0,1,1.764-6.546,9.086,9.086,0,0,1,3.113-3.5,7.937,7.937,0,0,1,4.4-1.316,3.918,3.918,0,0,1,1.8.321,4.171,4.171,0,0,1,2.568,4.268,8.634,8.634,0,0,1-.129,1.508c-.224,1.412-1.283,3.145-3.176,5.166a20.646,20.646,0,0,1-1.7,1.668c-.578.514-1.155,1.027-1.733,1.476l-.16.161c-.032.032-.032.1-.064.128,0,.064.16.225.513.418a8.428,8.428,0,0,0,4.075.8c.321,0,.642,0,1-.032.321,0,.706-.033,1.091-.065a6.341,6.341,0,0,0,4.62-2.823c.161-.161.289-.129.353.128a3.313,3.313,0,0,1,.225,1.733A1.858,1.858,0,0,1,532.189,213.014Zm-8.375-8.182a5.823,5.823,0,0,0,.995-2.7c0-.995-.449-1.476-1.283-1.476a3.121,3.121,0,0,0-1.99.834,5.845,5.845,0,0,0-1.7,2.118,12.739,12.739,0,0,0-1.412,4.941c0,.642.16.963.449.963a.7.7,0,0,0,.449-.161A13.725,13.725,0,0,0,523.814,204.832Zm-1.379,1.155a6.724,6.724,0,0,1,1.091-1.508.291.291,0,0,0-.1.161,12.507,12.507,0,0,1-1.059,1.54Zm1.091-5.326a3.121,3.121,0,0,0-1.99.834,5.845,5.845,0,0,0-1.7,2.118,12.739,12.739,0,0,0-1.412,4.941c0,.642.16.963.449.963a.7.7,0,0,0,.449-.161,13.725,13.725,0,0,0,4.492-4.524,5.823,5.823,0,0,0,.995-2.7C524.809,201.142,524.36,200.661,523.526,200.661Zm-.1,3.979a12.507,12.507,0,0,1-1.059,1.54l.065-.193a6.724,6.724,0,0,1,1.091-1.508A.291.291,0,0,0,523.429,204.64Zm.1-3.979a3.121,3.121,0,0,0-1.99.834,5.845,5.845,0,0,0-1.7,2.118,12.739,12.739,0,0,0-1.412,4.941c0,.642.16.963.449.963a.7.7,0,0,0,.449-.161,13.725,13.725,0,0,0,4.492-4.524,5.823,5.823,0,0,0,.995-2.7C524.809,201.142,524.36,200.661,523.526,200.661Zm-.1,3.979a12.507,12.507,0,0,1-1.059,1.54l.065-.193a6.724,6.724,0,0,1,1.091-1.508A.291.291,0,0,0,523.429,204.64Zm.1-3.979a3.121,3.121,0,0,0-1.99.834,5.845,5.845,0,0,0-1.7,2.118,12.739,12.739,0,0,0-1.412,4.941c0,.642.16.963.449.963a.7.7,0,0,0,.449-.161,13.725,13.725,0,0,0,4.492-4.524,5.823,5.823,0,0,0,.995-2.7C524.809,201.142,524.36,200.661,523.526,200.661Zm-.1,3.979a12.507,12.507,0,0,1-1.059,1.54l.065-.193a6.724,6.724,0,0,1,1.091-1.508A.291.291,0,0,0,523.429,204.64Zm.1-3.979a3.121,3.121,0,0,0-1.99.834,5.845,5.845,0,0,0-1.7,2.118,12.739,12.739,0,0,0-1.412,4.941c0,.642.16.963.449.963a.7.7,0,0,0,.449-.161,13.725,13.725,0,0,0,4.492-4.524,5.823,5.823,0,0,0,.995-2.7C524.809,201.142,524.36,200.661,523.526,200.661Zm-.1,3.979a12.507,12.507,0,0,1-1.059,1.54l.065-.193a6.724,6.724,0,0,1,1.091-1.508A.291.291,0,0,0,523.429,204.64Z" fill="#5e8f3f"/>
      <path id="Path_221" data-name="Path 221" d="M532.253,210.319c-.064-.257-.192-.289-.353-.128a6.341,6.341,0,0,1-4.62,2.823c-.385.032-.77.065-1.091.065-.353.032-.674.032-1,.032a8.428,8.428,0,0,1-4.075-.8c-.353-.193-.513-.354-.513-.418.032-.032.032-.1.064-.128l.16-.161c.578-.449,1.155-.962,1.733-1.476a20.646,20.646,0,0,0,1.7-1.668c1.893-2.021,2.952-3.754,3.176-5.166a8.634,8.634,0,0,0,.129-1.508A4.171,4.171,0,0,0,525,197.516a3.918,3.918,0,0,0-1.8-.321,7.937,7.937,0,0,0-4.4,1.316,9.086,9.086,0,0,0-3.113,3.5,14.148,14.148,0,0,0-1.764,6.546,6.981,6.981,0,0,0,.962,3.786,5.343,5.343,0,0,0,1.54,1.637c1.6,1.155,3.915,1.7,7.027,1.7,3.979,0,6.9-.9,8.728-2.664a1.858,1.858,0,0,0,.289-.962A3.313,3.313,0,0,0,532.253,210.319Zm-13.38-.8c-.289,0-.449-.321-.449-.963a12.739,12.739,0,0,1,1.412-4.941,5.845,5.845,0,0,1,1.7-2.118,3.121,3.121,0,0,1,1.99-.834c.834,0,1.283.481,1.283,1.476a5.823,5.823,0,0,1-.995,2.7,13.725,13.725,0,0,1-4.492,4.524A.7.7,0,0,1,518.873,209.517Z" fill="#fff"/>
      <path id="Path_222" data-name="Path 222" d="M547.045,189.013c-.994-.128-2.085,1.412-3.208,4.589l-3.979,11.1a4.593,4.593,0,0,0-.289.93.174.174,0,0,0,.1.129c.1,0,.289-.161.61-.514a44.655,44.655,0,0,0,5.84-9.369c1.251-2.5,1.861-4.364,1.861-5.551C547.976,189.559,547.655,189.109,547.045,189.013ZM539.056,214.3c-.321-.289-.642-.546-.963-.8a.568.568,0,0,0-.289-.129c-.128,0-.288.225-.449.642a9.046,9.046,0,0,1-.353,1.123c-.16.578-.385,1.316-.642,2.278a33.161,33.161,0,0,0-.93,3.69c0,.578.192.9.609.995q1.3.338,2.888-3.947a9.253,9.253,0,0,0,.642-2.952A1.205,1.205,0,0,0,539.056,214.3Zm7.989-25.285c-.994-.128-2.085,1.412-3.208,4.589l-3.979,11.1a4.593,4.593,0,0,0-.289.93.174.174,0,0,0,.1.129c.1,0,.289-.161.61-.514a44.655,44.655,0,0,0,5.84-9.369c1.251-2.5,1.861-4.364,1.861-5.551C547.976,189.559,547.655,189.109,547.045,189.013ZM539.056,214.3c-.321-.289-.642-.546-.963-.8a.568.568,0,0,0-.289-.129c-.128,0-.288.225-.449.642a9.046,9.046,0,0,1-.353,1.123c-.16.578-.385,1.316-.642,2.278a33.161,33.161,0,0,0-.93,3.69c0,.578.192.9.609.995q1.3.338,2.888-3.947a9.253,9.253,0,0,0,.642-2.952A1.205,1.205,0,0,0,539.056,214.3Zm0,0c-.321-.289-.642-.546-.963-.8a.568.568,0,0,0-.289-.129c-.128,0-.288.225-.449.642a9.046,9.046,0,0,1-.353,1.123c-.16.578-.385,1.316-.642,2.278a33.161,33.161,0,0,0-.93,3.69c0,.578.192.9.609.995q1.3.338,2.888-3.947a9.253,9.253,0,0,0,.642-2.952A1.205,1.205,0,0,0,539.056,214.3Zm7.989-25.285c-.994-.128-2.085,1.412-3.208,4.589l-3.979,11.1a4.593,4.593,0,0,0-.289.93.174.174,0,0,0,.1.129c.1,0,.289-.161.61-.514a44.655,44.655,0,0,0,5.84-9.369c1.251-2.5,1.861-4.364,1.861-5.551C547.976,189.559,547.655,189.109,547.045,189.013Zm0,0c-.994-.128-2.085,1.412-3.208,4.589l-3.979,11.1a4.593,4.593,0,0,0-.289.93.174.174,0,0,0,.1.129c.1,0,.289-.161.61-.514a44.655,44.655,0,0,0,5.84-9.369c1.251-2.5,1.861-4.364,1.861-5.551C547.976,189.559,547.655,189.109,547.045,189.013ZM539.056,214.3c-.321-.289-.642-.546-.963-.8a.568.568,0,0,0-.289-.129c-.128,0-.288.225-.449.642a9.046,9.046,0,0,1-.353,1.123c-.16.578-.385,1.316-.642,2.278a33.161,33.161,0,0,0-.93,3.69c0,.578.192.9.609.995q1.3.338,2.888-3.947a9.253,9.253,0,0,0,.642-2.952A1.205,1.205,0,0,0,539.056,214.3Zm0,0c-.321-.289-.642-.546-.963-.8a.568.568,0,0,0-.289-.129c-.128,0-.288.225-.449.642a9.046,9.046,0,0,1-.353,1.123c-.16.578-.385,1.316-.642,2.278a33.161,33.161,0,0,0-.93,3.69c0,.578.192.9.609.995q1.3.338,2.888-3.947a9.253,9.253,0,0,0,.642-2.952A1.205,1.205,0,0,0,539.056,214.3Zm7.989-25.285c-.994-.128-2.085,1.412-3.208,4.589l-3.979,11.1a4.593,4.593,0,0,0-.289.93.174.174,0,0,0,.1.129c.1,0,.289-.161.61-.514a44.655,44.655,0,0,0,5.84-9.369c1.251-2.5,1.861-4.364,1.861-5.551C547.976,189.559,547.655,189.109,547.045,189.013Zm0,0c-.994-.128-2.085,1.412-3.208,4.589l-3.979,11.1a4.593,4.593,0,0,0-.289.93.174.174,0,0,0,.1.129c.1,0,.289-.161.61-.514a44.655,44.655,0,0,0,5.84-9.369c1.251-2.5,1.861-4.364,1.861-5.551C547.976,189.559,547.655,189.109,547.045,189.013ZM538.093,213.5a.568.568,0,0,0-.289-.129c-.128,0-.288.225-.449.642a9.046,9.046,0,0,1-.353,1.123c-.16.578-.385,1.316-.642,2.278a33.161,33.161,0,0,0-.93,3.69c0,.578.192.9.609.995q1.3.338,2.888-3.947a9.253,9.253,0,0,0,.642-2.952,1.205,1.205,0,0,0-.513-.9C538.735,214.009,538.414,213.752,538.093,213.5Zm13.926-.578c0-.032-.032-.032-.032-.064a1.549,1.549,0,0,1-.353.289,4.123,4.123,0,0,1-.706.545l.353-.353a.642.642,0,0,0,.257-.385,1.733,1.733,0,0,0,.192-.866v-.417a3.13,3.13,0,0,0-.128-1c-.032-.16-.064-.289-.1-.417-.032-.225-.1-.385-.224-.449a.509.509,0,0,0-.385-.129.519.519,0,0,0-.513.257c0,.032-.033.032-.065.032a7.506,7.506,0,0,1-2.246,1.925,5.356,5.356,0,0,1-1.957.738,16.442,16.442,0,0,1-1.861-.128c-.129-.161-.257-.289-.353-.417a2.352,2.352,0,0,0-.289-.289c-.289-.225-.481-.353-.481-.449l.257-.225a21.088,21.088,0,0,0,4.46-4.332,27.052,27.052,0,0,0,4.46-7.283,21.934,21.934,0,0,0,1.829-7.316c0-2.246-.9-3.786-2.664-4.556A4.288,4.288,0,0,0,547.142,185c-3.241,0-6.353,3.53-9.274,10.653-.673,1.54-1.283,3.241-1.925,5.1-.609,1.861-1.219,3.915-1.829,6.129l-1.219,4.235v.032c-.225.835-.417,1.508-.578,2.118-.032.1-.032.225-.064.321,0,.032,0,.032-.032.064a10.878,10.878,0,0,1-.289,1.123c-.224.995-.417,1.893-.545,2.728a20.451,20.451,0,0,0-.417,3.786c0,2.5.8,3.947,2.47,4.364a2.889,2.889,0,0,0,2.247,2.214,6.034,6.034,0,0,0,1.636.192c3.337,0,5.776-2.278,7.284-6.8a17.283,17.283,0,0,0,.8-3.273,12.471,12.471,0,0,0,1.348.064c.353,0,.738,0,1.123-.032.353-.032.706-.064,1.059-.128a7.218,7.218,0,0,0,3.144-1.252,6.751,6.751,0,0,0,1.412-1.155.428.428,0,0,0,.192-.225.946.946,0,0,0,.193-.449c-.064,0-.128-.064-.193-.1A4.954,4.954,0,0,1,552.019,212.918Zm-8.728,2.407c-.288-.032-.481.064-.513.321a14.5,14.5,0,0,1-.289,1.7c-.16.546-.289,1.059-.481,1.572-1.476,4.332-3.755,6.482-6.9,6.482a7.841,7.841,0,0,1-1.54-.16c-1.476-.353-2.214-1.637-2.214-3.947a20.59,20.59,0,0,1,.513-3.979c.128-.738.321-1.572.514-2.439l.449-1.668,1.7-6.193a106.01,106.01,0,0,1,3.722-11.2c2.856-6.931,5.808-10.4,8.889-10.4a4.206,4.206,0,0,1,3.176,1.22,4.69,4.69,0,0,1,1.155,3.337,21.263,21.263,0,0,1-1.764,7.123,26.62,26.62,0,0,1-4.428,7.22,24.8,24.8,0,0,1-4.364,4.235c-.321.225-.449.385-.449.578s.224.481.706.834a3.871,3.871,0,0,1,1.155,1.861.986.986,0,0,0,.609.738,9.972,9.972,0,0,0,3.177.514,5.371,5.371,0,0,0,2.182-.8,8.145,8.145,0,0,0,2.438-2.085c.129-.161.257-.129.353.128a1.8,1.8,0,0,1,.129.449v.032a4.014,4.014,0,0,1,.064,1.252v.064a1.44,1.44,0,0,1-.289.9,7.223,7.223,0,0,1-1.38,1.123A8.672,8.672,0,0,1,543.291,215.325Zm4.685-25c0-.77-.321-1.22-.931-1.316-.994-.128-2.085,1.412-3.208,4.589l-3.979,11.1a4.593,4.593,0,0,0-.289.93.174.174,0,0,0,.1.129c.1,0,.289-.161.61-.514a44.655,44.655,0,0,0,5.84-9.369C547.366,193.377,547.976,191.516,547.976,190.329ZM538.093,213.5a.568.568,0,0,0-.289-.129c-.128,0-.288.225-.449.642a9.046,9.046,0,0,1-.353,1.123c-.16.578-.385,1.316-.642,2.278a33.161,33.161,0,0,0-.93,3.69c0,.578.192.9.609.995q1.3.338,2.888-3.947a9.253,9.253,0,0,0,.642-2.952,1.205,1.205,0,0,0-.513-.9C538.735,214.009,538.414,213.752,538.093,213.5Zm.963.8c-.321-.289-.642-.546-.963-.8a.568.568,0,0,0-.289-.129c-.128,0-.288.225-.449.642a9.046,9.046,0,0,1-.353,1.123c-.16.578-.385,1.316-.642,2.278a33.161,33.161,0,0,0-.93,3.69c0,.578.192.9.609.995q1.3.338,2.888-3.947a9.253,9.253,0,0,0,.642-2.952A1.205,1.205,0,0,0,539.056,214.3Zm7.989-25.285c-.994-.128-2.085,1.412-3.208,4.589l-3.979,11.1a4.593,4.593,0,0,0-.289.93.174.174,0,0,0,.1.129c.1,0,.289-.161.61-.514a44.655,44.655,0,0,0,5.84-9.369c1.251-2.5,1.861-4.364,1.861-5.551C547.976,189.559,547.655,189.109,547.045,189.013Zm0,0c-.994-.128-2.085,1.412-3.208,4.589l-3.979,11.1a4.593,4.593,0,0,0-.289.93.174.174,0,0,0,.1.129c.1,0,.289-.161.61-.514a44.655,44.655,0,0,0,5.84-9.369c1.251-2.5,1.861-4.364,1.861-5.551C547.976,189.559,547.655,189.109,547.045,189.013ZM539.056,214.3c-.321-.289-.642-.546-.963-.8a.568.568,0,0,0-.289-.129c-.128,0-.288.225-.449.642a9.046,9.046,0,0,1-.353,1.123c-.16.578-.385,1.316-.642,2.278a33.161,33.161,0,0,0-.93,3.69c0,.578.192.9.609.995q1.3.338,2.888-3.947a9.253,9.253,0,0,0,.642-2.952A1.205,1.205,0,0,0,539.056,214.3Zm0,0c-.321-.289-.642-.546-.963-.8a.568.568,0,0,0-.289-.129c-.128,0-.288.225-.449.642a9.046,9.046,0,0,1-.353,1.123c-.16.578-.385,1.316-.642,2.278a33.161,33.161,0,0,0-.93,3.69c0,.578.192.9.609.995q1.3.338,2.888-3.947a9.253,9.253,0,0,0,.642-2.952A1.205,1.205,0,0,0,539.056,214.3Zm7.989-25.285c-.994-.128-2.085,1.412-3.208,4.589l-3.979,11.1a4.593,4.593,0,0,0-.289.93.174.174,0,0,0,.1.129c.1,0,.289-.161.61-.514a44.655,44.655,0,0,0,5.84-9.369c1.251-2.5,1.861-4.364,1.861-5.551C547.976,189.559,547.655,189.109,547.045,189.013Zm0,0c-.994-.128-2.085,1.412-3.208,4.589l-3.979,11.1a4.593,4.593,0,0,0-.289.93.174.174,0,0,0,.1.129c.1,0,.289-.161.61-.514a44.655,44.655,0,0,0,5.84-9.369c1.251-2.5,1.861-4.364,1.861-5.551C547.976,189.559,547.655,189.109,547.045,189.013ZM539.056,214.3c-.321-.289-.642-.546-.963-.8a.568.568,0,0,0-.289-.129c-.128,0-.288.225-.449.642a9.046,9.046,0,0,1-.353,1.123c-.16.578-.385,1.316-.642,2.278a33.161,33.161,0,0,0-.93,3.69c0,.578.192.9.609.995q1.3.338,2.888-3.947a9.253,9.253,0,0,0,.642-2.952A1.205,1.205,0,0,0,539.056,214.3Z" fill="#5e8f3f"/>
      <path id="Path_223" data-name="Path 223" d="M551.217,210.768a1.8,1.8,0,0,0-.129-.449c-.1-.257-.224-.289-.353-.128a8.145,8.145,0,0,1-2.438,2.085,5.371,5.371,0,0,1-2.182.8,9.972,9.972,0,0,1-3.177-.514.986.986,0,0,1-.609-.738,3.871,3.871,0,0,0-1.155-1.861c-.482-.353-.706-.642-.706-.834s.128-.353.449-.578a24.8,24.8,0,0,0,4.364-4.235,26.62,26.62,0,0,0,4.428-7.22,21.263,21.263,0,0,0,1.764-7.123,4.69,4.69,0,0,0-1.155-3.337,4.206,4.206,0,0,0-3.176-1.22c-3.081,0-6.033,3.466-8.889,10.4a106.01,106.01,0,0,0-3.722,11.2l-1.7,6.193-.449,1.668c-.193.867-.386,1.7-.514,2.439a20.59,20.59,0,0,0-.513,3.979c0,2.31.738,3.594,2.214,3.947a7.841,7.841,0,0,0,1.54.16c3.144,0,5.423-2.15,6.9-6.482.192-.513.321-1.026.481-1.572a14.5,14.5,0,0,0,.289-1.7c.032-.257.225-.353.513-.321a8.672,8.672,0,0,0,6.321-1.188,7.223,7.223,0,0,0,1.38-1.123,1.44,1.44,0,0,0,.289-.9v-.064c-.032-.321-.064-.77-.064-1.252Zm-12.29,7.38q-1.589,4.284-2.888,3.947c-.417-.1-.609-.417-.609-.995a33.161,33.161,0,0,1,.93-3.69c.257-.962.482-1.7.642-2.278a9.046,9.046,0,0,0,.353-1.123c.161-.417.321-.642.449-.642a.568.568,0,0,1,.289.129c.321.256.642.513.963.8a1.205,1.205,0,0,1,.513.9A9.253,9.253,0,0,1,538.927,218.148Zm.738-12.385a.174.174,0,0,1-.1-.129,4.593,4.593,0,0,1,.289-.93l3.979-11.1c1.123-3.177,2.214-4.717,3.208-4.589.61.1.931.546.931,1.316,0,1.187-.61,3.048-1.861,5.551a44.655,44.655,0,0,1-5.84,9.369C539.954,205.6,539.762,205.763,539.665,205.763Z" fill="#fff"/>
      <path id="Path_224" data-name="Path 224" d="M564.437,187.986c-.193-.032-.353-.1-.482-.128a1.623,1.623,0,0,0-.288-.064,2.26,2.26,0,0,0-1.444-1.989,4.037,4.037,0,0,0-1.188-.289,2.74,2.74,0,0,0-2.759,1.476v-.065a4.682,4.682,0,0,0-.642,2.311,2.468,2.468,0,0,0,2.182,2.567,2.492,2.492,0,0,0,1.7,2.021,2.758,2.758,0,0,0,1.091.225,3.541,3.541,0,0,0,3.305-3.626A2.428,2.428,0,0,0,564.437,187.986Zm-1.508,1.7a2.963,2.963,0,0,1-2.535,1.733,2.455,2.455,0,0,1-1.637-.61,1.965,1.965,0,0,1-.706-1.572,3.569,3.569,0,0,1,.8-2.343,2.765,2.765,0,0,1,2.181-.93,1.989,1.989,0,0,1,2.246,2.246A3.047,3.047,0,0,1,562.929,189.687Zm-11.2,22.4a1.733,1.733,0,0,1-.192.866l.1.193a1.549,1.549,0,0,0,.353-.289A4.341,4.341,0,0,1,551.73,212.084Zm13.413.77a1.034,1.034,0,0,1-.321.321,3.824,3.824,0,0,1-.706.545l.385-.385a1.266,1.266,0,0,0,.257-.321,1.445,1.445,0,0,0,.192-.77v-.032a5.049,5.049,0,0,1-.225-1.893v-.064a.607.607,0,0,0-.32-.546c-.1,0-.161-.032-.289-.032a.521.521,0,0,0-.514.257c0,.032-.032.032-.064.032a7.506,7.506,0,0,1-2.246,1.925,5.356,5.356,0,0,1-1.957.738h-.61c.032-.1.064-.256.129-.481h-.033c.418-1.283.771-2.374,1.091-3.337.321-.931.61-1.7.8-2.342.418-1.188.771-2.247,1.027-3.113.289-.866.546-1.6.738-2.182,0-.064.032-.1.032-.128v-.129a1.584,1.584,0,0,0-1.123-1.764c-.256-.064-.449-.1-.641-.129a2.49,2.49,0,0,1-.482-.064.166.166,0,0,1,.064-.128V198.7a1.6,1.6,0,0,0-1.155-1.764,4.628,4.628,0,0,0-1.508-.193c-1.829,0-2.92.642-3.24,1.957q-.338,1.108-.578,1.829-.192.723-.289.963h.032c-.128.321-.224.706-.385,1.155-.128.45-.289,1.027-.481,1.669a53.794,53.794,0,0,0-1.444,5.487c-.032.288-.064.545-.064.706v.288c0,.482.032.931.064,1.252v.064a3.133,3.133,0,0,0,.257.834l.1.193a3.941,3.941,0,0,0,.706.93,8.6,8.6,0,0,0,1.091.995.7.7,0,0,0,.16.128c.032.032.064.032.1.064.033,0,.065.033.1.033a5.464,5.464,0,0,0,1.861,1.925c.706.577,2.118.834,4.171.834a9.222,9.222,0,0,0,6.9-2.567.57.57,0,0,0,.16-.225.649.649,0,0,0,.193-.481A3.533,3.533,0,0,1,565.143,212.854Zm-7.509,2.567a8.452,8.452,0,0,1-3.754-.61c-.064,0-.128-.064-.193-.1a4.954,4.954,0,0,1-1.668-1.8c0-.032-.032-.032-.032-.064a4.341,4.341,0,0,1-.257-.77v-.064a8.043,8.043,0,0,1-.128-1.348v-.16a15.89,15.89,0,0,1,.417-2.054c.257-.995.642-2.342,1.123-4.011.385-1.251.738-2.374.995-3.305.289-.93.545-1.7.738-2.342.224-.77.577-1.22,1.026-1.348a5.544,5.544,0,0,1,3.145-.064c.257.032.449.225.642.545a1.647,1.647,0,0,1,.128,1.027c-.738,2.118-1.38,4.075-1.989,5.872-.578,1.8-1.123,3.466-1.637,4.974a7.032,7.032,0,0,0-.353,1.668,1.063,1.063,0,0,0,.321.835,4.886,4.886,0,0,0,3.177.77,5.371,5.371,0,0,0,2.182-.8,8.145,8.145,0,0,0,2.438-2.085c.129-.161.257-.129.353.128,0,.032.032.064.032.128a3.647,3.647,0,0,1,.161,1.6v.192a1.5,1.5,0,0,1-.289.77A9.073,9.073,0,0,1,557.634,215.421Zm-5.9-3.337a1.733,1.733,0,0,1-.192.866l.1.193a1.549,1.549,0,0,0,.353-.289A4.341,4.341,0,0,1,551.73,212.084Z" fill="#5e8f3f"/>
      <path id="Path_225" data-name="Path 225" d="M563.281,188.211a3.047,3.047,0,0,1-.352,1.476,2.963,2.963,0,0,1-2.535,1.733,2.455,2.455,0,0,1-1.637-.61,1.965,1.965,0,0,1-.706-1.572,3.569,3.569,0,0,1,.8-2.343,2.765,2.765,0,0,1,2.181-.93A1.989,1.989,0,0,1,563.281,188.211Z" fill="#fff"/>
      <path id="Path_226" data-name="Path 226" d="M564.5,212.18v.064a1.5,1.5,0,0,1-.289.77,9.073,9.073,0,0,1-6.578,2.407,8.452,8.452,0,0,1-3.754-.61c-.064,0-.128-.064-.193-.1a4.954,4.954,0,0,1-1.668-1.8c0-.032-.032-.032-.032-.064a4.341,4.341,0,0,1-.257-.77v-.417a3.13,3.13,0,0,0-.128-1v-.16a15.89,15.89,0,0,1,.417-2.054c.257-.995.642-2.342,1.123-4.011.385-1.251.738-2.374.995-3.305.289-.93.545-1.7.738-2.342.224-.77.577-1.22,1.026-1.348a5.544,5.544,0,0,1,3.145-.064c.257.032.449.225.642.545a1.647,1.647,0,0,1,.128,1.027c-.738,2.118-1.38,4.075-1.989,5.872-.578,1.8-1.123,3.466-1.637,4.974a7.032,7.032,0,0,0-.353,1.668,1.063,1.063,0,0,0,.321.835,4.886,4.886,0,0,0,3.177.77,5.371,5.371,0,0,0,2.182-.8,8.145,8.145,0,0,0,2.438-2.085c.129-.161.257-.129.353.128,0,.032.032.064.032.128v.289A6.875,6.875,0,0,0,564.5,212.18Z" fill="#fff"/>
      <path id="Path_227" data-name="Path 227" d="M578.491,215.293c-.257,0-.417-.1-.449-.289a3.409,3.409,0,0,1-.321-1.444c0-.129,0-.225.064-.289a1.066,1.066,0,0,1-.449.321l.256-.257a1.227,1.227,0,0,0,.353-.738,1.314,1.314,0,0,0,.1-.513v-.417a4.5,4.5,0,0,0-.225-1.412.549.549,0,0,0-.61-.578.588.588,0,0,0-.577.353v-.064a7.954,7.954,0,0,1-2.246,1.925,5.365,5.365,0,0,1-1.958.738,2.526,2.526,0,0,1-.674-.064l.129-.385c.61-1.893,1.091-3.5,1.508-4.845.385-1.38.706-2.439.93-3.305V204c0-.032.033-.064.065-.1.224-.1,1.219-.353,2.92-.835l.128.9a1.319,1.319,0,0,0,.738-.321,2.469,2.469,0,0,0,.577-1.8v-.289c-.1-.545-.32-.866-.705-.962H577.3a1.2,1.2,0,0,1-.321-.032h-.578a3.536,3.536,0,0,0,.128-.931v-.257a1.4,1.4,0,0,0-.481-.9c.193-.642.45-1.444.77-2.375.321-.962.674-2.053,1.091-3.272a2.173,2.173,0,0,0,.032-.578c0-.77-.288-1.219-.834-1.284-.513-.128-1.027-.224-1.444-.288l.064-.129v-.513c0-1.027-.866-1.54-2.631-1.54q-2.454,0-2.888.962c-.128.353-.224.674-.353.963-.77,2.439-1.508,4.974-2.246,7.573-.064.064-.1.1-.1.128H567.2c-.064,0-.192-.032-.353-.032H566.1a1.53,1.53,0,0,0-1.38.738c0,.064,0,.1-.032.128-.192.61-.321,1.059-.417,1.316h.064a2.8,2.8,0,0,0-.1.449.839.839,0,0,0,.61.77h.192a.243.243,0,0,0,.161.032,10.825,10.825,0,0,0,1.283.032c.032,0,.064,0,.064-.032v.032c-.288.835-.481,1.572-.674,2.182-.16.61-.32,1.155-.449,1.572a27.5,27.5,0,0,0-1.026,4.4,1.763,1.763,0,0,0-.065.546v.481a6.875,6.875,0,0,0,.161,1.444v.064a6.961,6.961,0,0,0,.257.77c0,.065.032.1.064.161a4.317,4.317,0,0,0,2.053,2.085c.032,0,.032.033.064.033.9,1.861,2.888,2.823,5.969,2.823a9.282,9.282,0,0,0,6.578-2.342,2.892,2.892,0,0,0,.32-.289,1.066,1.066,0,0,0,.353-.706A8.457,8.457,0,0,1,578.491,215.293Zm-7.8.16a8.311,8.311,0,0,1-3.626-.674,3.533,3.533,0,0,1-1.925-1.925,1.918,1.918,0,0,1-.193-.61v-.032a5.049,5.049,0,0,1-.225-1.893v-.064a44.944,44.944,0,0,1,2.279-8.7c0-.192-.129-.353-.418-.417-.128,0-.32-.032-.609-.032-.257-.032-.642-.032-1.123-.064-.257-.064-.321-.257-.161-.61a8.7,8.7,0,0,1,.546-1.412.858.858,0,0,1,.866-.513h.706a2.115,2.115,0,0,0,.353.064h.353c.161,0,.321-.16.546-.449.513-1.829.994-3.433,1.411-4.813s.738-2.567,1.059-3.5c.1-.288.417-.513.931-.673a6.407,6.407,0,0,1,3.3,0q.722.192.481,1.347c-.481,1.412-.9,2.728-1.316,4.011-.385,1.251-.77,2.5-1.155,3.722-.032.128-.032.257.032.289.033.064.161.128.385.16a3.558,3.558,0,0,0,.931.1c.385,0,.931.032,1.6.064.225.032.321.225.353.577a2.826,2.826,0,0,1-.289,1.508.646.646,0,0,1-.577.385c0-.031-.995-.031-3.016-.031a.538.538,0,0,0-.514.385c-.449,1.6-.866,3.048-1.283,4.395-.385,1.348-.77,2.6-1.123,3.755a2.083,2.083,0,0,0,.321,2.214,3.8,3.8,0,0,0,2.823,1.059,5.361,5.361,0,0,0,2.182-.8,7.988,7.988,0,0,0,2.407-2.085c.16-.161.289-.129.353.128a3.314,3.314,0,0,1,.224,1.733,1.86,1.86,0,0,1-.288.962A8.89,8.89,0,0,1,570.694,215.453Zm7.348-2.407a5.929,5.929,0,0,0,1.957-.77v-.032a.534.534,0,0,0-.321-.321.626.626,0,0,0-.257-.032.582.582,0,0,0-.577.289.857.857,0,0,1-.161.193A2.147,2.147,0,0,1,578.042,213.046Z" fill="#5e8f3f"/>
      <path id="Path_228" data-name="Path 228" d="M577.592,212.052a1.86,1.86,0,0,1-.288.962,8.89,8.89,0,0,1-6.61,2.439,8.311,8.311,0,0,1-3.626-.674,3.533,3.533,0,0,1-1.925-1.925,1.918,1.918,0,0,1-.193-.61v-.032a5.049,5.049,0,0,1-.225-1.893v-.064a44.944,44.944,0,0,1,2.279-8.7c0-.192-.129-.353-.418-.417-.128,0-.32-.032-.609-.032-.257-.032-.642-.032-1.123-.064-.257-.064-.321-.257-.161-.61a8.7,8.7,0,0,1,.546-1.412.858.858,0,0,1,.866-.513h.706a2.115,2.115,0,0,0,.353.064h.353c.161,0,.321-.16.546-.449.513-1.829.994-3.433,1.411-4.813s.738-2.567,1.059-3.5c.1-.288.417-.513.931-.673a6.407,6.407,0,0,1,3.3,0q.722.192.481,1.347c-.481,1.412-.9,2.728-1.316,4.011-.385,1.251-.77,2.5-1.155,3.722-.032.128-.032.257.032.289.033.064.161.128.385.16a3.558,3.558,0,0,0,.931.1c.385,0,.931.032,1.6.064.225.032.321.225.353.577a2.826,2.826,0,0,1-.289,1.508.646.646,0,0,1-.577.385c0-.031-.995-.031-3.016-.031a.538.538,0,0,0-.514.385c-.449,1.6-.866,3.048-1.283,4.395-.385,1.348-.77,2.6-1.123,3.755a2.083,2.083,0,0,0,.321,2.214,3.8,3.8,0,0,0,2.823,1.059,5.361,5.361,0,0,0,2.182-.8,7.988,7.988,0,0,0,2.407-2.085c.16-.161.289-.129.353.128A3.314,3.314,0,0,1,577.592,212.052Z" fill="#fff"/>
      <path id="Path_229" data-name="Path 229" d="M590.652,204.447c-.1-.192-.225-.289-.353-.225-.16,0-.289.1-.353.321a7.673,7.673,0,0,1-.61.931c-.353.513-.834,1.155-1.476,1.989-.962,1.284-1.732,2.214-2.246,2.792a1.031,1.031,0,0,0-.224.417c0,.064.224.257.641.545a2.07,2.07,0,0,1,.9,1.412c.064.225.353.257.93.1a4.846,4.846,0,0,0,2.952-3.4,7.694,7.694,0,0,0-.16-4.877Zm0,0c-.1-.192-.225-.289-.353-.225-.16,0-.289.1-.353.321a7.673,7.673,0,0,1-.61.931c-.353.513-.834,1.155-1.476,1.989-.962,1.284-1.732,2.214-2.246,2.792a1.031,1.031,0,0,0-.224.417c0,.064.224.257.641.545a2.07,2.07,0,0,1,.9,1.412c.064.225.353.257.93.1a4.846,4.846,0,0,0,2.952-3.4,7.694,7.694,0,0,0-.16-4.877Zm13.091,7.958.033.032a.526.526,0,0,0-.61-.546.732.732,0,0,0-.578.289,4.509,4.509,0,0,1-1.38,1.316c.065-.065.1-.129.129-.161a1.7,1.7,0,0,0,.449-1.251v-.417a4.5,4.5,0,0,0-.224-1.412.549.549,0,0,0-.61-.578.572.572,0,0,0-.546.257c0,.032,0,.032-.032.032a6.645,6.645,0,0,1-2.214,1.925,6.458,6.458,0,0,0,.353-1.8v-.288a10.577,10.577,0,0,0-.834-3.851,7.26,7.26,0,0,0-2.054-3.176l.1.032a.69.69,0,0,1,.064-.321c.128-.289.256-.546.385-.8s.224-.514.353-.738v.064a4.776,4.776,0,0,0,.61-1.7v-.128q0-1.83-2.215-2.022v-.192c0-1.38-.834-2.086-2.567-2.086h-.16a3.686,3.686,0,0,0-1.316.257,4.869,4.869,0,0,0-1.219.642,4.557,4.557,0,0,0-.995.93,3.177,3.177,0,0,0-.545,1.091V198c-.032.16-.032.32-.064.449,0,.1-.032.192-.032.256a3.628,3.628,0,0,0,.32,1.412l-.031-.032.16.61a7.9,7.9,0,0,1-.931,1.733c-.513.77-1.123,1.668-1.893,2.759s-1.444,2.054-2.053,2.824-1.123,1.412-1.54,1.861h.064a9.133,9.133,0,0,1-2.439,2.053,3.849,3.849,0,0,1-.995.45,2.663,2.663,0,0,1-.673.192.112.112,0,0,0-.065.032.924.924,0,0,0-.609.963v.032a4.232,4.232,0,0,0,.321,1.508c.032.385.32.578.93.578.225-.065.417-.1.578-.129l.385-.1a.415.415,0,0,0-.064.257v.064a3.848,3.848,0,0,0,.352,1.54.86.86,0,0,0,.931.578,7.606,7.606,0,0,0,3.465-1.509,6.29,6.29,0,0,0,4.685,1.765h.61c.321,0,.706-.032,1.155-.064a7.681,7.681,0,0,0,1.412-.257c.353-.16.674-.288.93-.385.032-.032.1-.032.193-.032h.064a4.674,4.674,0,0,0,2.663.61h.834a9.049,9.049,0,0,0,.963-.032,5.327,5.327,0,0,0,.77-.064,8.16,8.16,0,0,0,5.038-2.439A1.5,1.5,0,0,0,604,214.3v-.449A3.983,3.983,0,0,0,603.743,212.4Zm-9.947,2.952a5.09,5.09,0,0,1-2.5-.482c-.1-.1-.289-.1-.514-.032a9.217,9.217,0,0,0-1.123.45c-.224.032-.545.1-.93.128-.353.032-.835.064-1.412.064a6.232,6.232,0,0,1-5.038-1.636.269.269,0,0,0-.449-.032,6.485,6.485,0,0,1-1.669.962,8.457,8.457,0,0,1-1.668.514c-.257,0-.417-.1-.449-.289a3.409,3.409,0,0,1-.321-1.444c0-.129,0-.225.064-.289-.032-.032-.032-.032,0-.032,0-.1.064-.128.128-.16.032,0,.1-.033.129-.033a5.929,5.929,0,0,0,1.957-.77v-.032a9.781,9.781,0,0,0,2.406-2.053c.353-.417.835-.995,1.444-1.8.578-.77,1.284-1.765,2.15-2.92a22.416,22.416,0,0,0,2.92-4.781,2.677,2.677,0,0,0-.064-.321c-.064-.193-.1-.353-.16-.578-.065-.192-.1-.385-.161-.577a3.722,3.722,0,0,1-.064-.514,1.568,1.568,0,0,1,.032-.385,2.225,2.225,0,0,1,.064-.417,2.674,2.674,0,0,1,1.412-1.8,4.14,4.14,0,0,1,2.374-.77c1.444.065,2.182.642,2.15,1.733-.513,1.283-.962,2.31-1.347,3.048-.129.417-.129.674,0,.8a4.322,4.322,0,0,1,.834.963c.257.417.545.931.866,1.508a8.666,8.666,0,0,1,.995,4.46,7.252,7.252,0,0,1-.866,2.92,2.048,2.048,0,0,0-.193.289c-.128.16-.257.385-.481.674a5.816,5.816,0,0,0-.578.93c0,.353.8.482,2.439.418a5.618,5.618,0,0,0,2.567-1.027,7.626,7.626,0,0,0,2.021-1.861c.161-.161.289-.129.353.128a3.313,3.313,0,0,1,.225,1.733,1.857,1.857,0,0,1-.289.962A9.088,9.088,0,0,1,593.8,215.357Zm-3.5-11.135c-.16,0-.289.1-.353.321a7.673,7.673,0,0,1-.61.931c-.353.513-.834,1.155-1.476,1.989-.962,1.284-1.732,2.214-2.246,2.792a1.031,1.031,0,0,0-.224.417c0,.064.224.257.641.545a2.07,2.07,0,0,1,.9,1.412c.064.225.353.257.93.1a4.846,4.846,0,0,0,2.952-3.4,7.694,7.694,0,0,0-.16-4.877C590.555,204.255,590.427,204.158,590.3,204.222Zm.353.225c-.1-.192-.225-.289-.353-.225-.16,0-.289.1-.353.321a7.673,7.673,0,0,1-.61.931c-.353.513-.834,1.155-1.476,1.989-.962,1.284-1.732,2.214-2.246,2.792a1.031,1.031,0,0,0-.224.417c0,.064.224.257.641.545a2.07,2.07,0,0,1,.9,1.412c.064.225.353.257.93.1a4.846,4.846,0,0,0,2.952-3.4,7.694,7.694,0,0,0-.16-4.877Zm0,0c-.1-.192-.225-.289-.353-.225-.16,0-.289.1-.353.321a7.673,7.673,0,0,1-.61.931c-.353.513-.834,1.155-1.476,1.989-.962,1.284-1.732,2.214-2.246,2.792a1.031,1.031,0,0,0-.224.417c0,.064.224.257.641.545a2.07,2.07,0,0,1,.9,1.412c.064.225.353.257.93.1a4.846,4.846,0,0,0,2.952-3.4,7.694,7.694,0,0,0-.16-4.877Z" fill="#5e8f3f"/>
      <path id="Path_230" data-name="Path 230" d="M601.112,210.319c-.064-.257-.192-.289-.353-.128a7.626,7.626,0,0,1-2.021,1.861,5.618,5.618,0,0,1-2.567,1.027c-1.637.064-2.439-.065-2.439-.418a5.816,5.816,0,0,1,.578-.93c.224-.289.353-.514.481-.674a2.048,2.048,0,0,1,.193-.289,7.252,7.252,0,0,0,.866-2.92,8.666,8.666,0,0,0-.995-4.46c-.321-.577-.609-1.091-.866-1.508a4.322,4.322,0,0,0-.834-.963c-.129-.128-.129-.385,0-.8.385-.738.834-1.765,1.347-3.048.032-1.091-.706-1.668-2.15-1.733a4.14,4.14,0,0,0-2.374.77,2.674,2.674,0,0,0-1.412,1.8,2.225,2.225,0,0,0-.064.417,1.568,1.568,0,0,0-.032.385,3.722,3.722,0,0,0,.064.514c.064.192.1.385.161.577.064.225.1.385.16.578a2.677,2.677,0,0,1,.064.321,22.416,22.416,0,0,1-2.92,4.781c-.866,1.155-1.572,2.15-2.15,2.92-.609.8-1.091,1.38-1.444,1.8A9.781,9.781,0,0,1,580,212.244v.032a5.929,5.929,0,0,1-1.957.77c-.1.129-.161.193-.257.193-.032,0-.032,0,0,.032-.064.064-.064.16-.064.289a3.409,3.409,0,0,0,.321,1.444c.032.192.192.289.449.289a8.457,8.457,0,0,0,1.668-.514,6.485,6.485,0,0,0,1.669-.962.269.269,0,0,1,.449.032,6.232,6.232,0,0,0,5.038,1.636c.577,0,1.059-.032,1.412-.064.385-.032.706-.1.93-.128a9.217,9.217,0,0,1,1.123-.45c.225-.064.417-.064.514.032a5.09,5.09,0,0,0,2.5.482,9.088,9.088,0,0,0,7.252-2.343,1.857,1.857,0,0,0,.289-.962A3.313,3.313,0,0,0,601.112,210.319Zm-10.3-.995a4.846,4.846,0,0,1-2.952,3.4c-.577.16-.866.128-.93-.1a2.07,2.07,0,0,0-.9-1.412c-.417-.288-.641-.481-.641-.545a1.031,1.031,0,0,1,.224-.417c.514-.578,1.284-1.508,2.246-2.792.642-.834,1.123-1.476,1.476-1.989a7.673,7.673,0,0,0,.61-.931c.064-.224.193-.321.353-.321.128-.064.256.033.353.225a7.694,7.694,0,0,1,.16,4.877Z" fill="#fff"/>
    </g>
    <g id="Group_53" data-name="Group 53">
      <g id="Group_50" data-name="Group 50">
        <circle id="Ellipse_3" data-name="Ellipse 3" cx="68.183" cy="68.183" r="68.183" transform="translate(293.622 138.35)" fill="#8fba54"/>
        <path id="Path_231" data-name="Path 231" d="M361.8,276.985a70.452,70.452,0,1,1,70.452-70.452A70.532,70.532,0,0,1,361.8,276.985Zm0-136.367a65.914,65.914,0,1,0,65.914,65.915A65.99,65.99,0,0,0,361.8,140.618Z" fill="#fff"/>
      </g>
      <g id="Group_52" data-name="Group 52">
        <g id="Group_51" data-name="Group 51" clip-path="url(#clip-path)">
          <path id="Path_232" data-name="Path 232" d="M392.133,180.048c-5.209,2.287-6.7,7.435-8.579,12.345-.281.732.275,1.781,0,2.5,1.886-4.912,3.368-10.057,8.579-12.346.322-.141-.291-2.371,0-2.5" fill="#fff"/>
          <path id="Path_233" data-name="Path 233" d="M392.775,171.266a8.554,8.554,0,0,0,.691,4.624,4.287,4.287,0,0,0,2.745,2.351,2.5,2.5,0,0,0,2.981-2.5,4.575,4.575,0,0,0-2.73-3.27c-.423-.205-.671.022-.553.466a2.286,2.286,0,0,0,1.1,1.3c.107.051.214.105.317.163.047.028-.044-.033.1.062s.248.109.072.047l.085.077c.124.093-.181-.206-.045-.043-.1-.115-.146-.172-.033-.034-.143-.174-.1-.167-.053-.086.062.1-.005-.006,0-.006-.038,0-.028-.113-.007-.006l.031.113c0-.16-.011-.043-.007.043a1.648,1.648,0,0,1-.594,1.2,2.057,2.057,0,0,1-1.416.568,1.162,1.162,0,0,1-.575-.139c-.153-.091.164.062-.005-.007s.193.15-.014-.015c-.055-.045.2.177.021.012-.088-.08.036.167.051.063,0,0-.105-.215-.036-.051.05.122-.082-.171-.108-.234,0,0-.03-.081-.076-.231a4.81,4.81,0,0,1-.164-.758,11.484,11.484,0,0,1-.036-2.452c.048-.66-1.663-2.234-1.736-1.256" fill="#fff"/>
          <path id="Path_234" data-name="Path 234" d="M341.71,152.984c9.63,8.784,3.527,22.582,10.246,32.868,6.816,10.432,17.994,15.29,29.943,17.128-.179-.026.239-4.128,0-4.166-11.947-1.837-23.125-6.694-29.943-17.127-6.723-10.291-.575-24.047-10.246-32.869.675.615-.708,3.52,0,4.166" fill="#fff"/>
          <path id="Path_235" data-name="Path 235" d="M353.711,162.95c5.254,4.355,10.639,8.731,14.189,14.665,4.049,6.766,5.509,14.822,7.967,22.226-.247-.743.251-1.744,0-2.5-2.458-7.4-3.918-15.46-7.967-22.226-3.55-5.933-8.935-10.31-14.189-14.663.4.33-.42,2.15,0,2.5" fill="#fff"/>
          <path id="Path_236" data-name="Path 236" d="M344.952,154.8c7.94,5.876,18.724,7.624,25.961,14.4,8.261,7.733,10.021,20.192,10.088,30.926.016,2.54.041-1.464.036-2.1-.063-10.144-.914-21.257-7.182-29.691-6.947-9.346-19.869-11.013-28.9-17.7.644.477-.684,3.659,0,4.165" fill="#fff"/>
          <path id="Path_237" data-name="Path 237" d="M375.669,206.215c-8.4-7.556-19.356-9.807-30.341-10.215-9.3-.346-19.666.813-27.342,6.558-16.942,12.677-12.893,38.415-7.54,55.656.495,1.591,6.322.16,5.892-1.224-4.867-15.673-8.178-34.513,1.791-48.982,5.6-8.128,14.735-9.838,24.041-9.557,10.181.306,20.172,2.529,27.935,9.514,1.264,1.137,6.6-.816,5.564-1.75" fill="#fff"/>
          <path id="Path_238" data-name="Path 238" d="M393.6,174.441c-6.785,4.684-11.6,10.626-11.708,19.109a32.04,32.04,0,0,0,4.884,17.01c-.419-.714.428-2.183,0-2.917-2.659-4.549-5.571-10.268-4.493-15.687,1.271-6.391,6.173-11.047,11.317-14.6.468-.322-.439-2.612,0-2.915" fill="#fff"/>
          <path id="Path_239" data-name="Path 239" d="M375.368,212.2c6.921-6.356,18.379-7.1,27.336-6.582a62.1,62.1,0,0,1,17.425,3.658,33.374,33.374,0,0,1,5.237,2.245c.256.147,1.77,1.34,1.432.8.576.923,2.122,1.243,1.256-.143a8.017,8.017,0,0,0-3.069-2.5c-5.1-2.847-11.288-4.488-16.99-5.414-10.63-1.727-25.608-1.764-34.072,6.008-.606.558.889,2.437,1.445,1.927" fill="#fff"/>
        </g>
      </g>
    </g>
    <path id="Path_241" data-name="Path 241" fill="#ab4643"/>
    <path id="Path_242" data-name="Path 242" d="M247.129,286.971" fill="#fdd9be"/>
    <g id="Group_54" data-name="Group 54">
      <path id="Path_243" data-name="Path 243" d="M139.733,305.994,209,305.863l-.042-39.9-69.269.129,18.228,19.929Z" fill="#567f3b"/>
      <path id="Path_244" data-name="Path 244" d="M209.046,290.706l.016,15.228-16.223-13.752Z" fill="#4b6d35"/>
    </g>
    <g id="Group_55" data-name="Group 55">
      <path id="Path_245" data-name="Path 245" d="M571.641,305.994l-69.268-.132.042-39.9,69.269.129-18.229,19.929Z" fill="#567f3b"/>
      <path id="Path_246" data-name="Path 246" d="M502.328,290.706l-.016,15.228,16.223-13.752Z" fill="#4b6d35"/>
    </g>
    <rect id="Rectangle_21" data-name="Rectangle 21" width="325.859" height="40.93" transform="translate(192.565 251.181)" fill="#5e8f3f"/>
  </g>
  <text id="Open_Enrollment" data-name="Open Enrollment" transform="translate(127.656 256.845)" fill="#fff" font-size="36" font-family="Calibri-Bold, Calibri" font-weight="700"><tspan x="106.149" y="27">Open Enrollment</tspan></text>
</svg>
