<svg xmlns="http://www.w3.org/2000/svg" xmlns:xlink="http://www.w3.org/1999/xlink" width="604.667" height="338.5" viewBox="0 0 604.667 338.5">
  <defs>
    <clipPath id="clip-path">
      <rect id="Rectangle_17" data-name="Rectangle 17" width="604.667" height="338.5" transform="translate(53 387.5)" fill="none"/>
    </clipPath>
  </defs>
  <g id="Group_41" data-name="Group 41" transform="translate(-53 -387.5)">
    <g id="Group_40" data-name="Group 40" clip-path="url(#clip-path)">
      <g id="Group_39" data-name="Group 39">
        <rect id="Rectangle_16" data-name="Rectangle 16" width="617.558" height="1090.477" transform="translate(40.442 45.449)" fill="#fff"/>
        <g id="Group_7" data-name="Group 7">
          <path id="Path_15" data-name="Path 15" d="M76.848,686.595c-3.222-60.963,29.536-80.315,30.954-81.362l11.127,13.67-5.314-7.191,5.358,7.14c-1.115.845-31.519,16.7-31.479,64.286Z" fill="#d9a187"/>
        </g>
        <g id="Group_8" data-name="Group 8">
          <path id="Path_16" data-name="Path 16" d="M113.615,611.719l5.312,7.2.046-.032Z" fill="#e5bd6c"/>
          <path id="Path_17" data-name="Path 17" d="M104.633,634.036a127.621,127.621,0,0,1,14.294-15.12l2.484-19.86c-.691.511-18.5,0-33.957,22.125Z" fill="#e5bd6c"/>
          <path id="Path_18" data-name="Path 18" d="M91.051,616.484c-1.207,1.445-2.41,3-3.6,4.7l17.179,12.855c1.5-1.834,2.963-3.529,4.35-5.083C102.855,625,96.795,620.964,91.051,616.484Z" fill="#eed5a5"/>
        </g>
        <path id="Path_19" data-name="Path 19" d="M555.028,458.064c82.673,16.774,36.965,141.828,79.535,185.983,0,0-32.846,26.644-115.927,14.262-49.7-7.407-71.283-50.088-41.513-133.525S555.028,458.064,555.028,458.064Z" fill="#522e1e"/>
        <path id="Path_20" data-name="Path 20" d="M495.592,506.637c7.961-12.676,22.772-20.045,34.832-28.258,5.109-3.479,10.223-6.962,15.276-10.526a74.432,74.432,0,0,1,23.907,27.129c10.6,20.842,10.029,45.579,11.254,68.356,1.235,22.968,3.209,49.283,15.913,69.208a75.527,75.527,0,0,0,19.9,20.419c-16.888,6.078-46.458,12.046-91.853,6.163a161.233,161.233,0,0,1-15.964-13.413c-2.277-2.534-4.5-5.1-6.622-7.744a207.821,207.821,0,0,1-12.414-17.1A135.3,135.3,0,0,1,482.01,578.1c-.219-12.172,1.178-24.637,2.84-36.685C486.5,529.451,489.079,517.008,495.592,506.637Z" opacity="0.18"/>
        <g id="Group_9" data-name="Group 9">
          <path id="Path_21" data-name="Path 21" d="M412.251,602.874l-.063-20.188c55.468-.168,89.767-7.12,90.107-7.19l4.081,19.771C504.907,595.57,469.729,602.7,412.251,602.874Z" fill="#daa389"/>
        </g>
        <g id="Group_10" data-name="Group 10">
          <path id="Path_22" data-name="Path 22" d="M418.79,1137.078a3.87,3.87,0,0,0,3.71,3.465l12.364.465a348.892,348.892,0,0,1,31.637-32.76c-4.414-3.362-10.166-8.969-13.485-11.854-4.226-3.673-3.985-30.487-3.985-30.487l-23.507-2.422s.436,25.054-.609,27.639c-2.059,5.087-3.763,7.527-5.693,12.611a29.192,29.192,0,0,0-1.352,8.166,111.793,111.793,0,0,0,.291,18.765C418.343,1132.806,418.567,1134.942,418.79,1137.078Z" fill="#c5b095"/>
          <path id="Path_23" data-name="Path 23" d="M449.875,1084.915c-.14.013-.28.025-.4.038a100.345,100.345,0,0,1-13.974.509c-3.353-.108-6.689-.358-10.012-.706.266-8.236.039-21.271.039-21.271l23.507,2.422S448.939,1076.208,449.875,1084.915Z" fill="#3c2415" opacity="0.09"/>
          <path id="Path_24" data-name="Path 24" d="M419.582,1101.836c4.779,5,23,20.939,38.045-.4a2.34,2.34,0,0,1,3.453-.471c11.1,9.568,25.668,22.765,33.589,19.993,11.716-4.1,17.707,1.493,17.8,9.755l.1,8.263s-23.939,10.66-45.164,4.079l-21.225-6.58-.083,2.222a2.727,2.727,0,0,1-2.828,2.623l-20.772-.782a3.87,3.87,0,0,1-3.71-3.465c-.676-6.483-3.215-23.679-.429-34.649C418.5,1101.9,419.2,1101.439,419.582,1101.836Z" fill="#52463f"/>
          <path id="Path_25" data-name="Path 25" d="M418.011,1131.571c28.853-.911,45.346,10.806,64.362,10.315,12.523-.324,25.122-4.159,30.414-5.968a2.18,2.18,0,0,1,2.875,1.853l.086.871a1.754,1.754,0,0,1-1.09,1.8c-25.562,10.147-51.122,3.991-57.935,2.213-5.6-1.461-28.987-.1-37.727.473a3.3,3.3,0,0,1-3.511-3.107l-.319-5.373A2.921,2.921,0,0,1,418.011,1131.571Z" fill="#5e5049"/>
        </g>
        <g id="Group_11" data-name="Group 11">
          <path id="Path_26" data-name="Path 26" d="M314.508,1137.078a3.869,3.869,0,0,0,3.71,3.465l12.363.465a348.9,348.9,0,0,1,31.638-32.76c-4.414-3.362-10.166-8.969-13.486-11.854-4.225-3.673-.423-30.487-.423-30.487l-20.942-2.422s-5.69,25.054-6.736,27.639c-2.058,5.087-3.762,7.527-5.693,12.611a29.265,29.265,0,0,0-1.352,8.166,112,112,0,0,0,.291,18.765C314.061,1132.806,314.285,1134.942,314.508,1137.078Z" fill="#c5b095"/>
          <path id="Path_27" data-name="Path 27" d="M336.825,1086.695a84.735,84.735,0,0,1-14.787-.631c2.036-8.074,5.33-22.579,5.33-22.579l20.942,2.422a169.483,169.483,0,0,0-1.569,20.25C343.313,1086.528,339.778,1086.553,336.825,1086.695Z" fill="#3c2415" opacity="0.09"/>
          <path id="Path_28" data-name="Path 28" d="M315.3,1101.836c4.779,5,23,20.939,38.045-.4a2.34,2.34,0,0,1,3.453-.471c11.1,9.568,25.668,22.765,33.588,19.993,11.717-4.1,17.708,1.493,17.806,9.755l.1,8.263s-23.939,10.66-45.164,4.079l-21.225-6.58-.083,2.222a2.727,2.727,0,0,1-2.828,2.623l-20.772-.782a3.869,3.869,0,0,1-3.71-3.465c-.677-6.483-3.215-23.679-.429-34.649C314.214,1101.9,314.921,1101.439,315.3,1101.836Z" fill="#52463f"/>
          <path id="Path_29" data-name="Path 29" d="M313.729,1131.571c28.852-.911,45.346,10.806,64.362,10.315,12.523-.324,25.121-4.159,30.414-5.968a2.179,2.179,0,0,1,2.874,1.853l.087.871a1.755,1.755,0,0,1-1.09,1.8c-25.562,10.147-51.122,3.991-57.935,2.213-5.6-1.461-28.987-.1-37.727.473a3.3,3.3,0,0,1-3.512-3.107l-.319-5.373A2.922,2.922,0,0,1,313.729,1131.571Z" fill="#5e5049"/>
        </g>
        <path id="Path_30" data-name="Path 30" d="M378.931,811.475l17.286,28.42-12.261,1.33-16.742-29.751Z" fill="#3e4041"/>
        <path id="Path_31" data-name="Path 31" d="M352.2,807.629l1.039,44.273s114.518,4.325,120.443-9.709c4.541-10.755,1.1-31.338,1.1-31.338Z" fill="#5e4f47"/>
        <g id="Group_12" data-name="Group 12">
          <path id="Path_32" data-name="Path 32" d="M432.555,851.065c.152.59,4.566,54.873-17.786,219.716-.365,2.691.977,5.286,3.669,5.633l35.046,2.782c3.106.246,6.4-1.637,6.841-4.72,23.711-164.291,15.6-227.42,15.012-238.209Z" fill="#5e4f47"/>
        </g>
        <g id="Group_13" data-name="Group 13">
          <path id="Path_33" data-name="Path 33" d="M353.012,825.647c.152.59,6.913,101.287-40.207,245.69a4.593,4.593,0,0,0,3.877,6.081l36.4,3.3a5.632,5.632,0,0,0,5.836-3.815c58.753-174.956,35.221-238.753,33.215-245.54Z" fill="#5e4f47"/>
        </g>
        <path id="Path_34" data-name="Path 34" d="M352.2,807.629,353.45,845.6c18.38,11.012,96.795,10.255,122.228-11.885,1.038-11.926-.442-24.357-.89-22.857Z" opacity="0.14"/>
        <path id="Path_35" data-name="Path 35" d="M479.344,796.066l-1.789,27.676s-25.634,9.835-62.845,11.537a383.824,383.824,0,0,1-62.977-2.7l-9.581-30.233Z" fill="#bd5b35"/>
        <path id="Path_36" data-name="Path 36" d="M356.244,625.548l-1.35-29.514c23.593-8.165,56.279-9.6,79.877-.974L436,621.9Z" fill="#d4927c"/>
        <path id="Path_37" data-name="Path 37" d="M429.2,816.981c-4.774.172-9.8.275-15.083.275-4.138,0-8.431-.1-12.765-.275Z" fill="#c98c78"/>
        <path id="Path_38" data-name="Path 38" d="M324.858,623.534c.36-12.623,13.07-22.574,31.93-28.453,1.381,2.806,4.308,5.466,6.525,8.033a39.733,39.733,0,0,0,28.544,13.525c16.167.6,35.116-10.492,39.65-24.976,6.7.845,19.546,6.4,26.088,12.229,29.211,26.046,26.606,161.936,26.7,197.283a10.77,10.77,0,0,1-8.386,10.546c-11.15,2.547-33,6.642-62.78,8-22.544,1.031-49.81-.663-63.6-1.72a10.687,10.687,0,0,1-9.828-9.584C336.235,774.308,324.056,651.684,324.858,623.534Z" fill="#e1703b"/>
        <path id="Path_39" data-name="Path 39" d="M408.059,572.087l1.388,23.81c.463,7.938-6.462,11.215-15.287,11.81s-16.34-1.708-16.8-9.645l-1.428-24.505Z" fill="#d4927c"/>
        <path id="Path_40" data-name="Path 40" d="M427.011,598a292.021,292.021,0,0,0-66.837,2.6s18.63,32.985,43.419,23S427.011,598,427.011,598Z" fill="#dbdada"/>
        <path id="Path_41" data-name="Path 41" d="M408.529,580.149s15.6,9.887,18.384,15.685c4.83,10.063-13.211,22.558-13.211,22.558s-2.325-14.1-16.311-13.812-19.1,15.7-19.1,15.7-18.4-11.158-18.194-21.388a40.076,40.076,0,0,1,16.368-16.152s2.969,14.594,18.556,13.845C410.4,595.845,408.529,580.149,408.529,580.149Z" fill="#f2f2f2"/>
        <path id="Path_42" data-name="Path 42" d="M421.079,589.477s1.688,25.845-22.769,27.7c-28.876,2.188-33.449-24.708-33.449-24.708s-7.29-.794-11.436,3.492c0,0,.371,33.934,44.775,31.592,38.234-2.017,34.127-36.1,34.127-36.1S428.8,589.124,421.079,589.477Z" fill="#bd5b35"/>
        <g id="Group_14" data-name="Group 14">
          <path id="Path_43" data-name="Path 43" d="M471.806,601.31c21.281-2.078,33.719-5.867,34.57-6.043l7.331-22.91c-.2.041-16.456-.121-44.653,3.881C470.131,582.887,470.829,594.644,471.806,601.31Z" fill="#eed5a5"/>
        </g>
        <path id="Path_44" data-name="Path 44" d="M432.327,591.455S476.851,579.191,511.206,631c29.214,44.054,66.954,72.118,40.44,96.316-30.1,27.467-61.646-13.932-78.3-51.5S432.327,591.455,432.327,591.455Z" fill="#e1703b"/>
        <path id="Path_45" data-name="Path 45" d="M499.819,706.087s23.789,35.431,45.256,18.077c18.784-15.186-4.106-43.958-4.106-43.958Z" fill="#f2f2f2"/>
        <g id="Group_17" data-name="Group 17">
          <path id="Path_46" data-name="Path 46" d="M477.891,764.945l-10.373,8.66-18.192-25.511,13.376-7.8Z" fill="#daa389"/>
          <path id="Path_47" data-name="Path 47" d="M450.9,789.36c12.048-8.082,8.23-17.337,9.176-21.618a1.842,1.842,0,0,1,1.982-1.482c3.005.243,5.538.992,8.8-1.411,3.933-2.9,2.415-6.568,3.757-7.326s13.684,7.347,17.133,16.926L470.468,792.5,450.586,802.56S444.61,793.582,450.9,789.36Z" fill="#698d49"/>
          <g id="Group_15" data-name="Group 15">
            <path id="Path_48" data-name="Path 48" d="M451.226,804.452c24.326-6.979,38.823-23.927,43.221-29.88,1.584-2.143-.431-4.157-1.619-4.959l-.015-.01a2.2,2.2,0,0,0-3.11.422c-3.838,5.621-17.357,23.2-40.175,29.8a2.145,2.145,0,0,0-1.361,2.868h0A2.631,2.631,0,0,0,451.226,804.452Z" fill="#5f7e42"/>
          </g>
          <g id="Group_16" data-name="Group 16">
            <path id="Path_49" data-name="Path 49" d="M472.7,765.993c-.414.331-.862.663-1.345.991-5.1,3.479-9.2,3.4-11.794,2.687a2.387,2.387,0,0,1-1.23-3.791l.184-.229a2.443,2.443,0,0,1,2.512-.806c1.453.352,4,.345,7.487-2.031,3.324-2.26,4.107-4.374,4.224-5.648a2.339,2.339,0,0,1,1.46-1.9l.245-.1a2.387,2.387,0,0,1,3.3,2.392C477.57,759.862,476.473,762.975,472.7,765.993Z" fill="#5f7e42"/>
          </g>
          <path id="Path_50" data-name="Path 50" d="M459.915,774.791s11.991-.669,5.788,8.967-10.442,1.973-10.442,1.973Z" fill="#5f7e42"/>
        </g>
        <path id="Path_51" data-name="Path 51" d="M519.539,559.7l-.006.027-3.768,21.984c-.892,5.2,2.377,10.134,7.265,10.954s9.617-2.764,10.509-7.968l3.768-21.985c.05-.292.083-.584.107-.875Z" fill="#daa389"/>
        <path id="Path_52" data-name="Path 52" d="M519.539,559.7l-.006.027-1.3,7.944c2.625,2.106,12.673,4.252,17.892,1.923l1.18-6.882c.05-.292.083-.584.107-.875Z" fill="#d2917c"/>
        <path id="Path_53" data-name="Path 53" d="M535.4,606.011l3.653-30.559a74.133,74.133,0,0,0-28.3-2.876l-3.594,30.059Z" fill="#daa389"/>
        <g id="Group_18" data-name="Group 18">
          <path id="Path_54" data-name="Path 54" d="M453.682,760.393a207.063,207.063,0,0,1-23.3-27.807c-20.495-29.911-20.124-42.438-15.726-51.163a18.209,18.209,0,0,1,15.7-9.948c18.742-.858,88.077,9.863,95.071,10.562l-.477,1.352a33.714,33.714,0,0,1-36.852,22.133c-15.11-2.294-32.122-4.771-44.083-5.3,4.989,11.634,16.44,34.673,23.043,51.2Z" fill="#625853"/>
        </g>
        <path id="Path_55" data-name="Path 55" d="M539.093,575.515a6.821,6.821,0,0,1-.775,1.223,11.219,11.219,0,0,1-3.515,3.929,14.2,14.2,0,0,1-10.172,2.434,13.584,13.584,0,0,1-8.646-5.311,10.008,10.008,0,0,1-2.112-4.809c-.069-.207-.11-.416-.166-.624-2.962,0-9.694-.2-14.073,2.16-16.969,9.155-31.2,37.57-38.6,99.077,8.672,8.1,79.069,20.5,93.143,13.1C565.841,614.628,562.109,583.519,539.093,575.515Z" fill="#f5c679"/>
        <path id="Path_56" data-name="Path 56" d="M547.425,580.136c9.936,10.884,6.212,27.862,1.785,41.705-3.829,11.972-8.4,24.487-17.678,33.3-18.7,17.762-49.24,17.988-59.835-8.784a49.369,49.369,0,0,1-3.25-15.616,373.591,373.591,0,0,0-7.416,42.85c8.672,8.1,79.069,20.5,93.143,13.1C564.251,624.447,562.828,592.774,547.425,580.136Z" opacity="0.08"/>
        <g id="Group_21" data-name="Group 21">
          <path id="Path_57" data-name="Path 57" d="M500.045,771.391l-10.373,8.66L471.48,754.54l13.376-7.8Z" fill="#ceabaa"/>
          <path id="Path_58" data-name="Path 58" d="M473.06,795.8c12.048-8.082,8.229-17.337,9.176-21.618a1.842,1.842,0,0,1,1.982-1.482c3,.243,5.537.992,8.8-1.41,3.934-2.9,2.415-6.569,3.758-7.327s13.684,7.347,17.133,16.926l-21.286,18.053-19.881,10.059S466.765,800.028,473.06,795.8Z" fill="#698d49"/>
          <g id="Group_19" data-name="Group 19">
            <path id="Path_59" data-name="Path 59" d="M473.38,810.9c24.326-6.98,38.823-23.927,43.221-29.88,1.584-2.144-.43-4.157-1.619-4.959l-.015-.011a2.2,2.2,0,0,0-3.109.422c-3.839,5.621-17.358,23.205-40.176,29.8a2.146,2.146,0,0,0-1.361,2.868h0A2.631,2.631,0,0,0,473.38,810.9Z" fill="#5f7e42"/>
          </g>
          <g id="Group_20" data-name="Group 20">
            <path id="Path_60" data-name="Path 60" d="M494.859,772.438q-.623.5-1.345.991c-5.1,3.479-9.2,3.406-11.794,2.687a2.386,2.386,0,0,1-1.23-3.791l.183-.229a2.443,2.443,0,0,1,2.512-.8c1.453.352,4,.344,7.487-2.031,3.324-2.261,4.107-4.374,4.224-5.649a2.336,2.336,0,0,1,1.461-1.9l.244-.1A2.387,2.387,0,0,1,499.9,764C499.724,766.307,498.627,769.421,494.859,772.438Z" fill="#5f7e42"/>
          </g>
          <path id="Path_61" data-name="Path 61" d="M482.069,781.237s11.991-.67,5.788,8.966-10.442,1.973-10.442,1.973Z" fill="#5f7e42"/>
        </g>
        <g id="Group_22" data-name="Group 22">
          <path id="Path_62" data-name="Path 62" d="M479.127,766.281a207.146,207.146,0,0,1-23.3-27.807c-20.495-29.911-20.124-42.438-15.726-51.163a18.212,18.212,0,0,1,15.7-9.948c18.742-.858,88.077,9.863,95.071,10.563l-.476,1.351a33.715,33.715,0,0,1-36.852,22.133c-15.111-2.294-32.122-4.77-44.084-5.3,4.989,11.635,16.44,34.673,23.043,51.2Z" fill="#625853"/>
        </g>
        <path id="Path_63" data-name="Path 63" d="M552.5,616.145c-1.646-5.819-8.506-7.763-7.458-4.048s1.424,9.215-5.848,14.956-13.771,17.766-13.771,17.766l28.68-7.352s4-1.49,5.026-2.918c-.561-.21-1.019-2.63-4.082-3.033C548.521,630.657,554.145,621.964,552.5,616.145Z" fill="#da9d86"/>
        <path id="Path_64" data-name="Path 64" d="M550.332,697.442c-.1-.887-.23-1.771-.4-2.646-1.168-6.032-3.453-13.121-8.578-16.967a34.682,34.682,0,0,1-5.171-4.916,1.7,1.7,0,0,0-2.859.474c-1,2.408-.324,6.664,2.352,9.42,3.659,3.77-1.259,2.7-1.306,2.7-7.882-5.56-20.022-16.305-22.5-17.53-5.047-2.492-5.511,2.285-3.6,5.084a13.043,13.043,0,0,0-3.865-3.021c-4.3-2.373-6.266.427-4.273,4.688,1.257,2.689,2.194,4.375,2.194,4.375s-3.362-5.163-5.9-2.619c-2.57,2.57,2.061,9.049,2.061,9.049s-5.732-3.571-4.135,3.225a35.823,35.823,0,0,0,2.747,6.381c3.68,7.93,8.752,15.648,15.477,21.419,5.983,5.134,14.874,10.031,22.957,7.506C546,720.787,551.44,707.657,550.332,697.442Z" fill="#d9a187"/>
        <path id="Path_65" data-name="Path 65" d="M474.72,692.667c-1.183-2.778-2.562-5.41-3.835-8.042q-4.122,2-8.688,4.045c-29.95,13.343-47.815,13.632-54.547,9.451-21.391-13.281-40.043-47.671-49.438-68.762a13.2,13.2,0,0,0-16.584-6.992,34.392,34.392,0,0,0-16.621,12.84c.4,11.078,1.43,26.552,2.779,43.857,13.955,22.149,33.275,47.169,55.413,60.914,9.548,5.928,21.4,7.15,34.5,7.15,17.5,0,39.2-8.573,62.747-19.132.991-.444,1.959-.888,2.922-1.333-.2-5.129-.456-10.332-.749-15.553C479.866,705.019,477.344,698.828,474.72,692.667Z" fill="#382b22" opacity="0.1"/>
        <path id="Path_66" data-name="Path 66" d="M550.332,697.442c-.1-.887-.23-1.771-.4-2.646-1.014-5.24-2.877-11.272-6.708-15.288a21.545,21.545,0,0,1,1.605,8.343c-.152,8.918-7.612,15.639-15.806,17.669-12.157,3.012-26.612-2.93-33.412-13.4.493,1.036,1.029,2.054,1.476,3.018,3.68,7.93,8.752,15.648,15.477,21.419,5.983,5.134,14.874,10.031,22.957,7.506C546,720.787,551.44,707.657,550.332,697.442Z" fill="#cb8d78"/>
        <path id="Path_67" data-name="Path 67" d="M567.117,642.221s7.517-11.128-8.831-9.377c-2.885.308-5.52-.762-8.215-1.856-1.715-.7-3.176-2.02-4.957-2.546-1.922-.568-3.378.247-4.9,1.343a43.562,43.562,0,0,0-9.168,8.915c-1.277,1.672-2.421,3.461-3.778,5.02l-.321,22.044c1.309,1.833,6.261,4.92,8.156,5.762,6.478,2.88,16.219,4.2,23.261,4.078,17.107-.3,6.071-8.9,7.477-9.5,10.2-4.354,4.269-12.046,2.1-11.383l-.055.041.055-.041C579.55,646.042,567.117,642.221,567.117,642.221Z" fill="#da9d86"/>
        <path id="Path_68" data-name="Path 68" d="M527.265,643.72l-26.028,15.513s16.5,22.343,15.775,21.677,12.995-12.447,16.048-10.471-.183-19.886-.183-19.886Z" fill="#da9d86"/>
        <path id="Path_69" data-name="Path 69" d="M519.607,681.492l12.063-9.567-13.639-24.892L499.759,657.1Z" fill="#f2f2f2"/>
        <path id="Path_70" data-name="Path 70" d="M567.543,606.011s21.013,40.113,8.947,46.944c-14.437,8.173-27.434-41.632-27.434-41.632Z" fill="#cb8d78"/>
        <g id="Group_23" data-name="Group 23">
          <path id="Path_71" data-name="Path 71" d="M417.7,728.949c-13.1,0-24.955-1.223-34.5-7.151-24.352-15.119-45.3-43.882-59.438-67.459a34.538,34.538,0,0,1,17.867-50.151h0a13.2,13.2,0,0,1,16.584,6.992c9.395,21.09,28.047,55.48,49.438,68.762,6.732,4.18,24.6,3.891,54.547-9.452a281.01,281.01,0,0,0,35.146-18.661,4.839,4.839,0,0,1,6.579,1.353l18.122,26.339a5.979,5.979,0,0,1-1.587,8.362,275.448,275.448,0,0,1-40.008,21.934C456.9,720.375,435.2,728.949,417.7,728.949Z" fill="#e1703b"/>
        </g>
        <g id="Group_24" data-name="Group 24">
          <path id="Path_72" data-name="Path 72" d="M560.33,587.817c-10.242-11.321-21.215-12.154-21.277-12.365l-1.639,11.381,2.352,4.523A145.208,145.208,0,0,0,550.1,624.591c7.43-1.918,17.944-6.4,23.973-9.207-4.755-13.659-8.421-21.678-13.748-27.567" fill="#eed5a5"/>
        </g>
        <path id="Path_73" data-name="Path 73" d="M630.953,576.722c-3.292.6-9.491,2.388-9.491,2.388l-.34-.58a122.879,122.879,0,0,1,12.656-7.487c.931-.434,1.4-5.81-4.988-2.886-7.83,3.582-11.342,5.5-11.342,5.5l-.907-.8s9.925-6.042,14.112-8.935c1.138-.786,1.4-5.492-8.106-1.19-7.467,3.377-10.99,5.168-10.99,5.168l-.418-.434s6.754-5.879,11.167-9.1c.9-.658-.322-4.233-6.958-.253a69.7,69.7,0,0,0-5.983,4.369c-1.205.909-2.413,1.815-3.647,2.685-.743.524-3.619,3.644-4.572,2.869a.913.913,0,0,1-.261-.886c.247-1.254,1.3-2.475,1.734-3.7.545-1.548.762-3.472-.376-4.655a4.914,4.914,0,0,0-1.4-.922c-.985-.493-2.371-.866-3.029.017a2.626,2.626,0,0,0-.359,1.393,20.067,20.067,0,0,1-2.3,7.876c-.5.941-.65,1.964-1.1,2.909-1.644,3.476-3.8,5.987-3.991,10.02-.3,6.248,4.331,11.724,10.194,13.365,7.211,2.018,14.744-1.962,20.355-6.208,3.859-2.921,7.712-4.331,13.085-6.755C634.551,580.1,636.284,575.758,630.953,576.722Z" fill="#daa389"/>
        <path id="Path_74" data-name="Path 74" d="M634.371,577.366c-.143,2.529-7.32,4.822-10.095,5.773-3.43,1.176-6.453,3.089-9.792,4.46-5.063,2.08-10.736,2.61-15.7-.1a13.247,13.247,0,0,1-7.146-12.414c.013-.2.044-.39.067-.585a13.246,13.246,0,0,0-1.638,5.577c-.3,6.248,4.331,11.724,10.194,13.365,7.211,2.018,14.744-1.962,20.355-6.208,3.859-2.921,7.712-4.331,13.085-6.755A2.607,2.607,0,0,0,634.371,577.366Z" fill="#cb8d78"/>
        <path id="Path_75" data-name="Path 75" d="M607.044,567.54a19.5,19.5,0,0,1,8.593,6.455c4,5.052,3.626,7.489,3.626,7.489S611.2,570.971,607.044,567.54Z" fill="#fff" opacity="0.13"/>
        <path id="Path_76" data-name="Path 76" d="M513.707,572.357a11.838,11.838,0,0,0,10.254,10.068c7.883,1.314,15.092-6.973,15.092-6.973a32.307,32.307,0,0,1,6.015,1.7s-7.594,13.062-22.593,10.955c-14.933-2.1-14.933-15.584-14.933-15.584S511.495,571.378,513.707,572.357Z" fill="#eed5a5"/>
        <path id="Path_77" data-name="Path 77" d="M551.954,628.952c-.722-3.21,1.7-8.715.545-12.807-1.646-5.819-8.506-7.763-7.458-4.048s1.424,9.215-5.848,14.956a28.242,28.242,0,0,0-2.137,1.9Z" fill="#da9d86"/>
        <path id="Path_78" data-name="Path 78" d="M439.8,501.5c5.58.308,9.768,6.643,9.353,14.149s-5.274,13.342-10.854,13.035-9.768-6.644-9.354-14.15S434.215,501.19,439.8,501.5Z" fill="#d4927c"/>
        <path id="Path_79" data-name="Path 79" d="M369.869,446.707l18.545-1.924c24.425-2.536,47.1,22.477,49.636,46.9l3.477,33.494a44.778,44.778,0,0,1-39.8,49.018l-18.545,1.925a44.779,44.779,0,0,1-49.018-39.8l-3.477-33.495C328.153,478.4,345.444,449.243,369.869,446.707Z" fill="#daa389"/>
        <path id="Path_80" data-name="Path 80" d="M315.687,452.058a7.809,7.809,0,0,1,5.914.247c-2.2-3.858-4.074-8.045-3.8-12.656a7.282,7.282,0,0,1,7.754,5.691,10.971,10.971,0,0,1,.856-8.687,1.615,1.615,0,0,1,.725-.771c.622-.25,1.271.266,1.722.762,1.168,1.287,2.188,6.891,2.188,6.891,1.612-1.551,4.886-10.9,16.239-17.962,14.22-8.84,34.871-12.578,35.028-11.972a13.779,13.779,0,0,1-.5,8.044c8.5-9.62,20.676-11.674,33.506-12.1a23.3,23.3,0,0,1-.656,11.472s12.027-6.045,12.171-5.837c4.124,6,9.925,17.239,6.918,23.49a8.4,8.4,0,0,1,3.8-2.884c2.952,4.664,3.767,10.4,3.787,15.919a123.784,123.784,0,0,1-2.973,29.3,98.694,98.694,0,0,1,.808,21.5s-.063-.792-.206-1.989l.206,1.989c-.484.078-9.088-30.223-21.159-36.471-15.445-7.994-12.613,5.182-32.044,4.431-12.926-.5-32.062-8.458-40.443,13.282-2.514,6.522.372,18.521-1.359,24.781-1.483,5.359-6.245,8.057-11.882,9.694,0,0-3.117-13.68-3.177-20.73h0c-7.289-11.929-11.48-29.156-9.625-40.437.1-.588-.214-.585-.214-.585S315.075,453.542,315.687,452.058Z" fill="#522e1e"/>
        <path id="Path_81" data-name="Path 81" d="M340.334,474.231c5.453-7.542,11.865-16.585,21.987-16.649,8.027-.05,14.594,4.916,20.21,5.4,12.967,1.112,16.339-8.6,28.048-9.876,15.376-1.678,22.505,16.3,27.908,28.745a99.858,99.858,0,0,1,.686,20.654s-.063-.792-.206-1.989l.206,1.989c-.484.078-9.088-30.223-21.159-36.471-15.445-7.994-12.613,5.182-32.044,4.431-12.926-.5-32.062-8.458-40.443,13.282-2.514,6.522.372,18.521-1.359,24.781-1.483,5.359-6.245,8.057-11.882,9.694l-1.029-4.9a76.336,76.336,0,0,1-2.148-15.827S335.47,480.958,340.334,474.231Z" opacity="0.07"/>
        <path id="Path_82" data-name="Path 82" d="M325.057,511.315c5.153-2.1,11.621,1.817,14.446,8.75s.937,14.255-4.216,16.355-11.622-1.817-14.447-8.75S319.9,513.415,325.057,511.315Z" fill="#daa389"/>
        <path id="Path_83" data-name="Path 83" d="M333.045,527.627a22.259,22.259,0,0,0,4.453-.463c6.814,27.1,26.131,44.83,56.211,42.52,33.984-2.609,41.3-20.137,47.937-37.517A44.773,44.773,0,0,1,401.729,574.2l-18.546,1.925a44.769,44.769,0,0,1-48.96-39.427c-4.952,1.22-10.747-2.556-13.383-9.024a16.867,16.867,0,0,1-1.244-7.8A16.8,16.8,0,0,0,333.045,527.627Z" fill="#d4927c"/>
        <path id="Path_84" data-name="Path 84" d="M373.619,536.373l36.757-3.748c2.17-.222,3.86,2.146,3.191,4.489-3.106,10.88-10.512,18.894-19.693,19.831s-17.791-5.445-22.648-15.514C370.181,539.264,371.449,536.594,373.619,536.373Z" fill="#fff"/>
        <path id="Path_85" data-name="Path 85" d="M414.431,498.012c3.355-1.2,7.348,2.343,8.919,7.915s.125,11.062-3.23,12.262-7.349-2.343-8.92-7.915S411.075,499.212,414.431,498.012Z" fill="#391f17"/>
        <path id="Path_86" data-name="Path 86" d="M360.567,502.74c3.334-1.28,7.378,2.294,9.031,7.983s.292,11.338-3.042,12.618-7.378-2.294-9.032-7.983S357.233,504.02,360.567,502.74Z" fill="#391f17"/>
        <path id="Path_87" data-name="Path 87" d="M423.35,505.927c1.571,5.572.125,11.062-3.23,12.262-2.947,1.054-6.383-1.553-8.241-5.976,1.358-1.515,7.4-9.064,8.926-11.435A14.906,14.906,0,0,1,423.35,505.927Z" fill="#fff" opacity="0.08"/>
        <path id="Path_88" data-name="Path 88" d="M369.6,510.723c1.654,5.689.292,11.338-3.042,12.618-2.7,1.038-5.846-1.155-7.826-5.046,2.9-4.018,5.776-8.051,8.774-11.983A15.642,15.642,0,0,1,369.6,510.723Z" fill="#fff" opacity="0.08"/>
        <path id="Path_89" data-name="Path 89" d="M333.355,446.168a6.486,6.486,0,0,1,.17.912C333.452,446.779,333.4,446.474,333.355,446.168Z" fill="#432519"/>
        <path id="Path_90" data-name="Path 90" d="M431.87,424.154c2.3,5.158,3.7,10.744,1.882,14.517a8.375,8.375,0,0,1,2.293-2.11,8.179,8.179,0,0,1-.721,2.507,8.645,8.645,0,0,1,2.754-2.344c2.5,4.486,3.241,9.822,3.26,14.982.007,1.82-.018,3.553-.064,5.223-14.708-12.371-54.111-32.9-120.473,19.8-.4-1.716-.747-3.426-1.015-5.111C332.086,457.516,372.86,417.246,431.87,424.154Z" fill="#fff" opacity="0.1"/>
        <path id="Path_91" data-name="Path 91" d="M495.027,500.867c4.578.55,7.689,5.988,6.949,12.146s-5.05,10.7-9.628,10.154-7.689-5.988-6.95-12.146S490.449,500.317,495.027,500.867Z" fill="#d2917c"/>
        <path id="Path_92" data-name="Path 92" d="M497.946,497.82a40.708,40.708,0,0,1,50.8-26.752l7.863,2.438a40.717,40.717,0,0,1,26.753,50.8l-4.37,14.091a40.717,40.717,0,0,1-50.8,26.753l-7.862-2.438a40.717,40.717,0,0,1-26.753-50.8Z" fill="#daa389"/>
        <path id="Path_93" data-name="Path 93" d="M513.306,476.734a40.592,40.592,0,0,1,35.44-5.666l7.863,2.438a40.717,40.717,0,0,1,26.753,50.8l-.156.5c-8.964-3.055-18.018-5.842-27.182-8.252-19.311-5.077-40.357-9.36-60.855-9.778l2.777-8.956A40.356,40.356,0,0,1,513.306,476.734Z" opacity="0.11"/>
        <path id="Path_94" data-name="Path 94" d="M517.849,529.99l26.83,8.319c1.585.492,2.036,2.851.848,4.47-5.517,7.518-13.156,11.492-19.858,9.414s-10.753-9.677-11.048-19C514.557,531.189,516.265,529.5,517.849,529.99Z" fill="#fff"/>
        <path id="Path_95" data-name="Path 95" d="M587.554,529.11c3.994,2.3,4.719,8.526,1.62,13.9s-8.85,7.86-12.843,5.556-4.719-8.527-1.62-13.9S583.56,526.8,587.554,529.11Z" fill="#daa389"/>
        <g id="Group_25" data-name="Group 25">
          <path id="Path_96" data-name="Path 96" d="M560.953,519.47c3.309.716,4.828,5.274,3.393,10.18s-5.28,8.3-8.588,7.586-4.828-5.274-3.393-10.18S557.645,518.754,560.953,519.47Z" fill="#3d2319"/>
          <path id="Path_97" data-name="Path 97" d="M514.107,508.014c3.168.686,4.622,5.05,3.248,9.748s-5.055,7.949-8.223,7.264-4.623-5.05-3.249-9.748S510.939,507.328,514.107,508.014Z" fill="#3d2319"/>
          <path id="Path_98" data-name="Path 98" d="M564.346,529.65c-1.435,4.906-5.28,8.3-8.588,7.586-2.257-.488-3.651-2.781-3.873-5.735,4.031-3.17,8.071-6.317,12.172-9.345A10.669,10.669,0,0,1,564.346,529.65Z" fill="#fff" opacity="0.1"/>
          <path id="Path_99" data-name="Path 99" d="M517.355,517.762c-1.373,4.7-5.055,7.949-8.223,7.263-2.113-.457-3.447-2.558-3.7-5.3,3.946-2.918,7.849-5.912,11.681-9.027A10.234,10.234,0,0,1,517.355,517.762Z" fill="#fff" opacity="0.1"/>
        </g>
        <path id="Path_100" data-name="Path 100" d="M588.007,508.761a3.007,3.007,0,0,1,.552-1.259C588.378,507.922,588.218,508.342,588.007,508.761Z" fill="#382715" opacity="0.1"/>
        <path id="Path_101" data-name="Path 101" d="M573.756,539.614c5.014,3.44,11.326,3.745,16.237-.346.3-.254.581-.527.857-.8a14.383,14.383,0,0,1-1.676,4.542c-3.1,5.372-8.85,7.86-12.843,5.556a6.329,6.329,0,0,1-1.416-1.134,40.756,40.756,0,0,1-46.723,17.719l-7.862-2.438a40.422,40.422,0,0,1-23.771-19.8,62.476,62.476,0,0,0,36.849,18.406C551.85,563.553,566.29,554.113,573.756,539.614Z" fill="#d2917c"/>
        <path id="Path_102" data-name="Path 102" d="M558.187,458.757c34.624,5.3,42.157,38.529,41.833,69.868a281.994,281.994,0,0,0-45.19-21.275c-19.894-7.2-49.3-14.341-70.8-16.321C512.677,445.716,558.187,458.757,558.187,458.757Z" fill="#522e1e"/>
        <path id="Path_103" data-name="Path 103" d="M528.155,468.969c.709.334-8.952,7.739-18.661,25.971-1.455-.293-2.9-.579-4.345-.849C510.794,483.764,518.573,474.648,528.155,468.969Z" fill="#fff" opacity="0.07"/>
        <path id="Path_104" data-name="Path 104" d="M523.466,498.072c-.9-.22-1.789-.447-2.691-.66a71.064,71.064,0,0,1,8.432-11.636A108.8,108.8,0,0,0,523.466,498.072Z" fill="#fff" opacity="0.07"/>
        <path id="Path_105" data-name="Path 105" d="M573.651,478.821a35.1,35.1,0,0,1,3.813,7.837,71.367,71.367,0,0,1,2.933,19.429,117.554,117.554,0,0,1-.326,11.995c-3.229-1.566-6.48-3.1-9.783-4.537C575.718,492.9,573.341,478.82,573.651,478.821Z" fill="#fff" opacity="0.07"/>
        <path id="Path_106" data-name="Path 106" d="M552.632,476.381c1.025-2.009-3.031,14.685-1.752,29.589q-4.1-1.4-8.579-2.763c1.025-3.95,2.206-7.857,3.6-11.691A100.366,100.366,0,0,1,552.632,476.381Z" fill="#fff" opacity="0.07"/>
        <path id="Path_107" data-name="Path 107" d="M504.181,475.819a92.67,92.67,0,0,0-10.464,16.374q-1.181-.17-2.341-.324c.737-1.461,1.54-2.9,2.427-4.3A51.449,51.449,0,0,1,504.181,475.819Z" fill="#fff" opacity="0.07"/>
        <path id="Path_108" data-name="Path 108" d="M497.552,499.091c-9.453-3.215-13.518-8.062-13.518-8.062,73.532,6.047,115.986,37.6,115.986,37.6C559.068,506.1,497.552,499.091,497.552,499.091Z" fill="#422419"/>
        <path id="Path_109" data-name="Path 109" d="M192.721,1139.44c8.119-.4,16.241-.37,24.367-.007a14.744,14.744,0,0,0,1.176-3.741c3.225-18.446,6.775-45.93,6.775-45.93l-21.908-1.377s2.786,12.282.83,18.072-20.71,16.76-37.935,26.54c-4.906,2.785-6.428,6.524-5.2,9.591C171.463,1141.913,182.058,1139.962,192.721,1139.44Z" fill="#c98c78"/>
        <path id="Path_110" data-name="Path 110" d="M182.814,1124.122a2.3,2.3,0,0,0-2.4-.071c-4.671,2.876-9.532,6.189-14.389,8.946-9.923,5.634-6.049,15.179,6.538,15.14l53.27-.167c.754-4.316-6.043-21.4-5.3-26.241C208.238,1127.2,193.973,1130.929,182.814,1124.122Z" fill="#5a7075"/>
        <path id="Path_111" data-name="Path 111" d="M252.979,1134.744c-2.29-13.89-10.215-37.88-10.215-37.88s-22.055-1.933-23.253,3.835c-2.043,9.832-11.222,21.186-13.629,34.71-1.117,6.275,2.616,12.615,7.338,12.6l32.257-.1C250.5,1147.892,254.116,1141.637,252.979,1134.744Z" fill="#d9a187"/>
        <path id="Path_112" data-name="Path 112" d="M248.786,1118.436c-7.418,5.178-16.4,6.728-25.863,4.853a34.348,34.348,0,0,1-10.712-4.032c-.491-.288-.953-.574-1.4-.86a1.015,1.015,0,0,0-1.5.448c-4.07,10.4-4.4,11.526-5.3,16.57-1.117,6.275,2.616,12.615,7.338,12.6l35.995-.113c5.025-.015,8.639-6.271,7.5-13.164-.769-4.667-2.034-8.827-4.665-15.858A.936.936,0,0,0,248.786,1118.436Z" fill="#657b81"/>
        <g id="Group_26" data-name="Group 26">
          <path id="Path_113" data-name="Path 113" d="M189.917,927.963c-4.061-16.13,10.24-47.628,26.442-141.978-8.9-2.2-31.256-12.711-40.046-15.3-4.39-1.3-27.452-9.221-31.87-10.616-16.016,62.173-19.622,149.258-1.347,190.5,13.081,29.523,20.417,44.047,34.408,70.771,8.469,16.176,22.4,47.287,26.512,80.4l10.242,2.491,21.354-1.8c.161-13.976-10.352-87.231-22.923-118.4C200.03,952.632,196.665,954.768,189.917,927.963Z" fill="#5c7074"/>
        </g>
        <path id="Path_114" data-name="Path 114" d="M207.216,803.338c-24.705.208-48.851,4.284-72.7,10.017a429.654,429.654,0,0,1,9.922-53.291c4.418,1.394,27.48,9.32,31.87,10.616,8.79,2.594,31.146,13.1,40.046,15.3q-1.56,9.092-3.094,17.412C211.25,803.345,209.233,803.321,207.216,803.338Z" opacity="0.1"/>
        <path id="Path_115" data-name="Path 115" d="M169,935.23c8.21-1.252,15.212-4.523,20.47-9.658a21.662,21.662,0,0,0,.448,2.391c6.748,26.8,10.113,24.669,22.772,56.063,12.57,31.173,23.084,104.427,22.923,118.4l-21.354,1.8-10.242-2.491c-4.107-33.109-18.043-64.22-26.512-80.4-13.991-26.724-21.327-41.248-34.408-70.771-3.819-8.62-6.676-19.249-8.669-31.227C142.222,931.013,154.56,937.434,169,935.23Z" opacity="0.1"/>
        <g id="Group_27" data-name="Group 27">
          <path id="Path_116" data-name="Path 116" d="M245.089,1101.944l-27.111,2.28c-.768-81.112-7.111-95.134-11.585-165.657-2.962-46.69,1-62.955-5.867-158.126-1.218-16.882,73.009-21.44,76.427-4.73,14.468,70.737-9.766,103.235-17.841,174.423C255.589,981.185,258.433,1015.718,245.089,1101.944Z" fill="#657b81"/>
        </g>
        <g id="Group_28" data-name="Group 28" opacity="0.1">
          <path id="Path_117" data-name="Path 117" d="M280.506,821.123a104.442,104.442,0,0,0-22.549-10.255,159.262,159.262,0,0,0-50.741-7.53c-1.717.014-3.428.062-5.139.113-.444-7.13-.956-14.768-1.551-23.01-1.218-16.883,73.009-21.44,76.427-4.73a205.971,205.971,0,0,1,4.464,46.01C281.113,821.522,280.81,821.312,280.506,821.123Z"/>
          <path id="Path_118" data-name="Path 118" d="M209.04,923.289c5.6,12.537,16.014,23.3,30.423,23.953a27.19,27.19,0,0,0,21.131-8.5c-.533,3.7-1.038,7.472-1.482,11.391-3.523,31.051-.679,65.584-14.023,151.81l-27.111,2.28c-.768-81.112-7.111-95.134-11.585-165.658-.62-9.778-.935-18.219-1.112-26.334A65.621,65.621,0,0,0,209.04,923.289Z"/>
        </g>
        <path id="Path_119" data-name="Path 119" d="M151.53,599.9s16.4,1.7,25.533.547,21.32-2.786,21.32-2.786v15.7s-31.2,7.978-44.783,1.9S151.53,599.9,151.53,599.9Z" fill="#daa389"/>
        <path id="Path_120" data-name="Path 120" d="M151.53,599.9s16.943,1.205,26.076.048c.907-.115,1.856-.229,2.817-.342q.205,8.577.7,17.075c-9.465,1.165-20.382,1.546-27-1.417C140.545,609.187,151.53,599.9,151.53,599.9Z" fill="#e5bd6c"/>
        <path id="Path_121" data-name="Path 121" d="M180.423,599.608q.205,8.577.7,17.075c-1.695.208-3.438.39-5.194.534-.169-5.7-.449-11.386-1.073-17,.97-.069,1.892-.157,2.746-.265C178.513,599.835,179.462,599.721,180.423,599.608Z" fill="#eed5a5"/>
        <path id="Path_122" data-name="Path 122" d="M170.9,619.01l12.942,5.5s-39.12,65.857-51.785,73.5-33.435-6.631-23.781-22.688S170.9,619.01,170.9,619.01Z" fill="#c98c78"/>
        <path id="Path_123" data-name="Path 123" d="M253.687,457.969s-8.3-10.25-18.565-7.2c-14.845,4.413-78.007,28.6-67.316,95.258,11.263,70.216,62.2,55.96,62.2,55.96s59.675,7.5,64.213-59.238S266.16,453.656,253.687,457.969Z" fill="#3f302a"/>
        <path id="Path_124" data-name="Path 124" d="M226.666,558.86c-5.426.16-9.712,5.253-9.524,11.318l.792,25.621c0,.124.021.244.028.366l19.683-1.564-.773-25.006C236.685,563.53,232.092,558.7,226.666,558.86Z" fill="#d9a187"/>
        <path id="Path_125" data-name="Path 125" d="M226.666,558.86c-5.426.16-9.711,5.253-9.524,11.318l.467,13.535c3.28,1.792,15.957-.043,19.582-3.784l-.319-10.334C236.685,563.53,232.092,558.7,226.666,558.86Z" fill="#c98c78"/>
        <path id="Path_126" data-name="Path 126" d="M207.551,591.55a318.971,318.971,0,0,1,34.388-.286c-2.321,5.981-4.817,11.885-7.269,17.809q-6.126-.685-12.255-1.349c-4.916-.533-9.908-1.322-14.918-2.109A79.739,79.739,0,0,0,207.551,591.55Z" fill="#d9a187"/>
        <path id="Path_127" data-name="Path 127" d="M190.6,594.623a13.549,13.549,0,0,1,8.827-3.781l9.013.085s-8.4,20.29-17.989,43.109c-4.513-1.569-20.641-13.613-25.17-15.026C184.726,600.813,182.909,602.372,190.6,594.623Z" fill="#5f7e42"/>
        <path id="Path_128" data-name="Path 128" d="M172.648,637.453c-1.084-8.679,35.795-46.526,35.795-46.526.855.048,3.127-.155,4.1,0-2.051,5.817-4.147,12.954,6.036,13.1,15.378.22,21.949-8.834,22.839-13.188,5.38.379,7.219,0,14.644,1.49,0,0-12.089,75.783-10.353,88.6,1.622,11.972,28.132,46.783,41.6,105.688-54.038,17.83-126.7,16.781-153.215-2.1,7.019-47.2,41.769-131.236,41.769-131.236A92.721,92.721,0,0,1,172.648,637.453Z" fill="#698d49"/>
        <path id="Path_129" data-name="Path 129" d="M175.86,653.282a82.922,82.922,0,0,1-2.5-10.951c13.877,4.908,29.245,5.879,43.339,1.529a52.21,52.21,0,0,0,24.019-15.505,46.154,46.154,0,0,0,5.726-8.487,59.8,59.8,0,0,0,5.434-10.673c.6-1.131,1.209-2.254,1.865-3.355.115-.193.213-.393.322-.589-3.355,22.216-9.644,66.192-8.359,75.676,1.622,11.972,28.132,46.783,41.6,105.688-54.038,17.83-126.7,16.781-153.215-2.1C141.11,737.322,175.86,653.282,175.86,653.282Z" opacity="0.1"/>
        <path id="Path_130" data-name="Path 130" d="M247.151,460.729a49.412,49.412,0,0,0-16.194-.222c-11.907,1.853-22.232,8.03-30.562,16.568A58.826,58.826,0,0,0,193.931,485l-.261.386c-16.734,24.945-16.991,67.286,9.762,85.751a43.936,43.936,0,0,0,19.323,7.584c27.437,3.637,55.243-19.858,61.473-47.152C290.649,503.439,278.975,466.357,247.151,460.729Z" fill="#d9a187"/>
        <path id="Path_131" data-name="Path 131" d="M247.151,460.729a49.412,49.412,0,0,0-16.194-.222c-11.907,1.853-22.232,8.03-30.562,16.568A58.826,58.826,0,0,0,193.931,485l-.261.386c-10.071,15.012-14.161,36.321-10,54.939a31.664,31.664,0,0,1,9.247-16.74c22.65-15.531,44.139-13.308,57.2-33.878,4.451,19.787,27.624,37.413,34.115,41.862C290.649,503.439,278.975,466.357,247.151,460.729Z" fill="#ba8478"/>
        <path id="Path_132" data-name="Path 132" d="M180.047,530.053c.274,1.2-.353-1.184,0,0Z" fill="#ba8478"/>
        <path id="Path_133" data-name="Path 133" d="M241.576,547.78,208.86,542.9a2.835,2.835,0,0,0-3.074,3.533c2.25,9.094,8.489,16.044,16.66,17.264s16.188-3.6,21.026-11.637A2.826,2.826,0,0,0,241.576,547.78Z" fill="#fff"/>
        <path id="Path_134" data-name="Path 134" d="M206.7,515.056c-3.507-1.4-7.919,1.471-9.853,6.4s-.659,10.059,2.848,11.454,7.918-1.472,9.853-6.4S210.205,516.45,206.7,515.056Z" fill="#341a13"/>
        <path id="Path_135" data-name="Path 135" d="M196.845,521.459c-1.934,4.931-.659,10.059,2.848,11.454,2.614,1.039,5.728-.293,7.946-3.078q-4.4-5.889-8.849-11.743A12.886,12.886,0,0,0,196.845,521.459Z" fill="#fff" opacity="0.14"/>
        <path id="Path_136" data-name="Path 136" d="M257.252,521.836c-3.542-1.409-8,1.486-9.951,6.467s-.666,10.16,2.876,11.569,8-1.487,9.952-6.467S260.794,523.244,257.252,521.836Z" fill="#341a13"/>
        <path id="Path_137" data-name="Path 137" d="M247.3,528.3c-1.954,4.98-.666,10.16,2.876,11.569,2.784,1.107,6.115-.469,8.369-3.6q-4.587-5.781-8.941-11.738A12.743,12.743,0,0,0,247.3,528.3Z" fill="#fff" opacity="0.14"/>
        <path id="Path_138" data-name="Path 138" d="M260.382,455.525S242.717,445.479,232.2,447.9c-21.915,5.043-79.452,28.166-69.2,97.372,3.26,22.014,12.919,32.527,21.011,41.324-10.168-16.1-8.295-36.315-2.341-52.946,12.172-37.483,56.144-16.866,69.719-53.2,3.574,28.727,26.483,29.967,37.281,55.579,2.628,6.233,2.883,14.657,3.392,21.042a100.269,100.269,0,0,0,2.585-16.8C299.644,470.877,278.4,453.361,260.382,455.525Zm-58.3,48c9.377-10.257,26.776-10.059,34.638-22.556C234.068,496.344,212.976,495.509,202.083,503.525Z" fill="#46342d"/>
        <path id="Path_139" data-name="Path 139" d="M232.819,488.789c-5.535,5.809-15.56,7.663-23.813,11.04,3.558,2.017,7.189,3.912,10.893,5.641,8.748-2.576,17.292-5.6,23.8-12.442q-2.613-.846-5.155-1.814C236.585,490.463,234.678,489.65,232.819,488.789Z" fill="#e9c696" opacity="0.12"/>
        <path id="Path_140" data-name="Path 140" d="M200.988,460.76a88.894,88.894,0,0,0-20.5,17.009c4.256,6.112,11.453,11.342,17.588,15.374,3.106,2.04,6.277,4.011,9.51,5.883,7.057-4.458,15.938-6.557,22.742-11.439C218.073,481.41,206.47,471.962,200.988,460.76Z" fill="#e9c696" opacity="0.12"/>
        <path id="Path_141" data-name="Path 141" d="M280.654,497.961a97.342,97.342,0,0,1-24.266-1.706c4.354,7.736,10.742,12.856,17.038,18.85a95.633,95.633,0,0,0,21.665-5.138q-.412-7.538-1.369-13.865A86.929,86.929,0,0,1,280.654,497.961Z" fill="#e9c696" opacity="0.12"/>
        <path id="Path_142" data-name="Path 142" d="M288.917,529.228c-4.6-2.458-11.157.83-14.634,7.344s-2.563,13.788,2.042,16.246,11.157-.83,14.634-7.344S293.522,531.686,288.917,529.228Z" fill="#d9a187"/>
        <path id="Path_143" data-name="Path 143" d="M278.415,547.177a11.587,11.587,0,0,1-4.364-3.321c-8.937,15.009-23.991,28.365-40.7,31.554a48.983,48.983,0,0,1-26.922-2.377,43.368,43.368,0,0,0,16.328,5.692C242.933,581.4,263.3,569.393,275.147,552a6.73,6.73,0,0,0,1.178.819c4.541,2.424,10.969-.746,14.481-7.08A12.646,12.646,0,0,1,278.415,547.177Z" fill="#c98c78"/>
        <path id="Path_144" data-name="Path 144" d="M117.359,497.124c51.607-9.593,53.18,39.779,53.18,39.779l-77.4,16.633S73.885,505.2,117.359,497.124Z" fill="#5f3730"/>
        <path id="Path_145" data-name="Path 145" d="M138.4,580.995l1.321,0a5.878,5.878,0,0,1,5.876,5.847l1.377,14.11c.008,3.224-3.964,5.879-7.188,5.887l-1.321,0c-3.225.009-9.833-3.2-9.841-6.428V586.2C128.62,582.976,135.179,581,138.4,580.995Z" fill="#d9a187"/>
        <path id="Path_146" data-name="Path 146" d="M138.4,580.995l1.321,0a5.879,5.879,0,0,1,5.877,5.847l.872,8.948a33.823,33.823,0,0,1-8.6,1.777,34.707,34.707,0,0,1-9.248-.539V586.2C128.62,582.976,135.179,581,138.4,580.995Z" fill="#d2917c"/>
        <path id="Path_147" data-name="Path 147" d="M129.716,599.562c.006.02,3.372-.525,3.379-.505l18.23.945s7.559.618,13.959,11.845H104.992a7.222,7.222,0,0,0-.359-1.832,22.878,22.878,0,0,1,3.169-4.753C113.25,599.082,124.081,599.816,129.716,599.562Z" fill="#d9a187"/>
        <path id="Path_148" data-name="Path 148" d="M123.712,598.781a16.1,16.1,0,0,0,6.144,6.431A15.187,15.187,0,0,0,147.776,603a14.345,14.345,0,0,0,2.365-3.062l1.184.061s15.135,1.207,20.705,32.008l11.815,36.826c-19.453,11.6-61.1,7.676-72.214,6.589.338-1.141-1.2-2.831-1.419-4.031-2.752-15.112-4.634-59.5-5.579-61.379a22.878,22.878,0,0,1,3.169-4.753C111.605,600.949,118.649,599.219,123.712,598.781Z" fill="#e5bd6c"/>
        <path id="Path_149" data-name="Path 149" d="M107.711,664.194H184.1l6.5,4.688c-21.679,12.921-77.257,11.685-80.655,11.541-.282-.012-2.793-8.15-3.666-14.593A1.441,1.441,0,0,1,107.711,664.194Z" fill="#49362a"/>
        <path id="Path_150" data-name="Path 150" d="M119.187,509.929l7.062-1.781a36.015,36.015,0,0,1,43.607,26.045l3.191,12.656A36.021,36.021,0,0,1,147,590.456l-7.062,1.781a36.022,36.022,0,0,1-43.607-26.046l-3.191-12.655A36.021,36.021,0,0,1,119.187,509.929Z" fill="#daa389"/>
        <path id="Path_151" data-name="Path 151" d="M119.187,509.929l7.062-1.781a36.056,36.056,0,0,1,41.634,20.315,15.827,15.827,0,0,1-12.227-6.832c.4,2.913.6,4.37,1,7.282-3.112-1.056-7.681-1.913-10.794-2.969a5.576,5.576,0,0,1,2.056,4.169c-13.307.343-26.814-.771-38.209-8.109-.057,10.394-3.426,18.276-9.908,25.1-1.456.2-1.856-2.713-3.513-3.969a28.679,28.679,0,0,1-2.629,12.446l-.516-2.046A36.021,36.021,0,0,1,119.187,509.929Z" opacity="0.09"/>
        <path id="Path_152" data-name="Path 152" d="M124.712,562.73l26.494-6.68c1.565-.394,3.1,1.2,2.9,3.022-.917,8.469-5.348,15.246-11.965,16.915s-13.732-2.2-18.555-9.219C122.551,565.256,123.148,563.125,124.712,562.73Z" fill="#5f3730"/>
        <g id="Group_29" data-name="Group 29">
          <path id="Path_153" data-name="Path 153" d="M238.547,716.71l-7.581,3.679-6.087-10.208,8.077-5.031Z" fill="#bbb5a2"/>
          <path id="Path_154" data-name="Path 154" d="M232.493,717.157l.077-.057a7.657,7.657,0,0,0,3-4.637,7.8,7.8,0,0,0,.11-1.94c21.169-14.741,26.5,1.676,26.5,1.676l-26.605,19.735s-7.3-8.11-6.128-13.691A5.8,5.8,0,0,0,232.493,717.157Z" fill="#564131"/>
          <path id="Path_155" data-name="Path 155" d="M263.615,712.854l-27.5,21.136-2.913-3.563,28.827-20.57Z" fill="#efe8da"/>
          <path id="Path_156" data-name="Path 156" d="M229.392,717.75a6.091,6.091,0,0,0,4.558-1.951c1.848-2.105,1.415-5.669,1.415-5.669l1.426-.972a.422.422,0,0,1,.649.256,9.127,9.127,0,0,1-1.42,7.293,10.045,10.045,0,0,1-6.683,4.472.44.44,0,0,1-.467-.575Z" fill="#efe8da"/>
          <path id="Path_157" data-name="Path 157" d="M253.961,703.709c-.3,3.824-2.04,10.855-7.456,11.724-6.076.975-7.578-5.24-7.843-7.831C245.071,703.8,250.472,703.023,253.961,703.709Z" fill="#efe8da"/>
        </g>
        <path id="Path_158" data-name="Path 158" d="M151.956,567.073c-2.085,4.522-5.474,7.82-9.812,8.913-6.159,1.553-12.747-1.692-17.518-7.81C133.57,563.737,144.259,561.675,151.956,567.073Z" fill="#834d45"/>
        <g id="Group_30" data-name="Group 30">
          <path id="Path_159" data-name="Path 159" d="M111.793,543.511c2.879-.463,6.029,2.636,7.036,6.922a11.236,11.236,0,0,1,.3,2.88,1.548,1.548,0,0,1-1.2,1.453q-3.2.756-6.394,1.531a1.554,1.554,0,0,1-1.686-.68,11.664,11.664,0,0,1-1.448-3.506C107.4,547.825,108.914,543.975,111.793,543.511Z" fill="#3d2319"/>
          <path id="Path_160" data-name="Path 160" d="M155.278,534.815c2.878-.463,6.029,2.636,7.036,6.922a11.436,11.436,0,0,1,.309,2.473,1.488,1.488,0,0,1-1.233,1.481q-3.447.611-6.883,1.26a1.487,1.487,0,0,1-1.6-.772,11.868,11.868,0,0,1-1.023-2.765C150.882,539.128,152.4,535.278,155.278,534.815Z" fill="#3d2319"/>
        </g>
        <g id="Group_31" data-name="Group 31" opacity="0.08">
          <path id="Path_161" data-name="Path 161" d="M111.187,547.485c2.266,2.383,4.461,4.832,6.62,7.312q-3.135.741-6.269,1.5a1.554,1.554,0,0,1-1.686-.68,11.664,11.664,0,0,1-1.448-3.506,9.025,9.025,0,0,1,.74-6.726C109.826,546.084,110.514,546.777,111.187,547.485Z" fill="#fff"/>
          <path id="Path_162" data-name="Path 162" d="M162.044,545.376a1.483,1.483,0,0,1-.654.315q-3.447.611-6.883,1.259a1.485,1.485,0,0,1-1.6-.771,11.824,11.824,0,0,1-1.023-2.765c-.739-3.146-.115-6.05,1.4-7.56C156.257,538.988,159.194,542.145,162.044,545.376Z" fill="#fff"/>
        </g>
        <g id="Group_32" data-name="Group 32" opacity="0.08">
          <path id="Path_163" data-name="Path 163" d="M111.187,547.485c2.266,2.383,4.461,4.832,6.62,7.312-1.185.28-2.37.567-3.556.851-1.119-1.282-2.227-2.573-3.291-3.9-.3-.379-1.535-1.769-2.8-3.336a7.2,7.2,0,0,1,.988-3.025C109.826,546.084,110.514,546.777,111.187,547.485Z" fill="#fff"/>
          <path id="Path_164" data-name="Path 164" d="M162.044,545.376a1.483,1.483,0,0,1-.654.315c-.727.129-1.452.267-2.178.4-2.369-2.726-4.747-5.444-7.186-8.106a5.5,5.5,0,0,1,1.268-2.129C156.257,538.988,159.194,542.145,162.044,545.376Z" fill="#fff"/>
        </g>
        <path id="Path_165" data-name="Path 165" d="M89.349,538.444a2.668,2.668,0,0,1,.427,1.139C89.609,539.2,89.488,538.824,89.349,538.444Z" fill="#382715" opacity="0.1"/>
        <path id="Path_166" data-name="Path 166" d="M140.534,564.955c-5.4,1.208-7.554-2.1-8.349-4.109l12.944-3.264C145.721,559.256,146.606,563.6,140.534,564.955Z" fill="#fff"/>
        <path id="Path_167" data-name="Path 167" d="M145.327,558.238c-9.978,1.99-10.334,5.872-10.365,6.061a7.081,7.081,0,0,1-2.777-3.453l12.944-3.264C145.2,557.769,145.264,557.993,145.327,558.238Z" fill="#472c21" opacity="0.09"/>
        <path id="Path_168" data-name="Path 168" d="M87.873,553.71c4.108-1.875,9.482,1.084,12,6.61s1.237,11.524-2.87,13.4-9.482-1.084-12-6.609S83.766,555.585,87.873,553.71Z" fill="#daa389"/>
        <path id="Path_169" data-name="Path 169" d="M95.03,566.951a14.965,14.965,0,0,0,4.576-1.469,56.013,56.013,0,0,0,9.754,12.944c10.03,9.683,24.314,12.6,37.774,10.158a64.536,64.536,0,0,0,10.723-2.9A35.59,35.59,0,0,1,147,590.456l-7.062,1.781a36.051,36.051,0,0,1-41.307-19.615,6.2,6.2,0,0,1-1.626,1.1c-4.108,1.875-9.482-1.084-12-6.609a13.727,13.727,0,0,1-1.279-6.235,10.9,10.9,0,0,0,1.295,2.132A10.748,10.748,0,0,0,95.03,566.951Z" fill="#d2917c"/>
        <path id="Path_170" data-name="Path 170" d="M151.076,514.648c-7.314-6.22-12.883-12.135-12.883-12.135C145.692,505.513,149.321,510.4,151.076,514.648Z" fill="#5f3730"/>
        <path id="Path_171" data-name="Path 171" d="M140.312,520.51c-16.052-4.96-24.511-14.923-24.511-14.923C129.726,507.836,137.048,515.7,140.312,520.51Z" fill="#5f3730"/>
        <path id="Path_172" data-name="Path 172" d="M146.321,503.252c17.013,6.011,20.14,22.351,20.14,22.351a92.829,92.829,0,0,1-15.385-10.955c-1.755-4.247-5.384-9.135-12.883-12.135,0,0,5.569,5.915,12.883,12.135a20.4,20.4,0,0,1,1.61,8.319,61.335,61.335,0,0,1-12.374-2.457c-3.264-4.809-10.586-12.674-24.511-14.923,0,0,8.459,9.963,24.511,14.923a23,23,0,0,1,2.179,3.856c-28.945,3.974-40.511-10.019-40.511-10.019s-10.332,1.272-3.894-5.4S129.308,497.241,146.321,503.252Z" fill="#5f3730"/>
        <path id="Path_173" data-name="Path 173" d="M99.664,513.89l6.133-.842s.408,11.81-9.337,27.081c0,0-4.347-1.731-4.512-11.04S99.664,513.89,99.664,513.89Z" fill="#5f3730"/>
        <path id="Path_174" data-name="Path 174" d="M94.224,530.807s.755,15.381-1.082,22.729a59.589,59.589,0,0,1-3.366-13.953C88.91,531.855,94.224,530.807,94.224,530.807Z" fill="#5f3730"/>
        <g id="Group_33" data-name="Group 33">
          <path id="Path_175" data-name="Path 175" d="M199.356,669.3c24.623,2.435,35.262,27.927,37.466,34.192l-14.33,11.151a115.571,115.571,0,0,1-19.959-19.256c-14.591-.982-30.006-4.425-45.516-2.987l1.42-17.657C159.992,674.637,175.137,666.9,199.356,669.3Z" fill="#49362a"/>
        </g>
        <g id="Group_34" data-name="Group 34" opacity="0.08">
          <path id="Path_176" data-name="Path 176" d="M199.356,669.3c11.736,1.161,20.289,7.56,26.272,14.618a28.418,28.418,0,0,1-7.363,3.212c-8.279,2.262-19.014-1.285-23.66-7.684-.4-.681-.815-1.357-1.225-2.034a10.9,10.9,0,0,1-.422-8.526C195.014,668.945,197.146,669.078,199.356,669.3Z" fill="#fff"/>
        </g>
        <g id="Group_35" data-name="Group 35">
          <path id="Path_177" data-name="Path 177" d="M177.3,718.943l-1.785,12.879-8.719-1.638.575-12.078Z" fill="#bbb5a2"/>
          <path id="Path_178" data-name="Path 178" d="M169.984,728.479h.1a7.634,7.634,0,0,0,5.284-1.952,7.3,7.3,0,0,0,1.212-1.519c26.918.92,22.113,17.614,22.113,17.614l-34.525-.167s-1.687-11.105,2.544-14.952A6.436,6.436,0,0,0,169.984,728.479Z" fill="#564131"/>
          <path id="Path_179" data-name="Path 179" d="M199.561,744.034l-36.109.431-.486-4.7,36.941.846Z" fill="#efe8da"/>
          <path id="Path_180" data-name="Path 180" d="M166.943,727.063a6.732,6.732,0,0,0,5.092,1.2c2.82-.59,4.494-3.769,4.494-3.769l1.8.079a.46.46,0,0,1,.418.608,8.668,8.668,0,0,1-5.435,5.093,10.791,10.791,0,0,1-8.393-.44.448.448,0,0,1-.076-.755Z" fill="#efe8da"/>
          <path id="Path_181" data-name="Path 181" d="M196.418,730.639c-2.462,2.943-8.023,7.626-13.24,5.017-5.852-2.927-3.583-8.929-2.322-11.211C188.625,725.263,193.775,727.939,196.418,730.639Z" fill="#efe8da"/>
        </g>
        <g id="Group_36" data-name="Group 36">
          <path id="Path_182" data-name="Path 182" d="M154.3,669.3c26.219,2.435,27.325,40.491,25.045,51.889l-16.383,1.6c-8.793-11.1-6.846-27.506-6.846-27.506-10.677-.675-20.523-1.414-31.778-2.03-8.4-.46-13.444-7.017-16.063-17.929l.649-.11C110.584,675.112,128.514,666.9,154.3,669.3Z" fill="#564131"/>
        </g>
        <g id="Group_37" data-name="Group 37" opacity="0.09">
          <path id="Path_183" data-name="Path 183" d="M154.3,669.3c11.22,1.042,17.831,8.612,21.556,17.82-14.038,7.937-33.415-3.4-29.411-18.239C148.976,668.916,151.594,669.045,154.3,669.3Z" fill="#fff"/>
        </g>
        <path id="Path_184" data-name="Path 184" d="M127.629,599.621s.976,5.45,9.922,5.45,10.4-5.243,10.4-5.243a4.467,4.467,0,0,1,5.367.188s.43,10.3-15.769,10.311c-14.926.013-16.14-11.271-16.14-11.271S124.78,597.021,127.629,599.621Z" fill="#eed5a5"/>
        <path id="Path_185" data-name="Path 185" d="M86.656,518.1a33.534,33.534,0,0,1,4.21-9.455l-2.752.364a6.121,6.121,0,0,1,3.831-4.053,6.053,6.053,0,0,1-5.1-3.292,6.829,6.829,0,0,1,5.1.38c-1.908-2.523-.918-6.713-.918-6.713,4.517,2.567,4.54,4.884,4.387,5.669a7.2,7.2,0,0,1,4.351-5.114,6.729,6.729,0,0,1-.39,3.205,41.866,41.866,0,0,1,19.386-8.6c.259-.046.519-.089.779-.131q1.323-.213,2.655-.371a94.8,94.8,0,0,1,22.345.29,16.643,16.643,0,0,1-3.282,2c22.22,4.922,29.3,26.417,29.3,26.417a25.668,25.668,0,0,1-6.056-2.816c.928,1.768,1.17,3.615,1.83,5.34-8.307-2.831-13.282-9.586-21.814-15.867l1.6,11.651c-7.729-.423-14.837-5.382-22.719-8.752a53.923,53.923,0,0,1,12.558,13.115c-16.347-2.208-21.807-8.877-31.545-14.96-1.956,10.434-7.436,19.622-15.587,25.5-.035-1.552.036-3.137.151-4.728-2.049,2.092-3.365,1.909-3.365,1.909a19.706,19.706,0,0,1,.077-5.481A33.3,33.3,0,0,1,86.656,518.1Z" fill="#684035"/>
        <path id="Path_186" data-name="Path 186" d="M118.921,673.9c3.711-.3,3.646-4.919,7.44-6.265,1.963-.7,3.172,4.574,1.48,7.45-2.185,3.716-8.225,5.416-7.773,6.836.288.9,1.541,1.463,2.312,1.847a28.175,28.175,0,0,0,3.612,1.447c3.389,1.14,25.175,10.06,26.337,10.7a.831.831,0,0,1,.416.384c.146.386-1.6,1.8-1.92,2.115-.817.805-1.667,1.578-2.559,2.3a18.489,18.489,0,0,1-5.377,3.185c-9.4,3.306-19.181,2.39-28.079-4.68-4.313-3.428-9.916-9.163-9.011-16.509C106.276,678.829,108.631,674.727,118.921,673.9Z" fill="#da9d86"/>
        <path id="Path_187" data-name="Path 187" d="M102.836,637.018s-6.079-8.169,6.364-7.409c2.2.134,4.155-.768,6.158-1.69,1.275-.587,2.335-1.64,3.666-2.1,1.437-.5,2.568.07,3.76.847a33,33,0,0,1,7.253,6.435c1.026,1.222,1.954,2.537,3.036,3.671l1.007,16.686c-.928,1.433-4.572,3.943-5.978,4.646-4.807,2.406-12.139,3.744-17.477,3.9-12.968.366-4.907-6.528-5.992-6.934-7.876-2.945-3.651-8.976-1.987-8.549l.043.029-.043-.029C93.552,640.342,102.836,637.018,102.836,637.018Z" fill="#da9d86"/>
        <path id="Path_188" data-name="Path 188" d="M109.573,629.87c-.319.136-.326.09-.373-.261C109.176,629.425,109.33,629.563,109.573,629.87Z" fill="#da9d86"/>
        <path id="Path_189" data-name="Path 189" d="M112.81,617.831c1.045-4.464,6.174-6.174,5.509-3.324s-.76,7.028,4.947,11.125,10.05,12.229,10.05,12.229l-20.981-3.825s-1.932-3.121-2.762-4.166a17.447,17.447,0,0,1,3.65-1.206C117.246,627.719,111.765,622.295,112.81,617.831Z" fill="#da9d86"/>
        <path id="Path_190" data-name="Path 190" d="M130.034,683.276c3.356-1.52,10.419-6.334,14.788-8.169,3.311-1.391,5.855-1.14,5.982,0a4.076,4.076,0,0,1-.507,2.216s2.976-2.026,4.813-2.09,4.749.95,3.166,2.85-2.027,2.436-2.027,2.436a3.938,3.938,0,0,1,3.23,0c1.646.793,0,3.567,0,3.567s2.062.363,1.71,1.529c-.823,2.726-6.564,9.155-8.693,11.2s-28.541-8.534-28.541-8.534l-2.217-4.566S126.678,684.795,130.034,683.276Z" fill="#da9d86"/>
        <g id="Group_38" data-name="Group 38">
          <path id="Path_191" data-name="Path 191" d="M197.974,663.372c15.416,2.67,29.274-2.95,52.681-44.437,5.485,3.63,11.066,7.125,16.573,10.737-21.149,37.72-38.621,52.686-61.333,52.686a64.615,64.615,0,0,1-11.035-1.017c-24.681-4.278-57.671-25.8-63.544-28.494l1.757-16.075C137.127,637.564,176.147,659.588,197.974,663.372Z" fill="#da9d86"/>
        </g>
        <path id="Path_192" data-name="Path 192" d="M273.591,617.87a330.779,330.779,0,0,1-14.505,32.161l-23.863-12.17,20.84-45.53S281.068,598.816,273.591,617.87Z" fill="#698d49"/>
        <path id="Path_193" data-name="Path 193" d="M77.461,684.563c-.312.2-.484,1.551-.564,1.873a20.706,20.706,0,0,0-.634,4.8,11.627,11.627,0,0,0,1.122,5.709c.849,1.48,1.7,3.155,3.42,3.78,1.14.416,2.472.3,3.49.964.695.452,1.15,1.214,1.861,1.639,1.022.613,2.31.4,3.5.49,1.523.111,2.969,1.138,4.481.924,3.664-.52,6.295-4.534,7.068-5.552a.878.878,0,0,0,.234-.686.828.828,0,0,0-.33-.443,2.635,2.635,0,0,0-3.258.086,1.291,1.291,0,0,1-.415.3.7.7,0,0,1-.749-.3,10.359,10.359,0,0,1-.6-1.735c-.339-.74-.7-1.468-1.036-2.211-.389-.868-1.07-2.111-.779-3.1.584-1.985.545,2.564,3.411,3.1,3.823.711,1.611-1.492.968-4.46-1.236-5.707-9.306-10.519-12.318-9.7S77.463,684.562,77.461,684.563Z" fill="#d9a187"/>
        <path id="Path_194" data-name="Path 194" d="M101.107,698.057a2.637,2.637,0,0,0-3.258.086,1.291,1.291,0,0,1-.415.3.7.7,0,0,1-.749-.3,10.317,10.317,0,0,1-.6-1.734c-.339-.74-.7-1.468-1.036-2.211-.389-.868-1.07-2.111-.779-3.1.584-1.985.545,2.564,3.411,3.1,3.823.71,1.611-1.493.968-4.461-.763-3.524-4.133-6.7-7.308-8.429a10.383,10.383,0,0,1,.5,5.634,9.449,9.449,0,0,1-8.79,7.225,9.1,9.1,0,0,1-6.787-2.536,11.1,11.1,0,0,0,1.112,5.321c.849,1.48,1.7,3.155,3.42,3.78,1.14.416,2.472.3,3.49.964.695.452,1.15,1.214,1.861,1.639,1.022.613,2.31.4,3.5.49,1.523.111,2.969,1.138,4.481.924,3.664-.52,6.295-4.534,7.068-5.552a.878.878,0,0,0,.234-.686A.828.828,0,0,0,101.107,698.057Z" fill="#d2917c"/>
        <path id="Path_195" data-name="Path 195" d="M591.293,585.476C585,596.437,571.445,619.783,566.349,634.6c-5.71,16.61,5.547,28.906,15.593,14.373,9.874-14.283,13.459-47.667,18.078-57.314C597.544,590.169,593.152,587.627,591.293,585.476Z" fill="#daa389"/>
        <path id="Path_196" data-name="Path 196" d="M596.69,602.457a61.9,61.9,0,0,1,3.33-10.794c-2.476-1.494-6.868-4.036-8.727-6.187-.987,1.718-2.166,3.767-3.448,6.013A18.2,18.2,0,0,1,596.69,602.457Z" fill="#d2917c"/>
      </g>
    </g>
  </g>
</svg>
